<?xml version="1.0" encoding="UTF-8"?>
<!-- Created with Inkscape (http://www.inkscape.org/) -->
<svg width="6.8795mm" height="14.022mm" version="1.1" viewBox="0 0 6.8795 14.022" xmlns="http://www.w3.org/2000/svg" xmlns:cc="http://creativecommons.org/ns#" xmlns:dc="http://purl.org/dc/elements/1.1/" xmlns:rdf="http://www.w3.org/1999/02/22-rdf-syntax-ns#">
 <metadata>
  <rdf:RDF>
   <cc:Work rdf:about="">
    <dc:format>image/svg+xml</dc:format>
    <dc:type rdf:resource="http://purl.org/dc/dcmitype/StillImage"/>
    <dc:title/>
   </cc:Work>
  </rdf:RDF>
 </metadata>
 <g transform="translate(-32.09 -117.63)">
  <path d="m35.117 117.63a3.0109 3.0429 0 0 0-2.777 1.829 3.0109 3.0429 0 0 0 1.024 3.698 3.0109 3.0429 0 0 0 3.791-0.259l-0.671-0.727a2.0288 2.0503 0 0 1-1.382 0.552 2.0288 2.0503 0 0 1-2.029-2.049 2.0288 2.0503 0 0 1 2.029-2.051 2.0288 2.0503 0 0 1 2.029 2.049h-0.857l1.348 1.346 0.672-0.673 0.676-0.673h-0.856a3.0109 3.0429 0 0 0-2.399-2.978 3.0109 3.0429 0 0 0-0.598-0.06z" fill="#aada40"/>
  <path d="m35.117 125.57a3.0109 3.0429 0 0 0-2.777 1.829 3.0109 3.0429 0 0 0 1.024 3.698 3.0109 3.0429 0 0 0 3.791-0.259l-0.671-0.727a2.0288 2.0503 0 0 1-1.382 0.552 2.0288 2.0503 0 0 1-2.029-2.049 2.0288 2.0503 0 0 1 2.029-2.051 2.0288 2.0503 0 0 1 2.029 2.049h-0.857l0.674 0.673 0.674 0.674 0.672-0.674 0.676-0.673h-0.856a3.0109 3.0429 0 0 0-2.399-2.978 3.0109 3.0429 0 0 0-0.598-0.06z" fill="#83a024"/>
 </g>
</svg>
