<svg xmlns="http://www.w3.org/2000/svg" viewBox="0 0 50 50"><defs><style>.cls-1{opacity:0.85;}.cls-2{fill:#002b49;}</style></defs><title>contactus2-joinus</title><g id="Capa_2" data-name="Capa 2"><g id="Capa_1-2" data-name="Capa 1"><g class="cls-1"><path class="cls-2" d="M38.75,26.68l-5.4-6.89a11.59,11.59,0,0,0,3.27-7.29H45v.91a4.17,4.17,0,1,0,1.67,0V11.66a.84.84,0,0,0-.84-.83h-9.2a11.74,11.74,0,0,0-2.44-6.34l1.16-1.16h9.8a2.5,2.5,0,1,0,0-1.66H35a.78.78,0,0,0-.58.24L33.06,3.26a11.64,11.64,0,0,0-19.68,7.57h-7L3.66,4.7a2.49,2.49,0,1,0-3.37-1A2.53,2.53,0,0,0,1.93,4.93L5.08,12a.83.83,0,0,0,.76.5h7.54a11.6,11.6,0,0,0,3.21,7.22l-7,7A8.32,8.32,0,1,0,7.09,43.22l.42.05v4.21a.83.83,0,0,0,.83.83H16a2.5,2.5,0,1,0,1.52-3.19A2.53,2.53,0,0,0,16,46.65H9.17V43.27a8.32,8.32,0,0,0,2.25-16l6.41-6.41a11.59,11.59,0,0,0,14.26.06l4.63,5.88a11.69,11.69,0,1,0,2-.1Zm9.57-9.14a2.5,2.5,0,1,1-2.5-2.49A2.49,2.49,0,0,1,48.32,17.54ZM47.49,1.72a.83.83,0,1,1-.83.83A.83.83,0,0,1,47.49,1.72Zm-45,1.66a.83.83,0,1,1,0-1.66.83.83,0,1,1,0,1.66ZM18.33,46.7a.84.84,0,0,1,.84.83.85.85,0,0,1-.84.84.84.84,0,0,1-.83-.84A.83.83,0,0,1,18.33,46.7Zm-6.66-5.9A6.61,6.61,0,0,1,5,40.8V39.27a3.37,3.37,0,0,1,3.08-3.39,3.33,3.33,0,0,1,3.58,3.32Zm-5-8.26a1.67,1.67,0,1,1,3.33,0,1.67,1.67,0,0,1-3.33,0Zm6.67-1.92a6.67,6.67,0,0,1,0,8.81V39.2a5,5,0,0,0-2.59-4.37,3.33,3.33,0,1,0-4.82,0A5,5,0,0,0,3.34,39.2v.23a6.66,6.66,0,0,1,10-8.81ZM30.83,19.76a9.9,9.9,0,0,1-11.66,0v-2A2.75,2.75,0,0,1,21.92,15h1.85l-1.21,3a.83.83,0,0,0,.18.9l1.67,1.66a.83.83,0,0,0,1.18,0l1.66-1.66a.84.84,0,0,0,.19-.9l-1.21-3h1.85a2.75,2.75,0,0,1,2.75,2.75v2ZM25.12,6.29a.8.8,0,0,0-.08.16c-.42,1.27-2.7,1.74-4.16,1.88C21.1,5.54,22.42,4.22,25,4.22a3.64,3.64,0,0,1,4,3.45L26.26,6A.82.82,0,0,0,25.12,6.29Zm1,1.59,3,1.78A5.15,5.15,0,0,1,25,13.38,5.23,5.23,0,0,1,21,10C22.37,9.89,25,9.45,26.15,7.88Zm-.46,10.3-.69.69-.69-.69L25,16.46Zm2.94-4.76a5.79,5.79,0,0,0,2.2-4.21c0-5.5-3.17-6.66-5.83-6.66s-5.83,1.16-5.83,6.66a5.74,5.74,0,0,0,2.19,4.21,4.41,4.41,0,0,0-3.86,4.37v.51a10,10,0,1,1,15,0v-.51A4.41,4.41,0,0,0,28.63,13.42Zm15.53,33a9.94,9.94,0,0,1-11.66,0v-2a2.75,2.75,0,0,1,2.74-2.75h1.85l-1.21,3a.83.83,0,0,0,.19.9l1.67,1.67a.83.83,0,0,0,1.17,0l1.67-1.67a.81.81,0,0,0,.18-.9l-1.2-3h1.85a2.75,2.75,0,0,1,2.75,2.75ZM39.47,34.53h0l3,1.79A5.17,5.17,0,0,1,38.32,40a5.27,5.27,0,0,1-4-3.38C35.7,36.54,38.27,36.11,39.47,34.53ZM34.21,35h0c.22-2.79,1.53-4.12,4.12-4.12a3.64,3.64,0,0,1,4,3.45l-2.77-1.66a.84.84,0,0,0-1.15.28.87.87,0,0,0-.07.17C38,34.37,35.67,34.85,34.21,35ZM39,44.83l-.68.69-.69-.69.69-1.72Zm6.81.13v-.51A4.4,4.4,0,0,0,42,40.07a5.78,5.78,0,0,0,2.2-4.2c0-5.51-3.17-6.66-5.83-6.66s-5.83,1.15-5.83,6.66a5.78,5.78,0,0,0,2.19,4.21,4.4,4.4,0,0,0-3.86,4.37V45a10,10,0,1,1,15,0Z"/></g></g></g></svg>