<svg id="Capa_1" data-name="Capa 1" xmlns="http://www.w3.org/2000/svg" viewBox="0 0 587.07 587.07"><defs><style>.cls-1{fill:#e2e5e7;}.cls-2{fill:#002a48;opacity:0.51;}</style></defs><title>down-arrow-angle</title><circle class="cls-1" cx="293.53" cy="293.53" r="293.53"/><path class="cls-2" d="M493.68,234.51,297.6,418.64a15.58,15.58,0,0,1-21.82-.48L96.9,234.66A15.59,15.59,0,0,1,97,212.77l.28-.28a15.58,15.58,0,0,1,22.18.13L277,374.24a15.57,15.57,0,0,0,21.81.48l173.5-162.93a15.58,15.58,0,0,1,21.83.5h0A15.57,15.57,0,0,1,493.68,234.51Z" transform="translate(0 0)"/></svg>