<?xml version="1.0" encoding="utf-8"?>
<!-- Generator: Adobe Illustrator 22.1.0, SVG Export Plug-In . SVG Version: 6.00 Build 0)  -->
<svg version="1.1" id="Layer_1" xmlns="http://www.w3.org/2000/svg" xmlns:xlink="http://www.w3.org/1999/xlink" x="0px" y="0px"
	 viewBox="0 0 55 58.9" style="enable-background:new 0 0 55 58.9;" xml:space="preserve">
<style type="text/css">
	.st0{fill:#A9B6BB;}
	.st1{fill:#33556D;}
</style>
<title>aboutus3-certficate</title>
<path class="st0" d="M47.4,48.4c0.7-0.8,1-1.9,1-3c0-2.8-2.3-5-5.1-4.9c-2.7,0-4.9,2.2-4.9,4.9c0,1.1,0.3,2.1,1,2.9l-0.1,0.1l-3.4,6
	h4.7l2.3-3.9v-0.1H44c1.2-0.1,2.2-0.7,3-1.5c-0.8,0.8-1.9,1.3-3,1.5v0.1l2.3,3.9l0,0l2.4,4l1.2-1.9l2.2-0.1l-1.2-2l0,0L47.4,48.4z
	 M47.1,48.8L47.1,48.8L47.1,48.8z M40.5,54.4l-2.4,4l-1.2-1.9l-2.2-0.1l1.2-2L40.5,54.4z"/>
<path class="st1" d="M38.6,58.6c-0.1,0.2-0.3,0.3-0.5,0.3l0,0c-0.2,0-0.3-0.1-0.4-0.2L36.6,57l-2-0.1c-0.2,0-0.3-0.1-0.4-0.3
	c-0.1-0.2-0.1-0.3,0-0.5l3-5.2c0.1-0.2,0.4-0.3,0.7-0.2c0.2,0.1,0.3,0.4,0.2,0.7l-2.6,4.5l1.4,0.1c0.2,0,0.3,0.1,0.4,0.2l0.8,1.2
	l2.6-4.4c0.1-0.2,0.4-0.3,0.7-0.2c0.2,0.1,0.3,0.4,0.2,0.7 M48.7,58.9L48.7,58.9c-0.2,0-0.3-0.1-0.4-0.3l-3-5.1
	c-0.1-0.2,0-0.6,0.2-0.7c0.2-0.1,0.6,0,0.7,0.2l2.5,4.4l0.8-1.2c0.1-0.1,0.2-0.2,0.4-0.2l1.4-0.1l-2.6-4.4c-0.1-0.2,0-0.6,0.2-0.7
	c0.2-0.1,0.6,0,0.7,0.2l3,5.1c0.1,0.2,0.1,0.3,0,0.5c-0.1,0.2-0.2,0.3-0.4,0.3l-2,0.1l-1.1,1.7C49,58.8,48.9,58.9,48.7,58.9
	L48.7,58.9z M31.4,54.9h-19c-2.5,0-4.5-2-4.5-4.5c0,0,0,0,0,0V4.9c-1.7,0.2-3,1.7-3,3.5c0,0.3-0.2,0.5-0.4,0.5c0,0,0,0-0.1,0
	c-0.3,0-0.5-0.2-0.5-0.4c0,0,0,0,0-0.1c0-2.5,2-4.5,4.5-4.5c0,0,0,0,0,0c0.3,0,0.5,0.2,0.5,0.4c0,0,0,0,0,0.1v46
	c0,1.9,1.6,3.5,3.5,3.5h19c0.3,0,0.5,0.2,0.5,0.5C31.9,54.7,31.7,54.9,31.4,54.9L31.4,54.9z M53.9,52.9c-0.1,0-0.2,0-0.3-0.1
	c-0.2-0.1-0.3-0.4-0.2-0.7c0.3-0.5,0.5-1.1,0.5-1.7v-42c0-4.1-3.4-7.5-7.5-7.5h-38c-4.1,0-7.5,3.4-7.5,7.5c0,2.7,1.4,5.1,3.8,6.5
	C4.9,15,5,15.3,4.9,15.6c-0.1,0.2-0.4,0.3-0.7,0.2C1.6,14.3,0,11.5,0,8.5l0,0C0,3.8,3.8,0,8.5,0c0,0,0,0,0,0h38
	C51.2,0,55,3.8,55,8.5c0,0,0,0,0,0v42c0,0.8-0.2,1.5-0.6,2.2C54.2,52.8,54,52.9,53.9,52.9z M43.4,50.9c-3,0-5.5-2.5-5.5-5.5
	c0-3,2.5-5.5,5.5-5.5c3,0,5.5,2.5,5.5,5.5C48.9,48.4,46.4,50.9,43.4,50.9L43.4,50.9z M43.4,40.9c-2.5,0-4.5,2-4.5,4.5s2,4.5,4.5,4.5
	c2.5,0,4.5-2,4.5-4.5l0,0C47.9,42.9,45.9,40.9,43.4,40.9C43.4,40.9,43.4,40.9,43.4,40.9L43.4,40.9z M30.4,46.9h-4
	c-0.2,0-0.3-0.1-0.4-0.2c-0.1-0.1-0.1-0.3,0-0.5c0.2-0.5,0.4-1,0.4-1.3c-0.6,0.1-1.7,1-2.6,1.8c-0.1,0.1-0.4,0.2-0.5,0.1
	c-0.2-0.1-0.3-0.3-0.3-0.5v-1.5c-0.5,0.4-1.4,1.1-2.1,1.9c-0.1,0.2-0.4,0.2-0.6,0.1c-0.2-0.1-0.3-0.4-0.2-0.6
	c0.5-1.4,1.7-5.3,0.6-6.8c-0.3-0.4-0.6-0.5-1.2-0.5c-1,0-1.7,0.4-2.1,1C16.7,41,16.9,43,18,45.1c0.1,0.2,0,0.5-0.2,0.7
	c-0.2,0.1-0.5,0-0.7-0.2c-1.2-2.5-1.4-4.7-0.5-6.2c0.6-1,1.7-1.5,3-1.5c0.9,0,1.6,0.3,2,1c1,1.4,0.5,4.1,0,5.9
	c1.5-1.2,1.9-1.1,2.1-1c0.3,0.1,0.4,0.3,0.4,0.7v0.9c0.7-0.6,1.8-1.4,2.5-1.4c0.3,0,0.6,0.1,0.8,0.4c0.3,0.4,0.1,1.1,0,1.6h3.2
	c0.3,0,0.5,0.2,0.5,0.4c0,0,0,0,0,0.1C31.1,46.8,30.7,46.9,30.4,46.9L30.4,46.9z M42.4,32.9h-10c-0.3,0-0.5-0.2-0.5-0.5
	s0.2-0.5,0.5-0.5l0,0h10c0.3,0,0.5,0.2,0.5,0.5S42.7,32.9,42.4,32.9L42.4,32.9z M28.4,32.9h-12c-0.3,0-0.5-0.2-0.5-0.5
	s0.2-0.5,0.5-0.5h12c0.3,0,0.5,0.2,0.5,0.5S28.7,32.9,28.4,32.9z M46.4,26.9h-6c-0.3,0-0.5-0.2-0.5-0.5c0-0.3,0.2-0.5,0.5-0.5
	c0,0,0,0,0,0h6c0.3,0,0.5,0.2,0.5,0.5C46.9,26.7,46.7,26.9,46.4,26.9z M36.4,26.9h-10c-0.3,0-0.5-0.2-0.5-0.5c0-0.3,0.2-0.5,0.5-0.5
	h10c0.3,0,0.5,0.2,0.5,0.5C36.9,26.7,36.7,26.9,36.4,26.9L36.4,26.9z M22.4,26.9h-6c-0.3,0-0.5-0.2-0.5-0.5c0-0.3,0.2-0.5,0.5-0.5
	c0,0,0,0,0,0h6c0.3,0,0.5,0.2,0.5,0.5C22.9,26.7,22.7,26.9,22.4,26.9L22.4,26.9z M44.4,20.9h-10c-0.3,0-0.5-0.2-0.5-0.5
	c0-0.3,0.2-0.5,0.5-0.5h10c0.3,0,0.5,0.2,0.5,0.5C44.9,20.7,44.7,20.9,44.4,20.9L44.4,20.9z M30.4,20.9h-14c-0.3,0-0.5-0.2-0.5-0.5
	c0-0.3,0.2-0.5,0.5-0.5h14c0.3,0,0.5,0.2,0.5,0.5C30.9,20.7,30.7,20.9,30.4,20.9L30.4,20.9z M38.4,14.9h-2c-0.3,0-0.5-0.2-0.5-0.5
	c0-0.3,0.2-0.5,0.5-0.5h2c0.3,0,0.5,0.2,0.5,0.5C38.9,14.7,38.7,14.9,38.4,14.9L38.4,14.9z M32.4,14.9h-8c-0.3,0-0.5-0.2-0.5-0.5
	c0-0.3,0.2-0.5,0.5-0.5h8c0.3,0,0.5,0.2,0.5,0.5C32.9,14.7,32.7,14.9,32.4,14.9L32.4,14.9z M20.4,14.9h-4c-0.3,0-0.5-0.2-0.5-0.5
	c0-0.3,0.2-0.5,0.5-0.5h4c0.3,0,0.5,0.2,0.5,0.5C20.9,14.7,20.7,14.9,20.4,14.9L20.4,14.9z"/>
</svg>
