<svg xmlns="http://www.w3.org/2000/svg" viewBox="0 0 40 39.89"><defs><style>.cls-1{fill:#a9b6bb;}.cls-2{fill:#33556d;}</style></defs><title>contactus3-placeholder</title><g id="Capa_2" data-name="Capa 2"><g id="Capa_1-2" data-name="Capa 1"><path class="cls-1" d="M32.84,24.85H28.16l2-2.88C33.91,17,33.37,8.71,29,4.33a12.52,12.52,0,0,0-17.73,0C6.87,8.71,6.32,17,10.07,22l2,2.9H7.16L0,39.89H40ZM11.13,20.93C7.73,16.4,8.22,9,12.17,5A11.24,11.24,0,0,1,28.06,5c4,3.95,4.44,11.4,1,16l-9,13L13.67,24.6h0ZM8,26.16h5l7.14,10.3,7.13-10.3H32l5.92,12.42H2.07Z"/><path class="cls-2" d="M29.25,3.78A12.92,12.92,0,0,0,11,3.78c-4.51,4.51-5.07,13-1.21,18.15L20.12,36.86,30.45,22C34.32,16.78,33.76,8.29,29.25,3.78Zm-9,13.72A4.71,4.71,0,1,1,25,12.79,4.71,4.71,0,0,1,20.24,17.5Z"/></g></g></svg>