<svg xmlns="http://www.w3.org/2000/svg" viewBox="0 0 39 39.08"><defs><style>.cls-1{fill:#33556d;}.cls-2{fill:#a9b6bb;}</style></defs><title>template1A-medical</title><g id="Capa_2" data-name="Capa 2"><g id="Capa_1-2" data-name="Capa 1"><path class="cls-1" d="M26.49,33.2a1.44,1.44,0,1,0,1.44,1.44A1.43,1.43,0,0,0,26.49,33.2Zm0,1.92a.48.48,0,0,1-.48-.48.47.47,0,0,1,.48-.48.48.48,0,0,1,.48.48A.49.49,0,0,1,26.49,35.12Z"/><path class="cls-1" d="M34.94,14.7H18.81a4.14,4.14,0,0,0-4.19,4.06v5.69H16.3V18.74a2.44,2.44,0,0,1,2.44-2.44H35a2.44,2.44,0,0,1,2.44,2.44V35A2.44,2.44,0,0,1,35,37.4H18.66A2.44,2.44,0,0,1,16.22,35V31.69h-1.6V35a4.08,4.08,0,0,0,4.07,4.07H34.94A4.07,4.07,0,0,0,39,35V18.76A4.06,4.06,0,0,0,34.94,14.7Z"/><path class="cls-1" d="M33.36,17.9h-13a2.44,2.44,0,0,0-2.44,2.44v3.27h1.6V20.39a.81.81,0,0,1,.81-.81h13a.81.81,0,0,1,.81.81v9.72a.82.82,0,0,1-.81.82h-13a.83.83,0,0,1-.81-.84H17.93a2.44,2.44,0,0,0,2.43,2.44h13a2.44,2.44,0,0,0,2.44-2.44V20.35A2.45,2.45,0,0,0,33.36,17.9Z"/><path class="cls-2" d="M8.79.43A.79.79,0,0,0,7.55.29L.35,7.6,1.48,8.75,7.31,2.82V6.58a.81.81,0,0,1-.81.81H4V9H6.51a2.42,2.42,0,0,0,2.4-2.44V.88A.87.87,0,0,0,8.79.43Z"/><path class="cls-2" d="M25.25,0H8.12a.82.82,0,0,0-.57.24L.24,7.55A.82.82,0,0,0,0,8.12V31.8a4,4,0,0,0,4.07,4h9V34.2H4.11a2.43,2.43,0,0,1-2.43-2.44V8.52L8.51,1.68h16.7a2.43,2.43,0,0,1,2.44,2.43V13h1.6v-9A4,4,0,0,0,25.25,0Z"/><path class="cls-1" d="M28,25.21l-3.82-3.8a.83.83,0,0,0-1.15,0l-6.74,6.74-2.67-2.67a1.67,1.67,0,0,0-.58-.27H4.11v1.6h8.6l3,3a.81.81,0,0,0,.24.17.82.82,0,0,0,.91-.16l6.74-6.64,3.48,3.44a.81.81,0,0,0,.57.23h4.88v-1.6Z"/><rect class="cls-1" x="4.04" y="21.18" width="8.15" height="1.6"/><rect class="cls-1" x="4.04" y="17.14" width="8.15" height="1.6"/><rect class="cls-1" x="7.31" y="13.03" width="4.88" height="1.6"/><rect class="cls-1" x="4.11" y="13.03" width="1.6" height="1.6"/><path class="cls-1" d="M17.77,13.08h4.48v-3h3V5.61h-3v-3H17.77v3h-3v4.48h3Zm-1.5-4.49V7.1h3v-3h1.49v3h3V8.59h-3v3H19.26v-3Z"/></g></g></svg>