<svg xmlns="http://www.w3.org/2000/svg" viewBox="0 0 40.93 38.1"><defs><style>.cls-1{fill:#33556d;}.cls-2{fill:#a9b6bb;}</style></defs><title>template5-opinions</title><g id="Capa_2" data-name="Capa 2"><g id="Capa_1-2" data-name="Capa 1"><path class="cls-1" d="M15.22,21.91a.64.64,0,0,1-.24,0,.34.34,0,0,1-.26-.3V16.76c-4.38-1.54-6.79-4.23-6.79-7.61C7.93,3.93,15,0,24.43,0s16.5,3.93,16.5,9.15-7.09,9.15-16.5,9.15l-.91,0h0l-8,3.58A.81.81,0,0,1,15.22,21.91ZM24.44.68C15.6.68,8.94,4.32,8.94,9.15c0,2.24,1.12,5.3,6.49,7.09.17.06.29.18.29.31V21l7.37-3.3a.73.73,0,0,1,.3-.06h.18l.86,0c8.84,0,15.5-3.64,15.5-8.47S33.27.68,24.44.68Z"/><path class="cls-2" d="M8.06,25.28a4.73,4.73,0,1,0-4.73-4.73A4.72,4.72,0,0,0,8.06,25.28Z"/><path class="cls-1" d="M10.07,25.62h-4a6.05,6.05,0,0,0-6,6.05v5l.34.11A27.43,27.43,0,0,0,8.58,38.1a16.93,16.93,0,0,0,7.19-1.35l.32-.16h0V31.68A6.07,6.07,0,0,0,10.07,25.62Z"/><path class="cls-2" d="M19.71,7.84a.14.14,0,0,0-.11-.09l-2.5-.34L16,5.26a.14.14,0,0,0-.13-.08.13.13,0,0,0-.12.08L14.62,7.41l-2.49.34a.13.13,0,0,0-.11.09.11.11,0,0,0,0,.13l1.81,1.68L13.43,12a.12.12,0,0,0,.06.13.14.14,0,0,0,.14,0L15.86,11l2.24,1.11.06,0a.11.11,0,0,0,.08,0A.16.16,0,0,0,18.3,12l-.43-2.36L19.67,8A.11.11,0,0,0,19.71,7.84Z"/><path class="cls-2" d="M37.71,7.84a.14.14,0,0,0-.11-.09l-2.5-.34L34,5.26a.14.14,0,0,0-.13-.08.13.13,0,0,0-.12.08L32.62,7.41l-2.49.34a.13.13,0,0,0-.11.09.11.11,0,0,0,0,.13l1.81,1.68L31.43,12a.12.12,0,0,0,.06.13.14.14,0,0,0,.14,0L33.86,11l2.24,1.11.06,0a.11.11,0,0,0,.08,0A.16.16,0,0,0,36.3,12l-.43-2.36L37.67,8A.11.11,0,0,0,37.71,7.84Z"/><path class="cls-2" d="M28.71,7.84a.14.14,0,0,0-.11-.09l-2.5-.34L25,5.26a.14.14,0,0,0-.13-.08.13.13,0,0,0-.12.08L23.62,7.41l-2.49.34a.13.13,0,0,0-.11.09.11.11,0,0,0,0,.13l1.81,1.68L22.43,12a.12.12,0,0,0,.06.13.14.14,0,0,0,.14,0L24.86,11l2.24,1.11.06,0a.11.11,0,0,0,.08,0A.16.16,0,0,0,27.3,12l-.43-2.36L28.67,8A.11.11,0,0,0,28.71,7.84Z"/></g></g></svg>