<svg xmlns="http://www.w3.org/2000/svg" viewBox="0 0 40 35.8"><defs><style>.cls-1{fill:#a9b6bb;}.cls-2{fill:#33556d;}</style></defs><title>template7-camera</title><g id="Capa_2" data-name="Capa 2"><g id="Capa_1-2" data-name="Capa 1"><path class="cls-1" d="M12.35,5a2.3,2.3,0,0,0-2.29-2.3H6A2.29,2.29,0,0,0,3.7,5V7.57h8.65V5Z"/><path class="cls-1" d="M26.34,17.2a5.46,5.46,0,1,0,5.46,5.46A5.46,5.46,0,0,0,26.34,17.2Z"/><path class="cls-2" d="M37,9.47H35.68l-1.8-7.21A3,3,0,0,0,31,0H21a3,3,0,0,0-2.9,2.26l-1.8,7.21H3a3,3,0,0,0-3,3V32.8a3,3,0,0,0,3,3H8.23V15.21a1.35,1.35,0,0,1,1.26-1.36,1.33,1.33,0,0,1,1.37,1.33V35.8H37a3,3,0,0,0,3-3V12.46A3,3,0,0,0,37,9.47ZM20.82,3.87a.51.51,0,0,1,.5-.5h9.54a.51.51,0,0,1,.5.5v3.2a.5.5,0,0,1-.5.5H21.32a.5.5,0,0,1-.5-.5V3.87Zm5.52,28.72a9.94,9.94,0,1,1,9.94-9.93A9.94,9.94,0,0,1,26.34,32.59Z"/></g></g></svg>