<svg xmlns="http://www.w3.org/2000/svg" viewBox="0 0 40 36.71"><defs><style>.cls-1{fill:#a9b6bb;}.cls-2{fill:#33556d;}</style></defs><title>template8-team</title><g id="Capa_2" data-name="Capa 2"><g id="Capa_1-2" data-name="Capa 1"><path class="cls-1" d="M11,5.13a5.13,5.13,0,1,1,5.13,5.13A5.13,5.13,0,0,1,11,5.13Z"/><path class="cls-2" d="M18.57,13.79a5.63,5.63,0,0,1,1.05-3,6.55,6.55,0,0,0-1.34-.14H13.93a6.55,6.55,0,0,0-1.34.14A5.57,5.57,0,0,1,13.65,14a5.56,5.56,0,0,1,4.92-.22Z"/><path class="cls-1" d="M19.44,14.21a5.83,5.83,0,0,1,2.72,4.35,4.8,4.8,0,0,0,2,.45,4.73,4.73,0,1,0-4.72-4.8Z"/><path class="cls-1" d="M16.34,23.88a4.72,4.72,0,1,0-4.72-4.72A4.72,4.72,0,0,0,16.34,23.88Z"/><path class="cls-2" d="M18.35,24.22h-4a6.05,6.05,0,0,0-6.05,6.05v4.92l0,.08.33.11a27.81,27.81,0,0,0,8.24,1.33,16.64,16.64,0,0,0,7.18-1.36l.32-.16h0V30.28A6.06,6.06,0,0,0,18.35,24.22Z"/><path class="cls-2" d="M26.17,19.3h-4a5.8,5.8,0,0,1-1.8,4.06,7.21,7.21,0,0,1,5.15,6.89v1.51a16.22,16.22,0,0,0,6.37-1.33l.32-.16h0V25.36A6.08,6.08,0,0,0,26.17,19.3Z"/><path class="cls-1" d="M27.23,9.46A5.83,5.83,0,0,1,30,13.8a4.62,4.62,0,0,0,2,.45,4.73,4.73,0,1,0-4.72-4.79Z"/><path class="cls-2" d="M33.93,14.6h-4a5.8,5.8,0,0,1-1.8,4.06,7.19,7.19,0,0,1,5.15,6.89v1.51a16.43,16.43,0,0,0,6.37-1.33l.32-.16h0V20.66A6.07,6.07,0,0,0,33.93,14.6Z"/><path class="cls-1" d="M8.05,19a4.7,4.7,0,0,0,2.52-.73,5.86,5.86,0,0,1,2.19-3.73,2.45,2.45,0,0,0,0-.27A4.73,4.73,0,1,0,8.05,19Z"/><path class="cls-2" d="M12.3,23.35a5.82,5.82,0,0,1-1.8-4l-.44,0h-4a6.05,6.05,0,0,0-6,6.05v5l.34.1a27.89,27.89,0,0,0,6.81,1.28V30.23A7.2,7.2,0,0,1,12.3,23.35Z"/></g></g></svg>