<svg xmlns="http://www.w3.org/2000/svg" viewBox="0 0 40 35.48"><defs><style>.cls-1{fill:#33556d;}.cls-2{fill:#a9b6bb;}</style></defs><title>template3-video</title><g id="Capa_2" data-name="Capa 2"><g id="Capa_1-2" data-name="Capa 1"><path class="cls-1" d="M31.8,0H1.59A1.59,1.59,0,0,0,0,1.59V26.48a1.59,1.59,0,0,0,1.59,1.59H24.1L22.36,26H18.2V23.52h2.21v0a5.06,5.06,0,0,1-1.12-2H3.78v-15H29.53v15H26.12c.52.56,1.07,1.13,1.53,1.58.32-.3.71-.63,1.13-1A9.83,9.83,0,0,1,33,20.07l.4-.05V1.59A1.59,1.59,0,0,0,31.8,0ZM11.07,23.43h4V26h-4ZM4,23.43H8V26H4ZM8,4.55H4V2H8Zm7.13,0h-4V2h4Zm7.12,0h-4V2h4Zm7.21,0h-4V2h4Z"/><path class="cls-2" d="M39.89,28.16a12.67,12.67,0,0,0-2.52-5.07,3.88,3.88,0,0,0-3.95-1.59,8.33,8.33,0,0,0-3.63,1.81,17.64,17.64,0,0,0-1.9,1.76C27.13,24.41,25,22.22,24,21c-.52-.62-1.87-1.94-2.88-1s.5,2.78.54,2.83L28,30.6l-.09.09c-.61.48-2.4-.4-3.12-.88a2.24,2.24,0,0,0-2.33,0,.85.85,0,0,0-.35.67,1.57,1.57,0,0,0,.72,1.15l0,0a17.63,17.63,0,0,0,5.19,3.06,11.3,11.3,0,0,0,4.73.74A9.37,9.37,0,0,0,38,33.4,5.06,5.06,0,0,0,39.89,28.16Z"/><path class="cls-2" d="M15.08,8.68a.83.83,0,0,0-1.35.65V18a.82.82,0,0,0,.82.84.86.86,0,0,0,.53-.19l5.17-4.33a.83.83,0,0,0,0-1.26Z"/></g></g></svg>