<svg xmlns="http://www.w3.org/2000/svg" viewBox="0 0 49 30.91"><defs><style>.cls-1{fill:#33556d;}.cls-2{fill:#a9b6bb;}</style></defs><title>template1D-IT</title><g id="Capa_2" data-name="Capa 2"><g id="Capa_1-2" data-name="Capa 1"><path class="cls-1" d="M18.6,29a.08.08,0,0,0-.07,0H.09A.13.13,0,0,0,0,29a.19.19,0,0,0,0,.08,2.28,2.28,0,0,0,2.44,1.8H16.19a2.3,2.3,0,0,0,2.44-1.8A.11.11,0,0,0,18.6,29Zm-7.8,1.11H7.93v-.57H10.8Z"/><path class="cls-1" d="M2,28.42H16.53a.39.39,0,0,0,.39-.38v-9a.4.4,0,0,0-.39-.39H2a.4.4,0,0,0-.39.39v9A.39.39,0,0,0,2,28.42ZM3,20H15.58v7.08H3Z"/><path class="cls-1" d="M34.07,10.36a.11.11,0,0,0-.08,0H15.56a.08.08,0,0,0-.07,0,.11.11,0,0,0,0,.08,2.28,2.28,0,0,0,2.44,1.8H31.65a2.27,2.27,0,0,0,2.44-1.8A.19.19,0,0,0,34.07,10.36Zm-7.81,1.12H23.39V10.9h2.87Z"/><path class="cls-1" d="M17.46,9.75H32a.38.38,0,0,0,.38-.38v-9A.38.38,0,0,0,32,0H17.46a.38.38,0,0,0-.38.38v9A.38.38,0,0,0,17.46,9.75Zm1-8.41H31V8.42H18.42Z"/><path class="cls-1" d="M49,29a.13.13,0,0,0-.07,0H30.47a.08.08,0,0,0-.07,0,.11.11,0,0,0,0,.08,2.29,2.29,0,0,0,2.44,1.8H46.56A2.28,2.28,0,0,0,49,29.11.19.19,0,0,0,49,29Zm-7.81,1.11H38.3v-.57h2.87Z"/><path class="cls-1" d="M32.37,28.42H46.91a.38.38,0,0,0,.38-.38v-9a.39.39,0,0,0-.38-.39H32.37a.39.39,0,0,0-.38.39v9A.38.38,0,0,0,32.37,28.42Zm1-8.42H46v7.08H33.33Z"/><rect class="cls-2" x="23.62" y="12.95" width="1.89" height="1.89" rx="0.94" ry="0.94"/><rect class="cls-2" x="23.62" y="15.79" width="1.89" height="1.89" rx="0.94" ry="0.94"/><rect class="cls-2" x="23.62" y="18.62" width="1.89" height="1.89" rx="0.94" ry="0.94"/><rect class="cls-2" x="23.62" y="21.46" width="1.89" height="1.89" rx="0.94" ry="0.94"/><rect class="cls-2" x="20.79" y="21.46" width="1.89" height="1.89" rx="0.94" ry="0.94"/><rect class="cls-2" x="26.46" y="21.46" width="1.89" height="1.89" rx="0.94" ry="0.94"/><rect class="cls-2" x="29.29" y="21.46" width="1.89" height="1.89" rx="0.94" ry="0.94"/><rect class="cls-2" x="17.95" y="21.46" width="1.89" height="1.89" rx="0.94" ry="0.94"/></g></g></svg>