<svg xmlns="http://www.w3.org/2000/svg" viewBox="0 0 49.28 30.06"><defs><style>.cls-1{fill:#33556d;}.cls-2{fill:#a9b6bb;}</style></defs><title>template1C-IT</title><g id="Capa_2" data-name="Capa 2"><g id="Capa_1-2" data-name="Capa 1"><path class="cls-1" d="M40.28,27.93H36a.28.28,0,0,1-.28-.28v-.18c-2,0-4.6,0-6.47,0v.19a.28.28,0,0,1-.27.28H25.85a.27.27,0,0,0-.28.27v1.21a.27.27,0,0,0,.28.28H40.28a.27.27,0,0,0,.28-.28v-1.2A.27.27,0,0,0,40.28,27.93Z"/><path class="cls-1" d="M47.37,0H17.19a1.9,1.9,0,0,0-1.91,1.91V5.17h1.47V1.93a.47.47,0,0,1,.46-.46H47.45a.47.47,0,0,1,.46.46V20.58H40.05v4.21h7.33a1.9,1.9,0,0,0,1.9-1.91v-21A1.9,1.9,0,0,0,47.37,0Z"/><path class="cls-1" d="M38.59,7.68a1.94,1.94,0,0,0-2-1.92L8.34,6A2,2,0,0,0,6.41,8l.07,7.77a7,7,0,0,1,1.86.42l0-1.77A.4.4,0,0,1,8.55,14a.39.39,0,0,1,.55.35l0,2.15a5.74,5.74,0,0,1,1.24,1l-.08-9.36a.47.47,0,0,1,.47-.47l23.5-.2a.48.48,0,0,1,.48.46l.14,16.87a.47.47,0,0,1-.46.46l-16.09.14a4.76,4.76,0,0,1-1.24,1.71L36.81,27a1.94,1.94,0,0,0,1.93-2Zm-2.3,9.72a1,1,0,0,1-1-1,1,1,0,1,1,2,0A1,1,0,0,1,36.29,17.4Z"/><path class="cls-2" d="M31.69,15A7.88,7.88,0,0,0,20.5,15a.43.43,0,0,0,0,.62l.62.62a.43.43,0,0,0,.61,0,6.17,6.17,0,0,1,8.73,0,.43.43,0,0,0,.61,0l.62-.62a.4.4,0,0,0,.13-.31A.35.35,0,0,0,31.69,15Z"/><path class="cls-2" d="M26.1,16.19A4.3,4.3,0,0,0,23,17.47a.44.44,0,0,0,0,.62l.62.61a.42.42,0,0,0,.62,0A2.6,2.6,0,0,1,26.1,18,2.82,2.82,0,0,1,28,18.7a.41.41,0,0,0,.61,0l.62-.61a.44.44,0,0,0,0-.62A4.29,4.29,0,0,0,26.1,16.19Z"/><circle class="cls-2" cx="26.1" cy="20.6" r="0.88"/><path class="cls-2" d="M.11,23A12.37,12.37,0,0,1,2.55,18a3.78,3.78,0,0,1,3.83-1.54A8.24,8.24,0,0,1,9.9,18.25,16.36,16.36,0,0,1,11.74,20a51.59,51.59,0,0,0,3.82-4c.51-.6,1.82-1.88,2.8-1s-.49,2.7-.53,2.75l-6.19,7.57a.24.24,0,0,0,.08.09c.59.47,2.33-.39,3-.85a2.16,2.16,0,0,1,2.26,0,.88.88,0,0,1,.34.65,1.53,1.53,0,0,1-.71,1.11l0,0a17.21,17.21,0,0,1-5,3A11.08,11.08,0,0,1,7,30a9.16,9.16,0,0,1-5-2A4.9,4.9,0,0,1,.11,23Z"/></g></g></svg>