<svg xmlns="http://www.w3.org/2000/svg" viewBox="0 0 88.29 88.29"><defs><style>.cls-1{fill:#7495ca;}.cls-2{fill:#a6cf24;}</style></defs><title>whybits2-trust</title><g id="Capa_2" data-name="Capa 2"><g id="Capa_1-2" data-name="Capa 1"><path class="cls-1" d="M23.61,40.55a2.88,2.88,0,0,0,.86,2.07l1,1a7.35,7.35,0,0,0,10.37,0l7.3-7.3a16,16,0,0,0,10.31,3.73h0A16.08,16.08,0,0,0,64.9,35.35a1.46,1.46,0,1,0-2.07-2.07,13.16,13.16,0,0,1-9.34,3.88h0a13.11,13.11,0,0,1-9.33-3.87,1.47,1.47,0,0,0-2.07,0l-8.3,8.29a4.47,4.47,0,0,1-6.21,0l-1-1L44.16,22.93c1.64-1.65,3.21-1.65,5.18-1.65s4.76,0,7.26-2.5l4.14-4.14a1.47,1.47,0,0,0-2.07-2.08l-4.14,4.15c-1.65,1.64-3.21,1.64-5.19,1.64s-4.75,0-7.25,2.5L24.47,38.47A2.9,2.9,0,0,0,23.61,40.55Z"/><path class="cls-2" d="M13.24,16.19a2.95,2.95,0,1,0-2.94-3A2.95,2.95,0,0,0,13.24,16.19Z"/><path class="cls-1" d="M27.51,20.83,31.67,25a1.47,1.47,0,0,0,1,.43,1.44,1.44,0,0,0,1-.43,1.46,1.46,0,0,0,0-2.08l-4.16-4.16a1.46,1.46,0,0,0-2.08,0A1.48,1.48,0,0,0,27.51,20.83Z"/><path class="cls-2" d="M75.05,10.3a2.95,2.95,0,1,0-2.94-2.94A2.94,2.94,0,0,0,75.05,10.3Z"/><path class="cls-1" d="M78.42,31.33c-2.39,2.4-3.21,6.29-4,10.06-.71,3.34-1.43,6.8-3.21,8.57L69.13,52a1.47,1.47,0,0,0,1,2.51,1.44,1.44,0,0,0,1-.43L73.29,52c2.39-2.39,3.21-6.28,4-10,.7-3.34,1.43-6.8,3.2-8.58a1.46,1.46,0,0,0,0-2.08A1.48,1.48,0,0,0,78.42,31.33Z"/><path class="cls-1" d="M87.86,31.33l-24-24,4.84-4.85a1.46,1.46,0,0,0,0-2.08,1.48,1.48,0,0,0-2.08,0L60.76,6.32a1.48,1.48,0,0,0,0,2.08l25,25a1.47,1.47,0,0,0,2.08-2.08Z"/><path class="cls-1" d="M54.56,43.69a1.46,1.46,0,0,0-2.08,0,1.48,1.48,0,0,0,0,2.08L68,61.33a3.07,3.07,0,0,1,.24,4,3,3,0,0,1-4.35.21L48.32,49.93A1.47,1.47,0,0,0,46.24,52L66,71.73a3.07,3.07,0,0,1,.24,4,3,3,0,0,1-4.35.21L43.12,57.22A1.47,1.47,0,0,0,41,59.3L57.69,75.94a3,3,0,0,1,0,4.17,3,3,0,0,1-4.17,0L51.44,78h0L37.92,64.5a1.47,1.47,0,1,0-2.08,2.08L49.32,80.06a3,3,0,0,1,.88,1.78,2.91,2.91,0,0,1-.84,2.43,3,3,0,0,1-4.16,0l-25-25c-3.81-3.81-4.64-8.62-5.37-12.87-.62-3.56-1.2-6.92-3.43-9.17a1.51,1.51,0,0,0-2-.16,1.48,1.48,0,0,0-.14,2.21c1.6,1.6,2.08,4.39,2.63,7.62.77,4.45,1.72,10,6.2,14.45l25,25a5.89,5.89,0,0,0,9.94-3,6,6,0,0,0,6.71-1.14,5.87,5.87,0,0,0,1.61-3,5.89,5.89,0,0,0,6.71-9.47l-.56-.56a5.8,5.8,0,0,0,2.64-1.52,5.88,5.88,0,0,0,0-8.32Z"/><path class="cls-1" d="M27.53,12.2,18.7,3.37a1.47,1.47,0,0,0-2.08,2.09l7.79,7.78-24,24a1.47,1.47,0,0,0,1,2.51,1.44,1.44,0,0,0,1-.43l25-25A1.48,1.48,0,0,0,27.53,12.2Z"/><path class="cls-1" d="M36.19,85.08a3,3,0,0,1-3.48-.78,2.91,2.91,0,0,1-.84-3.37,1.47,1.47,0,0,0-2.28-1.83,2.95,2.95,0,1,1-4.16-4.17,1.44,1.44,0,0,0,.43-1,1.47,1.47,0,0,0-2.51-1l-1,1a2.94,2.94,0,1,1-4.16-4.16l1-1a1.47,1.47,0,0,0-1.78-2.31A2.93,2.93,0,0,1,14,65.57c-1.29-1.29-1.28-2.72-.87-3.33a1.47,1.47,0,0,0-2.42-1.67C9.5,62.3,9.53,65.28,11.9,67.65a6.67,6.67,0,0,0,2.95,1.76,5.9,5.9,0,0,0-.51,2.4,5.89,5.89,0,0,0,7.31,5.71,5.88,5.88,0,0,0,7.09,5.25,6.56,6.56,0,0,0,1.89,3.61A6.19,6.19,0,0,0,35,88.29a5.47,5.47,0,0,0,2.53-.61,1.47,1.47,0,1,0-1.37-2.6Z"/></g></g></svg>