<?xml version="1.0" encoding="utf-8"?>
<!-- Generator: Adobe Illustrator 22.1.0, SVG Export Plug-In . SVG Version: 6.00 Build 0)  -->
<svg version="1.1" id="Capa_1" xmlns="http://www.w3.org/2000/svg" xmlns:xlink="http://www.w3.org/1999/xlink" x="0px" y="0px"
	 viewBox="0 0 77.2 88" style="enable-background:new 0 0 77.2 88;" xml:space="preserve">
<style type="text/css">
	.st0{fill:#7495CA;}
	.st1{fill:#A6CF24;}
	.st2{fill:#FFFFFF;}
</style>
<title>whybits1-ideas</title>
<g id="Capa_2_1_">
	<g id="Capa_1-2">
		<path class="st0" d="M77.2,0.2L69,6.4l-8.3,19.2H54l-2.6-5.6h1.7c3.1,0,5.7-2.5,5.7-5.7V8.6h3V0h-8.6v8.6h3v5.8
			c0,1.6-1.3,2.8-2.8,2.8c0,0,0,0,0,0h-3.2l-3.6-7.9l4.3-2.2L36.7,1.1l-3.3,11.7c-0.1-7-5.8-12.7-12.8-12.6S7.8,5.9,7.8,13
			c0,4.3,2.2,8.2,5.8,10.6v2.3h-3.5l-0.2,1c-0.7,3.6-0.8,7.3-0.2,10.9L0,54.9l10.6,2.4v17.9h14.3V88h33.9V68.3
			c9.8-7,15.5-18.3,15.5-30.3v-5.3c0-2-0.2-4-0.4-5.9l-0.2-1.3h-2.8l6.4-15.2V0.2z M55.8,6V3h3v3H55.8z M50.9,25.6h-5.3L43,19.9h5.3
			L50.9,25.6z M38.5,5.1l5.6,2.4l-1.3,0.6l4.2,9.1h-5.3l-3.4-7.6L37,10.3L38.5,5.1z M42.5,25.6h-6.3v-2.8c0-1.6,1.3-2.8,2.8-2.9h0.9
			L42.5,25.6z M36.8,13.4l1.7,3.8c-3,0.2-5.3,2.7-5.3,5.6v2.8h-5.6v-2.1c2.8-1.9,4.8-4.8,5.4-8.2L36.8,13.4z M10.5,12.8
			c0.2-5.6,4.8-9.9,10.4-9.7c5.3,0.2,9.6,4.4,9.7,9.7c0,3.5-1.9,6.8-5,8.6l-0.7,0.4v3.7h-2.7v-8.7c2.2-0.7,3.4-3,2.7-5.2
			c-0.4-1.3-1.5-2.4-2.8-2.8c-2.3-0.8-4.8,0.5-5.6,2.8c-0.1,0.4-0.2,0.8-0.2,1.2c0,1.8,1.2,3.5,3,4v8.7h-3v-3.7l-0.7-0.4
			C12.5,19.7,10.5,16.4,10.5,12.8z M20.8,15c-2.6,0-2.6-4,0-4S23.4,15,20.8,15z M71.3,28.5c0.2,1.4,0.3,2.8,0.3,4.3v4.9
			c0,11.5-5.7,22.2-15.1,28.7l-0.6,0.4V85H27.6V72.5h-14V55.2l-9.2-2.1l8.3-14.8l-0.1-0.5c-0.5-3.1-0.6-6.2-0.1-9.3H71.3z
			 M67.8,25.5h-4l7-16.5l3.2,1.6L67.8,25.5z M74.2,7.8L72.7,7l1.6-1.2V7.8z"/>
		<path class="st0" d="M23.4,37c-2.2,0.1-4.1-1.5-4.3-3.7c0-0.2,0-0.3,0-0.5h-2.8c-0.1,3.8,2.9,7,6.7,7.1c0.1,0,0.3,0,0.4,0
			c3.8,0.1,7-2.9,7.1-6.7c0-0.1,0-0.3,0-0.4h-2.8c0.1,2.2-1.5,4.1-3.7,4.2C23.7,37,23.6,37,23.4,37z"/>
		<path class="st1" d="M20.8,8.1c-2.8,0-5,2.2-5,5s2.2,5,5,5s5-2.2,5-5S23.6,8.1,20.8,8.1z M20.8,15c-2.6,0-2.6-4,0-4
			S23.4,15,20.8,15L20.8,15z"/>
		<path class="st1" d="M56.4,25.9l6.3-14.8l3.1,1.6l-5.5,13.3h3.1l5.7-13.5V2.2l-8.2,6.2l-7.6,17.6H56.4z M66.2,7.9v2l-1.6-0.8
			L66.2,7.9z"/>
		<path class="st2" d="M20.8,15c-1.1,0-2-0.9-2-2c0-0.4,0.1-0.7,0.3-1c-0.2,0.3-0.3,0.7-0.3,1.1C18.8,14.1,19.7,15,20.8,15
			c0.2,0,0.3,0,0.5-0.1C21.1,15,21,15,20.8,15z"/>
	</g>
</g>
</svg>
