<svg xmlns="http://www.w3.org/2000/svg" viewBox="0 0 34.05 40.2"><defs><style>.cls-1{fill:#33556d;}.cls-2{fill:#a9b6bb;}</style></defs><title>aboutus2-timeline</title><g id="Capa_2" data-name="Capa 2"><g id="Capa_1-2" data-name="Capa 1"><circle class="cls-1" cx="2.55" cy="3.84" r="2.55"/><path class="cls-1" d="M2.55,17.58A2.55,2.55,0,1,0,5.1,20.13,2.55,2.55,0,0,0,2.55,17.58Z"/><circle class="cls-1" cx="2.55" cy="36.42" r="2.55"/><path class="cls-2" d="M27.43,0H6.81V8.83H27.43V0ZM10.08,2.44h7.8a1,1,0,0,1,1,.51c.22.52-.3,1-1,1H10.09a1.05,1.05,0,0,1-1-.52C8.89,2.92,9.41,2.44,10.08,2.44ZM24.6,6.86H10a1,1,0,0,1-1-.51c-.22-.52.3-1,1-1H24.6a1,1,0,0,1,1,.52C25.79,6.38,25.27,6.86,24.6,6.86Z"/><path class="cls-1" d="M6.81,15.69v8.83H34.05V15.69Zm3.27,2.44h7.8a1,1,0,0,1,1,.51c.22.52-.3,1-1,1H10.09a1,1,0,0,1-1-.51C8.89,18.6,9.41,18.13,10.08,18.13ZM24.6,22.64H10a1,1,0,0,1-1-.51c-.22-.52.3-1,1-1H24.59a1.05,1.05,0,0,1,1,.52C25.79,22.16,25.27,22.64,24.6,22.64Z"/><path class="cls-2" d="M6.81,40.2H27.43V31.37H6.81Zm3.27-6.39h7.8a1,1,0,0,1,1,.52c.22.51-.3,1-1,1H10.09a1,1,0,0,1-1-.51C8.89,34.29,9.41,33.81,10.08,33.81Zm-.07,3H24.59a1,1,0,0,1,1,.51c.22.52-.3,1-1,1H10a1,1,0,0,1-1-.51C8.82,37.3,9.34,36.82,10,36.82Z"/><polygon class="cls-2" points="2.06 16.72 3 16.72 3 7.1 2.06 7.15 2.06 16.72"/><rect class="cls-2" x="2.06" y="23.58" width="0.94" height="9.77"/></g></g></svg>