<svg xmlns="http://www.w3.org/2000/svg" viewBox="0 0 49.93 29.82"><defs><style>.cls-1{fill:#33556d;}.cls-2{fill:#a9b6bb;}</style></defs><title>aboutus5-startprojectv2</title><g id="Capa_2" data-name="Capa 2"><g id="Capa_1-2" data-name="Capa 1"><path class="cls-1" d="M14.77,15.31l-2-2,1.69-4.08h0l-.65-.75a3,3,0,0,0,1,.18,3,3,0,0,0,1-.18l-.66.75h0l1.69,4.08-2,2a32.57,32.57,0,0,0,3.54-.21,1.36,1.36,0,0,1,0-.2,6.74,6.74,0,0,1,1.92-4.7,8.26,8.26,0,0,0-3.68-2.12A5.27,5.27,0,0,0,18.73,4a3.95,3.95,0,0,0-7.9,0A5.26,5.26,0,0,0,13,8.08c-3.09.79-5.38,3.48-5.38,5.47C7.63,14.72,11.2,15.31,14.77,15.31Z"/><polygon points="14.78 15.34 14.78 15.34 14.77 15.34 14.78 15.34"/><path class="cls-1" d="M35.29,15.31c3.58,0,7.15-.58,7.15-1.76,0-2-2.29-4.68-5.38-5.47A5.26,5.26,0,0,0,39.24,4a3.95,3.95,0,0,0-7.9,0,5.24,5.24,0,0,0,2.19,4.13,8.17,8.17,0,0,0-3.68,2.12,6.74,6.74,0,0,1,1.92,4.7,1.36,1.36,0,0,1,0,.2"/><polygon points="35.29 15.34 35.3 15.34 35.29 15.34 35.29 15.34"/><path class="cls-2" d="M45,15.19l3.48,3.31H30.77A8.89,8.89,0,0,1,30,19.77,12.13,12.13,0,0,1,32,21h18V18.5Z"/><path class="cls-2" d="M19.89,19.77a10,10,0,0,1-.74-1.27H1.45l3.49-3.31L0,18.5V21H18A11.77,11.77,0,0,1,19.89,19.77Z"/><path class="cls-1" d="M27.35,20.33a6.89,6.89,0,0,0,2.87-5.42,5.19,5.19,0,1,0-10.37,0,6.89,6.89,0,0,0,2.87,5.42c-4.06,1-7.07,4.56-7.07,7.17,0,3.09,18.77,3.09,18.77,0C34.42,24.89,31.41,21.36,27.35,20.33Z"/></g></g></svg>