<svg xmlns="http://www.w3.org/2000/svg" viewBox="0 0 50.05 50.58"><defs><style>.cls-1{fill:#a9b6bb;}.cls-2{fill:#33556d;}</style></defs><title>aboutus1-whyus</title><g id="Capa_2" data-name="Capa 2"><g id="Capa_1-2" data-name="Capa 1"><path class="cls-1" d="M39.87,10.12a1.23,1.23,0,0,0-.95-.82L30.81,7.94,27,.65a1.21,1.21,0,0,0-2.14,0l-3.8,7.29L13,9.3a1.23,1.23,0,0,0-1,.82,1.2,1.2,0,0,0,.29,1.22L15,14.08a7.55,7.55,0,0,1,5.51,2.45,1.28,1.28,0,0,0-.3-.59L15.64,11.3l6.42-1.08a1.21,1.21,0,0,0,.87-.63l3-5.78,3,5.78a1.21,1.21,0,0,0,.87.63l6.42,1.08L33.8,13.78a9,9,0,0,1,2.06-.23,9.19,9.19,0,0,1,1.43.12l2.29-2.33A1.2,1.2,0,0,0,39.87,10.12Z"/><path class="cls-2" d="M32.5,12.36a.22.22,0,0,0-.19-.16L28,11.56,26,7.62a.23.23,0,0,0-.21-.14.23.23,0,0,0-.22.14l-1.95,3.94-4.36.64a.22.22,0,0,0-.19.16.26.26,0,0,0,.06.25l3.15,3.07-.49,2.85A8,8,0,0,1,22.32,20l3.47-1.82,2.37,1.25a8.29,8.29,0,0,1,1.3-2.81l-.17-1,3.15-3.07A.24.24,0,0,0,32.5,12.36Z"/><path class="cls-1" d="M29.23,21.91a7.45,7.45,0,0,1,3.48,5.54,6,6,0,1,0-3.48-5.54Z"/><path class="cls-1" d="M25.29,34.24a6,6,0,1,0-6-6A6,6,0,0,0,25.29,34.24Z"/><path class="cls-2" d="M27.85,34.67H22.73A7.71,7.71,0,0,0,15,42.38v6.37l.43.14A35.09,35.09,0,0,0,26,50.58a21.63,21.63,0,0,0,9.16-1.72l.4-.2h0V42.4A7.73,7.73,0,0,0,27.85,34.67Z"/><path class="cls-2" d="M37.81,28.39H32.72a7.45,7.45,0,0,1-2.3,5.18A9.19,9.19,0,0,1,37,42.35v1.93a20.64,20.64,0,0,0,8.11-1.7l.41-.2h0V36.12A7.74,7.74,0,0,0,37.81,28.39Z"/><path class="cls-1" d="M14.72,28a5.91,5.91,0,0,0,3.2-.93,7.43,7.43,0,0,1,2.81-4.75c0-.12,0-.23,0-.34a6,6,0,1,0-6,6Z"/><path class="cls-2" d="M20.13,33.56a7.45,7.45,0,0,1-2.29-5.14c-.18,0-.37,0-.56,0H12.17a7.72,7.72,0,0,0-7.71,7.72v6.34l.43.14a36.6,36.6,0,0,0,8.69,1.63V42.33A9.17,9.17,0,0,1,20.13,33.56Z"/><path class="cls-1" d="M50.05,26.91A25,25,0,0,0,29.48,2.11a1.85,1.85,0,0,1,.19.27,18.73,18.73,0,0,1,1.79,3.44,20.76,20.76,0,0,1,5.09,2.25,3.84,3.84,0,0,1,1.1-.17,3.64,3.64,0,0,1,3.67,4.17,21.61,21.61,0,0,1,4.92,20,16.67,16.67,0,0,1,.66,6.63A24.76,24.76,0,0,0,50.05,26.91Z"/><path class="cls-1" d="M22.25,1.88A24.88,24.88,0,0,0,2.9,38.28a16.72,16.72,0,0,1,.73-7,21.08,21.08,0,0,1-.53-4.85,21.85,21.85,0,0,1,7.13-15.93A3.48,3.48,0,0,1,13.74,7.9h0A22,22,0,0,1,21,5.19,11.3,11.3,0,0,1,22.25,1.88Z"/></g></g></svg>