<svg xmlns="http://www.w3.org/2000/svg" viewBox="0 0 50 31.67"><defs><style>.cls-1{fill:#a9b6bb;}.cls-2{fill:#33556d;}</style></defs><title>aboutus5-startproject</title><g id="Capa_2" data-name="Capa 2"><g id="Capa_1-2" data-name="Capa 1"><path class="cls-1" d="M36.93,7.26a1.05,1.05,0,0,0-.22-.3,1,1,0,0,0-.31-.18L30.65,4.71a3.87,3.87,0,0,0-1.28-.22,3.63,3.63,0,0,0-1.27.25L23.74,6.4a8.34,8.34,0,0,0-.92.41L22.53,7a8.9,8.9,0,0,0-1-.47A7.79,7.79,0,0,0,18,6l-2.94.25a.89.89,0,0,0-.37.12,1,1,0,0,0-.3.28L7.82,16.09a1,1,0,0,0-.19.7,1,1,0,0,0,.3.65l2.87,2.85a2.55,2.55,0,0,0-.28,1A2.34,2.34,0,0,0,11.1,23a2.31,2.31,0,0,0,1.6.79h.11a2.35,2.35,0,0,0,.61,2.4,2.28,2.28,0,0,0,1.46.63A2.33,2.33,0,0,0,17,30a2.27,2.27,0,0,0,1.65-.69,2.35,2.35,0,0,0,2.16,2H21a2.38,2.38,0,0,0,.81-.15,2.39,2.39,0,0,0,3.09-.35l-1.58-1.58s0-.07,0-.11a2.4,2.4,0,0,0-.12-.89l3.24,3.23a3,3,0,0,0,1.31.23,3.25,3.25,0,0,0,2.34-1.15l.32-.38a.44.44,0,0,0,.08-.11l-5-5a.34.34,0,0,1,0-.47.3.3,0,0,1,.44,0l5.93,5.91a2.66,2.66,0,0,0,1,.16,2.87,2.87,0,0,0,2.06-1l.78-.9a1.17,1.17,0,0,0,.28-.8l-5.2-5.19a.35.35,0,0,1,0-.47.3.3,0,0,1,.44,0l5.23,5.21a2.12,2.12,0,0,0,.67.08,2.34,2.34,0,0,0,1.68-.83l.21-.24a2.7,2.7,0,0,0,.64-1.87,2.64,2.64,0,0,0-.77-1.81L37.49,21.4l.35.35,3.77-3.4a1,1,0,0,0,.32-.59,1.05,1.05,0,0,0-.09-.66ZM12.77,22.73a1.29,1.29,0,0,1-.91-.45,1.31,1.31,0,0,1-.33-1,1.33,1.33,0,0,1,1.33-1.24h.08a1.32,1.32,0,0,1,1.24,1.41A1.33,1.33,0,0,1,12.77,22.73Zm2.26,3a1.3,1.3,0,0,1-.91-.37,1.33,1.33,0,0,1-.07-1.86s.55-.57.8-.83l.13-.14a1.33,1.33,0,0,1,2.29.87,1.28,1.28,0,0,1-.37.95l-.37.39a3.08,3.08,0,0,1-.25.27l0,0-.16.18-.08.08h0A1.32,1.32,0,0,1,15,25.77ZM18,28.57A1.28,1.28,0,0,1,17,29a1.33,1.33,0,0,1-1-2.22s.31-.34.66-.7h0l.26-.27c.44-.48.59-.63.64-.68l0,0h0l.07-.08a1.35,1.35,0,0,1,1.26-.38,1.09,1.09,0,0,1,.34.13A1.32,1.32,0,0,1,20,25.89a1.34,1.34,0,0,1-.36.95S18,28.52,18,28.57Zm4.37.47a1.33,1.33,0,0,1-1.42,1.23A1.33,1.33,0,0,1,21,27.62h.09A1.34,1.34,0,0,1,22.33,29ZM37.09,21,26.84,10.73l.11-.3a.58.58,0,0,0,0-.48.5.5,0,0,0-.39-.25l-.76,0-.84-.05-.06,1a11.34,11.34,0,0,1-1.31,4.29,6.09,6.09,0,0,1-3,2.84,4.51,4.51,0,0,1-.78.1.86.86,0,0,1-.38-.07l-.39-.18a.67.67,0,0,1-.35-.39.7.7,0,0,1,0-.53L22.6,8.1l.66-.43.27-.1h0l4.9-1.87a2.82,2.82,0,0,1,.95-.19h0a2.79,2.79,0,0,1,.94.17l5.7,2.05,4.87,9.76Z"/><path class="cls-2" d="M42.74,1,38.85,2.91a2.44,2.44,0,0,0-1.22,1.41,2.42,2.42,0,0,0,.13,1.87l5.08,10.19a2.46,2.46,0,0,0,1.41,1.23,2.51,2.51,0,0,0,1.87-.13L50,15.54Zm3.37,14.56a.94.94,0,1,1,.93-.93A.93.93,0,0,1,46.11,15.54Z"/><path class="cls-2" d="M13.91,4.07a2.47,2.47,0,0,0-1-1.58L9.35,0,0,13.32l3.55,2.49A2.44,2.44,0,0,0,7,15.22L13.5,5.89A2.44,2.44,0,0,0,13.91,4.07Zm-9,9a.92.92,0,0,1-1.06.78.94.94,0,1,1,1.06-.78Z"/></g></g></svg>