<?xml version="1.0" encoding="utf-8"?>
<!-- Generator: Adobe Illustrator 23.0.1, SVG Export Plug-In . SVG Version: 6.00 Build 0)  -->
<svg version="1.1" id="Capa_1" xmlns="http://www.w3.org/2000/svg" xmlns:xlink="http://www.w3.org/1999/xlink" x="0px" y="0px" width="40"
	 viewBox="0 0 200.05 328.07" style="enable-background:new 0 0 200.05 328.07;" xml:space="preserve">
<style type="text/css">
	.st0{fill:#FFFFFF;stroke:#9A999E;stroke-width:2;stroke-miterlimit:10;}
	.st1{fill:url(#SVGID_1_);}
	.st2{fill:url(#SVGID_2_);}
	.st3{fill:url(#SVGID_3_);}
	.st4{fill:url(#SVGID_4_);}
	.st5{fill:#125174;}
	.st6{opacity:0.5;stroke:#000000;stroke-width:0.05;stroke-miterlimit:10;}
</style>
<g>
	<path class="st0" d="M0.03,100.03c0-55.23,44.77-100,100-100s100,44.77,100,100"/>
	<path class="st0" d="M0.03,100.03l1.08,12.57c0.27,3.15,0.82,6.26,1.65,9.31l3.1,11.44c0.28,1.05,0.66,2.07,1.11,3.06L93.79,323.9
		c2.32,5.54,10.16,5.54,12.48,0l84.23-181.31c0.99-2.13,1.84-4.33,2.53-6.58l2.49-8.05c1.73-5.61,2.9-11.38,3.47-17.22l1.05-10.71"
		/>
</g>
<linearGradient id="SVGID_1_" gradientUnits="userSpaceOnUse" x1="36.4085" y1="355.0063" x2="109.4691" y2="355.0063" gradientTransform="matrix(1 0 0 -1 0 464.9626)">
	<stop  offset="0" style="stop-color:#89AB47"/>
	<stop  offset="0.02" style="stop-color:#85A843"/>
	<stop  offset="0.04" style="stop-color:#789F43"/>
	<stop  offset="0.07" style="stop-color:#648E3D"/>
	<stop  offset="0.09" style="stop-color:#477737"/>
	<stop  offset="0.11" style="stop-color:#215A2F"/>
	<stop  offset="0.12" style="stop-color:#1C562D"/>
	<stop  offset="0.82" style="stop-color:#A9BC4B"/>
</linearGradient>
<path class="st1" d="M59.51,131.99c8.2-6.33,16.76-12.2,25.62-17.57c7.07-3.46,29.6-11.47,23.21-26.44
	c-6.39-14.96-75.59,12.52-71.78,34.81C40.37,145.1,58.14,133.07,59.51,131.99z"/>
<linearGradient id="SVGID_2_" gradientUnits="userSpaceOnUse" x1="35.7127" y1="406.0447" x2="134.7932" y2="406.0447" gradientTransform="matrix(1 0 0 -1 0 464.9626)">
	<stop  offset="0" style="stop-color:#4A6EA3"/>
	<stop  offset="0.29" style="stop-color:#4A6EA3"/>
	<stop  offset="0.82" style="stop-color:#295494"/>
</linearGradient>
<path class="st2" d="M101.37,13.7c17.37,15.68,36.93,35.86,32.89,50.46c0,0-4.69,29.83-81.49,39.57
	c-40.16,5.05,2.67-38.27,6.85-37.16c0,0,5.28,8.64,20.63,1.14C118.74,48.93,107.59,23.77,101.37,13.7"/>
<linearGradient id="SVGID_3_" gradientUnits="userSpaceOnUse" x1="36.5605" y1="346.5304" x2="165.4818" y2="346.5304" gradientTransform="matrix(1 0 0 -1 0 464.9626)">
	<stop  offset="0" style="stop-color:#89AB47"/>
	<stop  offset="0.19" style="stop-color:#8FAE47"/>
	<stop  offset="0.4" style="stop-color:#9AB448"/>
	<stop  offset="0.56" style="stop-color:#A9BC4B"/>
	<stop  offset="1" style="stop-color:#1C562D"/>
</linearGradient>
<path class="st3" d="M153.13,76.84c0,0-7.5,41.59-61.25,52.16c-38.34,7.6-55.32-6.19-55.32-6.19s4.37,37.13,34.42,37.23
	c40.32,0,81.49-22.46,91.89-46.97C172.3,90.76,153.13,76.84,153.13,76.84z"/>
<linearGradient id="SVGID_4_" gradientUnits="userSpaceOnUse" x1="70.3319" y1="308.8835" x2="159.1613" y2="308.8835" gradientTransform="matrix(1 0 0 -1 0 464.9626)">
	<stop  offset="0" style="stop-color:#4A6EA3"/>
	<stop  offset="0.29" style="stop-color:#4A6EA3"/>
	<stop  offset="0.82" style="stop-color:#0B3A6B"/>
</linearGradient>
<path class="st4" d="M70.33,171.18c0,0,55.61,11.25,88.83-36.22C159.16,134.96,137.29,196.24,70.33,171.18z"/>
<path class="st5" d="M100.65,53.92c0,0,17.47-11.74,13.04-26.08c-1.88-5.95-6.48-10.65-12.39-12.65
	C101.3,15.19,117.01,28.95,100.65,53.92z"/>
<path class="st6" d="M105.79,327.06l88.36-71.07c0.4-0.34,0.77-0.73,1.05-1.17c1.9-2.96,2.61-6,3.93-9.32
	c4.26-10.74-13.82-39.73-41.99-25.03c-4.55,2.37-6.03,9.87-9.71,16.94L105.79,327.06z"/>
</svg>
