<?xml version="1.0" encoding="UTF-8"?>
<!-- Created with Inkscape (http://www.inkscape.org/) -->
<svg width="9.094mm" height="10.519mm" version="1.1" viewBox="0 0 9.094 10.519" xmlns="http://www.w3.org/2000/svg" xmlns:cc="http://creativecommons.org/ns#" xmlns:dc="http://purl.org/dc/elements/1.1/" xmlns:rdf="http://www.w3.org/1999/02/22-rdf-syntax-ns#">
 <metadata>
  <rdf:RDF>
   <cc:Work rdf:about="">
    <dc:format>image/svg+xml</dc:format>
    <dc:type rdf:resource="http://purl.org/dc/dcmitype/StillImage"/>
    <dc:title/>
   </cc:Work>
  </rdf:RDF>
 </metadata>
 <g transform="translate(-85.411 -95.193)">
  <path d="m89.966 96.829a2.5513 2.5513 0 0 0-2.551 2.5511 2.5513 2.5513 0 0 0 2.551 2.5514 2.5513 2.5513 0 0 0 2.551-2.5514 2.5513 2.5513 0 0 0-2.551-2.5511zm0.04 0.5633 0.562 1.1946 1.303 0.214-0.963 0.9039 0.199 1.3054-1.157-0.6363-1.179 0.5929 0.247-1.2972-0.928-0.939 1.31-0.1654z" fill="#afc0c5"/>
  <path d="m89.957 95.194c-0.529 0-0.516 0.4373-0.955 0.6128-0.47 0.07-0.675-0.3191-1.137-0.053-0.455 0.2653-0.228 0.6363-0.519 1.0078-0.373 0.2979-0.747 0.062-1.013 0.5233-0.263 0.4617 0.129 0.6668 0.06 1.139-0.176 0.4371-0.613 0.4234-0.613 0.9531 0 0.5334 0.441 0.5151 0.615 0.9604 0.07 0.4673-0.32 0.6723-0.06 1.1314 0.147 0.2548 0.327 0.2987 0.521 0.3357l-1.445 2.5043 1.598 0.038 0.416 0.682 0.416 0.6827 1.485-2.5726c0.166 0.1336 0.28 0.2569 0.636 0.2569 0.351 0 0.467-0.1214 0.63-0.2532l1.483 2.5694 0.416-0.6826 0.416-0.6821 0.799-0.018 0.799-0.019-1.446-2.5072c0.194-0.037 0.376-0.08 0.523-0.3349 0.262-0.4601-0.125-0.666-0.06-1.1348 0.176-0.4408 0.614-0.4255 0.614-0.9565 0-0.5326-0.441-0.5159-0.615-0.9596-0.07-0.4681 0.319-0.6731 0.06-1.1327-0.267-0.4617-0.641-0.226-1.015-0.5241-0.289-0.3713-0.06-0.7419-0.518-1.0068-0.462-0.2675-0.667 0.1265-1.142 0.052-0.437-0.1762-0.424-0.6125-0.953-0.6125zm0 1.2052c1.646 0 2.981 1.3348 2.981 2.981 0 1.6465-1.335 2.9811-2.981 2.9813-1.646 0-2.981-1.3348-2.981-2.9813 0-1.6462 1.335-2.9808 2.981-2.981z" fill="#10546e"/>
 </g>
</svg>
