<svg xmlns="http://www.w3.org/2000/svg" viewBox="0 0 36 40.62"><defs><style>.cls-1{fill:#a9b6bb;}.cls-2{fill:#33556d;}</style></defs><title>privacy1</title><g id="Capa_2" data-name="Capa 2"><g id="Capa_1-2" data-name="Capa 1"><path class="cls-1" d="M25.37,16.35H9a.65.65,0,1,0,0,1.3H25.37a.65.65,0,1,0,0-1.3Z"/><path class="cls-1" d="M9,12.42h6.54a.65.65,0,1,0,0-1.3H9a.65.65,0,1,0,0,1.3Z"/><path class="cls-1" d="M16.8,21.58H9a.65.65,0,1,0,0,1.3H15.8A12.48,12.48,0,0,1,16.8,21.58Z"/><path class="cls-1" d="M14.12,26.81H9a.66.66,0,0,0-.66.65.67.67,0,0,0,.66.66h4.85C13.94,27.68,14,27.24,14.12,26.81Z"/><path class="cls-1" d="M13.9,32H9a.66.66,0,0,0-.66.65.67.67,0,0,0,.66.66h5.13C14.05,32.92,14,32.48,13.9,32Z"/><path class="cls-2" d="M17.63,39.23a10.15,10.15,0,0,1-1.23-1.31H4.58V4.58H20.92v9.15h9.16v5.16a11.2,11.2,0,0,1,1.3.64V12.81L28.12,9.54V0H0V36H3.27v3.27ZM29.15,12.42H22.23V5.5l5.89,5.89ZM1.31,34.65V1.31h25.5V8.23l-5-5H3.27V34.65Z"/><path class="cls-1" d="M28,24.35a3.71,3.71,0,0,0-3.73,3.7,4.54,4.54,0,0,0,.22,1.3l-4.6,4.57v2.17h2.2v-1.3h1.31V33.48h1.31l2-1.95a4.14,4.14,0,0,0,1.76.19A3.7,3.7,0,0,0,28,24.35Zm1.08,3.86a1.31,1.31,0,1,1,1.32-1.31A1.29,1.29,0,0,1,29.06,28.21Z"/><g id="search"><path class="cls-2" d="M23.39,19.62A10.45,10.45,0,0,0,15,28a10.58,10.58,0,0,0,10.4,12.61A10.18,10.18,0,0,0,32.25,38l0,0a2.35,2.35,0,0,1,1.14-1.21A10.18,10.18,0,0,0,36,30,10.59,10.59,0,0,0,23.39,19.62ZM25.46,39.3a9.33,9.33,0,0,1-9.17-9.17C16.07,25.18,20.66,21,25.46,21a9.33,9.33,0,0,1,9.17,9.17C34.85,35.09,30.25,39.3,25.46,39.3Z"/></g></g></g></svg>