<svg id="Capa_1" data-name="Capa 1" xmlns="http://www.w3.org/2000/svg" viewBox="0 0 71.84 65"><defs><style>.cls-1{fill:#7495ca;}.cls-2{fill:#a6cf24;}</style></defs><title>ProyectosExitosos</title><path class="cls-1" d="M60.08,10.66a4.59,4.59,0,0,0-3.32-1.37H52V5.8a5.51,5.51,0,0,0-1.74-4.09A5.74,5.74,0,0,0,46.12,0H43.75a5.71,5.71,0,0,0-4.17,1.71A5.51,5.51,0,0,0,37.84,5.8V9.29H23.65V5.8a5.51,5.51,0,0,0-1.74-4.09A5.74,5.74,0,0,0,17.74,0H15.37A5.72,5.72,0,0,0,11.2,1.71,5.51,5.51,0,0,0,9.46,5.8V9.29H4.73A4.63,4.63,0,0,0,1.4,10.66,4.45,4.45,0,0,0,0,13.93V60.36a4.44,4.44,0,0,0,1.4,3.26A4.6,4.6,0,0,0,4.73,65h52a4.56,4.56,0,0,0,3.32-1.38,4.42,4.42,0,0,0,1.41-3.26V13.93A4.42,4.42,0,0,0,60.08,10.66ZM15.37,60.36H4.73V49.91H15.37Zm0-12.77H4.73V36H15.37Zm0-13.93H4.73V23.21H15.37Zm-.83-16.59a1.14,1.14,0,0,1-.35-.82V5.8A1.11,1.11,0,0,1,14.54,5a1.14,1.14,0,0,1,.83-.35h2.37a1.16,1.16,0,0,1,.83.35,1.11,1.11,0,0,1,.35.81V16.25a1.14,1.14,0,0,1-.35.82,1.15,1.15,0,0,1-.83.34H15.37A1.13,1.13,0,0,1,14.54,17.07Zm15,43.29H17.74V49.91H29.56V60.36Zm0-12.77H17.74V36H29.56V47.59Zm0-13.93H17.74V23.21H29.56V33.66Zm14.19,26.7H31.93V49.91H43.75Zm0-12.77H31.93V36H43.75Zm0-13.93H31.93V23.21H43.75Zm-.83-16.59a1.14,1.14,0,0,1-.35-.82V5.8A1.11,1.11,0,0,1,42.92,5a1.14,1.14,0,0,1,.83-.35h2.37A1.16,1.16,0,0,1,47,5a1.11,1.11,0,0,1,.35.81V16.25a1.14,1.14,0,0,1-.35.82,1.15,1.15,0,0,1-.83.34H43.75A1.13,1.13,0,0,1,42.92,17.07ZM56.76,60.36H46.11V49.91H56.76Zm0-12.77H46.11V36H56.76Zm0-13.93H46.11V23.21H56.76Z"/><path class="cls-2" d="M38.23,52.85a1.45,1.45,0,0,1-.39-.92,1.4,1.4,0,0,1,.39-.91l1.83-1.84a1.27,1.27,0,0,1,1.83,0l.13.14L49.22,57a.63.63,0,0,0,.91,0L67.65,38.85h.13a1.28,1.28,0,0,1,1.84,0l1.83,1.83a1.28,1.28,0,0,1,0,1.84h0L50.52,64.22a1.19,1.19,0,0,1-.91.4,1.21,1.21,0,0,1-.92-.4l-10.2-11-.26-.39Z"/></svg>