<svg xmlns="http://www.w3.org/2000/svg" viewBox="0 0 40.31 33"><defs><style>.cls-1{fill:#33556d;}.cls-2{fill:#a9b6bb;}</style></defs><title>template1B-logistic</title><g id="Capa_2" data-name="Capa 2"><g id="Capa_1-2" data-name="Capa 1"><path class="cls-1" d="M7.84,16.72a9.08,9.08,0,0,1-2.57-.38v5.73a.51.51,0,0,0,.52.51H23.33a.51.51,0,0,0,.51-.51V6.62a1.55,1.55,0,0,0-1.55-1.56h-6a8.57,8.57,0,0,1,.45,2.78A8.89,8.89,0,0,1,7.84,16.72Z"/><path class="cls-1" d="M10.21,9.17a.79.79,0,0,0,.2-1.56l-2-.53V3.73a.79.79,0,1,0-1.58,0V7.68a.8.8,0,0,0,.58.77L10,9.14Z"/><path class="cls-1" d="M39.8,24.17H38.54V17.11a4.2,4.2,0,0,0-.71-2.32l-3.16-4.68a4.16,4.16,0,0,0-3.44-1.82h-4.9a1,1,0,0,0-1,1V24.1H17.51a4.47,4.47,0,0,1,.63.6,5.05,5.05,0,0,1,1.2,2h7.28a4.74,4.74,0,0,1,3.7-3.46,5.14,5.14,0,0,1,1.21-.15,4.61,4.61,0,0,1,2.79.87,4.9,4.9,0,0,1,1.93,2.74H39.8a.51.51,0,0,0,.51-.51V24.67A.5.5,0,0,0,39.8,24.17Zm-5.17-8.5H28.18a.51.51,0,0,1-.51-.52V11.57a.51.51,0,0,1,.51-.51h3.93a.55.55,0,0,1,.43.21l2.52,3.58A.53.53,0,0,1,34.63,15.67Z"/><path class="cls-1" d="M15.68,7.84a7.84,7.84,0,1,0-7.84,7.83A7.84,7.84,0,0,0,15.68,7.84Zm-13.9,0a6.06,6.06,0,1,1,6.06,6.05A6.06,6.06,0,0,1,1.78,7.84Z"/><path class="cls-1" d="M11.74,24.1H4.54a.52.52,0,0,0-.52.52v1.6a.51.51,0,0,0,.51.51H9.8A4.91,4.91,0,0,1,11.74,24.1Z"/><path class="cls-2" d="M7.84,16.72a9.08,9.08,0,0,1-2.57-.38v5.73a.51.51,0,0,0,.52.51H23.33a.51.51,0,0,0,.51-.51V6.62a1.55,1.55,0,0,0-1.55-1.56h-6a8.57,8.57,0,0,1,.45,2.78A8.89,8.89,0,0,1,7.84,16.72Z"/><path class="cls-2" d="M14.64,25.19a3.91,3.91,0,1,0,3.9,3.91A3.91,3.91,0,0,0,14.64,25.19Zm0,5.86a1.95,1.95,0,1,1,1.95-1.95A2,2,0,0,1,14.64,31.05Z"/><path class="cls-2" d="M31.54,25.19a3.91,3.91,0,1,0,3.9,3.91A3.91,3.91,0,0,0,31.54,25.19Zm0,5.86a1.95,1.95,0,1,1,2-1.95A2,2,0,0,1,31.54,31.05Z"/></g></g></svg>