<svg xmlns="http://www.w3.org/2000/svg" viewBox="0 0 73.33 88.3"><defs><style>.cls-1{fill:#7495ca;}.cls-2{fill:#a6cf24;}</style></defs><title>whybits3-quality</title><g id="Capa_2" data-name="Capa 2"><g id="Capa_1-2" data-name="Capa 1"><path class="cls-1" d="M73.22,78.6,61.53,50.38a1.41,1.41,0,1,0-2.6,1.08L69.49,77l-9.63-2.8a1.42,1.42,0,0,0-1.63.68l-4.84,8.79L42.05,56.26A28.42,28.42,0,1,0,13.89,45.32L.11,78.6A1.4,1.4,0,0,0,1.8,80.49l11.37-3.3,5.71,10.38a1.43,1.43,0,0,0,1.24.73h.08a1.4,1.4,0,0,0,1.22-.86L32.34,61.06A1.41,1.41,0,1,0,29.74,60l-9.8,23.66L15.1,74.85a1.42,1.42,0,0,0-1.63-.68L3.83,77l12.1-29.21a28.29,28.29,0,0,0,20.73,9c.85,0,1.68,0,2.51-.11L51.91,87.43a1.39,1.39,0,0,0,1.22.86h.08a1.41,1.41,0,0,0,1.23-.73l5.71-10.38,11.38,3.3a1.4,1.4,0,0,0,1.69-1.89ZM11.09,28.39A25.58,25.58,0,1,1,36.66,54,25.6,25.6,0,0,1,11.09,28.39Z"/><path class="cls-1" d="M52.94,23.1a1.39,1.39,0,0,0-1.1-1l-9.48-1.6L37.91,12a1.4,1.4,0,0,0-1.25-.76,1.42,1.42,0,0,0-1.25.76L31,20.55l-9.48,1.6a1.4,1.4,0,0,0-.77,2.37l6.73,6.86L26,40.89a1.4,1.4,0,0,0,2,1.47l8.6-4.29,8.61,4.29a1.39,1.39,0,0,0,.63.15,1.4,1.4,0,0,0,1.39-1.62l-1.42-9.51,6.74-6.86A1.38,1.38,0,0,0,52.94,23.1Zm-9.57,6.81A1.42,1.42,0,0,0,43,31.1l1.13,7.53-6.82-3.39a1.39,1.39,0,0,0-.63-.15,1.35,1.35,0,0,0-.62.15l-6.82,3.39,1.12-7.53A1.38,1.38,0,0,0,30,29.91l-5.34-5.43,7.51-1.26a1.44,1.44,0,0,0,1-.74l3.51-6.75,3.52,6.75a1.44,1.44,0,0,0,1,.74l7.5,1.26-5.33,5.43Z"/><path class="cls-1" d="M58,29.81A1.41,1.41,0,0,0,56.43,31a19.94,19.94,0,1,1,0-5.26,1.41,1.41,0,0,0,2.79-.37,22.75,22.75,0,1,0,0,6A1.41,1.41,0,0,0,58,29.81Z"/><path class="cls-2" d="M44.33,25.72a.27.27,0,0,0-.23-.19L39,24.79l-2.27-4.62a.3.3,0,0,0-.26-.15.29.29,0,0,0-.25.15L34,24.79l-5.09.74a.3.3,0,0,0-.23.19.29.29,0,0,0,.08.29l3.68,3.59-.87,5.07a.3.3,0,0,0,.11.28.29.29,0,0,0,.3,0l4.55-2.4L41,35a.28.28,0,0,0,.13,0,.3.3,0,0,0,.16,0,.31.31,0,0,0,.12-.28l-.87-5.07L44.26,26A.27.27,0,0,0,44.33,25.72Z"/><path class="cls-2" d="M65.93,71.51l-8.07-2.34a1.42,1.42,0,0,0-1.63.68l-4.17,7.57a31.79,31.79,0,0,1,1.46,3.19l4.63-8.42,9.18,2.66c-.37-.77-.69-1.56-1-2.36C66.2,72.17,66.06,71.84,65.93,71.51Z"/><path class="cls-2" d="M7.46,71.51l8.07-2.34a1.42,1.42,0,0,1,1.63.68l4.17,7.57a29.7,29.7,0,0,0-1.46,3.19l-4.64-8.42L6.06,74.85c.37-.77.69-1.56,1-2.36C7.19,72.17,7.33,71.84,7.46,71.51Z"/></g></g></svg>