<svg xmlns="http://www.w3.org/2000/svg" viewBox="0 0 81.39 87.12"><defs><style>.cls-1{fill:#7495ca;}.cls-2{fill:#a6cf24;}</style></defs><title>whybits4-service</title><g id="Capa_2" data-name="Capa 2"><g id="Capa_1-2" data-name="Capa 1"><path class="cls-1" d="M16.75,57h11c1.6,0,4.32,2,6.71,3.83,3,2.26,5.85,4.39,8.36,4.39h8.29a4.82,4.82,0,0,1,3.14,1,1.37,1.37,0,0,0,1.94-1.93,7.3,7.3,0,0,0-5.08-1.77H42.85c-1.6,0-4.32-2-6.71-3.84-3-2.25-5.85-4.38-8.36-4.38h-11a1.4,1.4,0,0,0-1.42,1.28A1.37,1.37,0,0,0,16.75,57Z"/><path class="cls-2" d="M6.82,78.22a2.07,2.07,0,1,0-2.06,2.06A2.07,2.07,0,0,0,6.82,78.22Z"/><path class="cls-1" d="M80.65,62.4a5.48,5.48,0,0,0-3.34-2.56,5.39,5.39,0,0,0-4.09.5L57.39,68.05c-2.46,1.23-4.94,1.23-10.39,1.23a103.83,103.83,0,0,1-13.52-1.36A1.37,1.37,0,1,0,33,70.63,105.33,105.33,0,0,0,47,72c5.71,0,8.58,0,11.61-1.51l15.9-7.75a2.76,2.76,0,0,1,4,3.1,2.77,2.77,0,0,1-1.32,1.69L58.63,79.13s-4,2.53-13,2.53c-7.8,0-19.84-6.64-20-6.74s-3.1-1.52-8.86-1.52a1.38,1.38,0,1,0,0,2.75,19.36,19.36,0,0,1,7.58,1.21c.52.29,12.79,7,21.3,7,9.93,0,14.33-2.86,14.48-3L78.63,69.92a5.52,5.52,0,0,0,2-7.52Z"/><path class="cls-1" d="M12.27,48.61H.91a.51.51,0,0,0-.36.15,1.44,1.44,0,0,0,.82,2.59h9.11a.48.48,0,0,1,.48.47V83.91a.48.48,0,0,1-.48.47H.91a.55.55,0,0,0-.36.15,1.44,1.44,0,0,0,.82,2.59h10.9a1.43,1.43,0,0,0,1.43-1.43V50A1.43,1.43,0,0,0,12.27,48.61Z"/><path class="cls-1" d="M58.41,36.92a5.25,5.25,0,1,0-5.25,5.24A5.26,5.26,0,0,0,58.41,36.92Zm-8.77,0a3.52,3.52,0,1,1,3.52,3.52A3.53,3.53,0,0,1,49.64,36.92Z"/><path class="cls-1" d="M45.6,59.86l-3-1.25a3.19,3.19,0,0,1-1.73-4.15l.78-1.88a19.55,19.55,0,0,1-4-4l-1.88.78a3.2,3.2,0,0,1-2.43,0,3.15,3.15,0,0,1-1.72-1.72l-1.26-3a3.17,3.17,0,0,1,1.72-4.15l2.78-1.15a1.22,1.22,0,1,1,.93,2.26L33,42.74a.72.72,0,0,0-.4.95l1.26,3a.75.75,0,0,0,.4.4.77.77,0,0,0,.56,0L37.6,46a1.22,1.22,0,0,1,1.49.44,16.8,16.8,0,0,0,4.71,4.72,1.23,1.23,0,0,1,.46,1.49L43.11,55.4a.73.73,0,0,0,.4,1l3,1.25a.68.68,0,0,0,.56,0,.71.71,0,0,0,.39-.39l1.15-2.79A1.23,1.23,0,0,1,50,53.69a16.78,16.78,0,0,0,6.66,0,1.24,1.24,0,0,1,1.37.73l1.15,2.79a.74.74,0,0,0,1,.39l3-1.26a.76.76,0,0,0,.4-.39.77.77,0,0,0,0-.56L62.44,52.6a1.21,1.21,0,0,1,.44-1.48A16.84,16.84,0,0,0,67.6,46.4a1.23,1.23,0,0,1,1.48-.46l2.79,1.15a.68.68,0,0,0,.56,0,.71.71,0,0,0,.39-.39l1.25-3a.66.66,0,0,0,0-.55.73.73,0,0,0-.39-.4l-2.79-1.15a1.22,1.22,0,0,1-.73-1.37,17,17,0,0,0,0-6.66,1.25,1.25,0,0,1,.73-1.38L73.68,31a.73.73,0,0,0,.39-.95l-1.26-3a.73.73,0,0,0-1-.39l-2.79,1.15a1.21,1.21,0,0,1-1.48-.45,16.8,16.8,0,0,0-4.72-4.71,1.25,1.25,0,0,1-.46-1.49l1.15-2.79a.66.66,0,0,0,0-.55.73.73,0,0,0-.39-.4l-3-1.25a.75.75,0,0,0-.55,0,.71.71,0,0,0-.4.4L58,19.31a1.23,1.23,0,0,1-2.27-.93l1.15-2.78a3.19,3.19,0,0,1,1.72-1.72,3.29,3.29,0,0,1,1.22-.25,3.16,3.16,0,0,1,1.21.25l3,1.25a3.17,3.17,0,0,1,1.73,4.15L65,21.16a19.25,19.25,0,0,1,4,4l1.88-.78a3.18,3.18,0,0,1,4.15,1.72l1.28,3a3.19,3.19,0,0,1-1.72,4.15l-1.89.78a19,19,0,0,1,0,5.63l1.89.78a3.18,3.18,0,0,1,1.72,4.15l-1.25,3a3.2,3.2,0,0,1-1.73,1.72,3.17,3.17,0,0,1-2.42,0l-1.88-.78a19.6,19.6,0,0,1-4,4l.78,1.88a3.17,3.17,0,0,1,0,2.42,3.2,3.2,0,0,1-1.72,1.73l-3,1.26a3.17,3.17,0,0,1-4.15-1.72l-.78-1.88a19.67,19.67,0,0,1-5.63,0l-.78,1.88A3.2,3.2,0,0,1,48,59.86,3.17,3.17,0,0,1,45.6,59.86Z"/><path class="cls-2" d="M63.3,36.91a10,10,0,0,1-10,9.89h-.07a10,10,0,0,1-9.92-10,1.23,1.23,0,0,1,1.23-1.22h0a1.21,1.21,0,0,1,1.21,1.24A7.49,7.49,0,0,0,48,42.09a7.41,7.41,0,0,0,5.28,2.23h.07a7.51,7.51,0,0,0,.05-15,1.22,1.22,0,0,1,0-2.44h0A10,10,0,0,1,63.3,36.91Z"/><path class="cls-1" d="M32.61,0h2.77a2.25,2.25,0,0,1,2.25,2.25V3.88A14,14,0,0,1,41,5.29l.86-.87a2.69,2.69,0,0,1,1.88-.78,2.64,2.64,0,0,1,1.87.78l1.68,1.69A2.61,2.61,0,0,1,48.1,8a2.57,2.57,0,0,1-.78,1.87l-.87.87a14.23,14.23,0,0,1,1.42,3.39h1.62a2.26,2.26,0,0,1,2.26,2.25v3.18a2.26,2.26,0,0,1-2.26,2.25H47.87a14.23,14.23,0,0,1-1.42,3.39l.87.87a2.64,2.64,0,0,1,.78,1.87,2.57,2.57,0,0,1-.78,1.87l-1.68,1.69a2.68,2.68,0,0,1-1.87.78,2.61,2.61,0,0,1-1.88-.78L41,30.61A14,14,0,0,1,37.63,32v1.63a2.25,2.25,0,0,1-2.25,2.25H32.21A2.25,2.25,0,0,1,30,33.65V32a14,14,0,0,1-3.4-1.41l-.87.87a2.65,2.65,0,0,1-1.87.78A2.6,2.6,0,0,1,22,31.48l-2-2a2.26,2.26,0,0,1,0-3.18l1.15-1.15a13.81,13.81,0,0,1-1.41-3.39H18.09a2.25,2.25,0,0,1-2.25-2.25V16.76a2.65,2.65,0,0,1,2.65-2.65h1.23a13.81,13.81,0,0,1,1.41-3.39l-.87-.87a2.67,2.67,0,0,1,0-3.74L22,4.42a2.68,2.68,0,0,1,1.87-.78,2.61,2.61,0,0,1,1.87.78l.87.87A14,14,0,0,1,30,3.88V2.65A2.67,2.67,0,0,1,32.61,0ZM27,7.83a1.26,1.26,0,0,1-1.58-.15L23.8,6.15a.19.19,0,0,0-.28,0L21.8,7.82a.2.2,0,0,0,0,.27l1.58,1.53a1.19,1.19,0,0,1,.16,1.54,11.43,11.43,0,0,0-1.85,4.32,1.26,1.26,0,0,1-1.23,1H18.52a.19.19,0,0,0-.2.19v2.46a.2.2,0,0,0,.2.19h1.94a1.25,1.25,0,0,1,1.23,1,11.65,11.65,0,0,0,1.85,4.37,1.23,1.23,0,0,1-.16,1.55L21.8,27.78a.2.2,0,0,0,0,.27l1.72,1.69a.19.19,0,0,0,.28,0l1.58-1.58A1.27,1.27,0,0,1,27,28a12.26,12.26,0,0,0,4.46,1.82,1.24,1.24,0,0,1,1,1.2v2.2a.2.2,0,0,0,.2.2h2.45a.2.2,0,0,0,.2-.2V31s.38-1.09,1-1.2A12,12,0,0,0,40.6,28a1.22,1.22,0,0,1,1.54.15l1.55,1.55a.19.19,0,0,0,.14.06A.18.18,0,0,0,44,29.7L45.65,28a.19.19,0,0,0,0-.28L44.1,26.2A1.23,1.23,0,0,1,44,24.65a12,12,0,0,0,1.81-4.36,1.21,1.21,0,0,1,1.2-1h2.19a.3.3,0,0,0,.24-.21V16.71a.41.41,0,0,0-.24-.24H47a1.14,1.14,0,0,1-1.2-.95A11.91,11.91,0,0,0,44,11.17a1.24,1.24,0,0,1,.15-1.55l1.55-1.55a.18.18,0,0,0,.06-.13.19.19,0,0,0-.06-.14L44,6.12a.17.17,0,0,0-.27,0L42.14,7.66a1.2,1.2,0,0,1-1.54.15A12,12,0,0,0,36.24,6c-.57-.11-1-1.2-1-1.2V2.67a.19.19,0,0,0-.2-.19H32.63a.19.19,0,0,0-.2.19V4.85a1.23,1.23,0,0,1-1,1.19A12.57,12.57,0,0,0,27,7.83Z"/><path class="cls-2" d="M41.34,17.91a7.5,7.5,0,1,1-7.5-7.5A7.51,7.51,0,0,1,41.34,17.91ZM29,17.91a4.83,4.83,0,1,0,4.83-4.82A4.83,4.83,0,0,0,29,17.91Z"/></g></g></svg>