<svg xmlns="http://www.w3.org/2000/svg" viewBox="0 0 40.94 40.28"><defs><style>.cls-1{fill:#33556d;}.cls-2{fill:#a9b6bb;}</style></defs><title>aboutus4-aboutus</title><g id="Capa_2" data-name="Capa 2"><g id="Capa_1-2" data-name="Capa 1"><g id="search"><path class="cls-1" d="M37,40.28a21.11,21.11,0,0,1,4-3.93l-8-8H30.83l-.5-.5a20.25,20.25,0,0,1-2.08,1.61l.74.74v2.1Z"/></g><g id="search-2" data-name="search"><path class="cls-1" d="M13.87.3A16.89,16.89,0,0,0,.3,13.87,17.12,17.12,0,0,0,17.13,34.26,16.49,16.49,0,0,0,28.2,30l.05.06a3.74,3.74,0,0,1,1.84-2,16.48,16.48,0,0,0,4.17-11A17.12,17.12,0,0,0,13.87.3ZM17.2,32.14c-8.31,0-14.47-6.8-14.83-14.84S9.45,2.47,17.2,2.47c8.32,0,14.48,6.8,14.84,14.83S25,32.14,17.2,32.14Z"/></g><g id="search-3" data-name="search"><path class="cls-2" d="M16.29,3.26c0,.42,0,.82,0,1.23A14.12,14.12,0,0,1,21,5.61a14.69,14.69,0,0,1,7.25,5.76c.26-.34.54-.67.83-1A17.07,17.07,0,0,0,16.29,3.26Z"/></g><path class="cls-2" d="M17.38,19.39a5.68,5.68,0,1,0-5.67-5.67A5.67,5.67,0,0,0,17.38,19.39Z"/><path class="cls-1" d="M27.06,27.08a7.29,7.29,0,0,0-7.27-7.28H15A7.27,7.27,0,0,0,7.7,27.07,14.55,14.55,0,0,0,18,30.92,14.28,14.28,0,0,0,27.06,27.08Z"/></g></g></svg>