<svg id="Capa_1" data-name="Capa 1" xmlns="http://www.w3.org/2000/svg" viewBox="0 0 70 65.89"><defs><style>.cls-1{fill:#7495ca;}.cls-2{fill:#a6cf24;}</style></defs><title>Añosdeexperiencia</title><path class="cls-1" d="M38.78,17.29a11.27,11.27,0,0,0,4.67-8.84,8.45,8.45,0,0,0-16.9,0,11.25,11.25,0,0,0,4.68,8.84C24.61,19,19.7,24.72,19.7,29c0,5,30.61,5,30.61,0C50.3,24.72,45.4,19,38.78,17.29ZM35,32.75l-4.29-4.28,3.61-8.72h0l-1.41-1.61a6,6,0,0,0,4.24,0l-1.41,1.61h0l3.61,8.72Z"/><path class="cls-1" d="M27.55,52.58a1.92,1.92,0,0,0,1.63-1.93,1.63,1.63,0,1,0-3.25,0A1.92,1.92,0,0,0,27.55,52.58Z"/><path class="cls-1" d="M30.73,53.71a.5.5,0,0,0,0-.13.7.7,0,0,0-.06-.09.52.52,0,0,0-.1-.11l-.09-.06-.1-.06a10.21,10.21,0,0,0-2.54-.54l-.16.32h0l.43,3.37-.52.9-.51-.9L27.48,53h0l-.16-.32a10.33,10.33,0,0,0-2.54.54l-.1.06-.09.06a.31.31,0,0,0-.09.11.21.21,0,0,0-.06.08.39.39,0,0,0-.05.14s0,0,0,.08l-.52,4.63a.65.65,0,0,0,.57.71h.07a.65.65,0,0,0,.64-.57l.47-4.21.17-.05v4.38L25.24,65a.79.79,0,0,0,.71.83H26a.77.77,0,0,0,.77-.71l.46-5.74a.81.81,0,0,0,.31.06.75.75,0,0,0,.31-.06l.47,5.74a.77.77,0,0,0,.76.71h.07a.79.79,0,0,0,.71-.83l-.52-6.36V54.3l.18.05L30,58.56a.65.65,0,0,0,.64.57h.07a.65.65,0,0,0,.57-.71l-.52-4.62A.24.24,0,0,0,30.73,53.71Z"/><path class="cls-1" d="M35,52.58a1.91,1.91,0,0,0,1.62-1.93,1.63,1.63,0,1,0-3.25,0A1.92,1.92,0,0,0,35,52.58Z"/><path class="cls-1" d="M38.18,53.71a.5.5,0,0,0,0-.13,5.19,5.19,0,0,0-.16-.2.47.47,0,0,0-.09-.06l-.1-.06a10.33,10.33,0,0,0-2.54-.54l-.16.32h0l.44,3.37-.52.9-.51-.9.43-3.36h0l-.16-.33a10.33,10.33,0,0,0-2.54.54l-.09.06-.1.06-.09.11-.06.09s0,.09-.05.13,0,0,0,.09l-.52,4.62a.65.65,0,0,0,.57.71h.07a.65.65,0,0,0,.64-.57L33,54.35l.17-.05v4.38L32.69,65a.78.78,0,0,0,.71.83h.06a.77.77,0,0,0,.77-.71l.46-5.74a.81.81,0,0,0,.31.06.83.83,0,0,0,.32-.06l.46,5.74a.77.77,0,0,0,.76.71h.07a.79.79,0,0,0,.71-.83l-.52-6.36V54.3l.18.05.47,4.21a.63.63,0,0,0,.63.57h.08a.64.64,0,0,0,.56-.71l-.51-4.62A.94.94,0,0,0,38.18,53.71Z"/><path class="cls-1" d="M42.45,52.58a1.91,1.91,0,0,0,1.62-1.93,1.63,1.63,0,1,0-3.25,0A1.92,1.92,0,0,0,42.45,52.58Z"/><path class="cls-1" d="M45.63,53.71a.5.5,0,0,0-.05-.13s0-.06-.06-.09a.48.48,0,0,0-.09-.11l-.09-.06-.1-.06a10.33,10.33,0,0,0-2.54-.54l-.16.32h0L43,56.41l-.51.9-.51-.9L42.37,53h0l-.16-.32a10.33,10.33,0,0,0-2.54.54l-.09.06a.33.33,0,0,0-.1.06l-.09.11s-.05,0-.06.08l0,.14s0,0,0,.08l-.51,4.63a.65.65,0,0,0,.57.71h.07a.65.65,0,0,0,.64-.57l.46-4.21.19-.06v4.39L40.14,65a.77.77,0,0,0,.71.83h.06a.77.77,0,0,0,.77-.72l.46-5.74a.67.67,0,0,0,.31.07.68.68,0,0,0,.32-.07l.46,5.74a.77.77,0,0,0,.77.72h.06a.78.78,0,0,0,.71-.83l-.51-6.35V54.29l.17.06.47,4.21a.64.64,0,0,0,.64.57h.07a.64.64,0,0,0,.56-.71l-.51-4.63Z"/><path class="cls-1" d="M68.39,57.69a6.79,6.79,0,0,0-.45-2.7l1.4-.88L68,51.91l-1.41.88a6.84,6.84,0,0,0-2.23-1.6l.38-1.61L62.17,49l-.37,1.61a6.65,6.65,0,0,0-2.7.45l-.88-1.4L56,51l.88,1.41a6.84,6.84,0,0,0-1.6,2.23l-1.61-.38-.59,2.53,1.61.38a6.83,6.83,0,0,0,.46,2.7l-1.4.88L55.14,63l1.41-.88a6.84,6.84,0,0,0,2.23,1.6l-.37,1.61,2.53.58.37-1.61a6.52,6.52,0,0,0,2.7-.46l.88,1.41,2.2-1.38-.88-1.4a6.77,6.77,0,0,0,1.59-2.23l1.62.37L70,58.06ZM64,61.4A4.67,4.67,0,1,1,65.51,55,4.67,4.67,0,0,1,64,61.4Z"/><path class="cls-1" d="M8.45,49a8.45,8.45,0,1,0,8.45,8.44A8.46,8.46,0,0,0,8.45,49Zm0,2.19h.15v-.67a7,7,0,0,1,3.09.85l-.33.57.33.18.33-.57a6.94,6.94,0,0,1,2.27,2.27l-.57.33.19.33.56-.33a6.84,6.84,0,0,1,.85,3.1h-.67v.38h.67a6.81,6.81,0,0,1-.85,3.1L14,60.4l-.19.33.57.33a6.81,6.81,0,0,1-2.26,2.27l-.33-.57-.33.19.32.56a6.77,6.77,0,0,1-3.09.85v-.67H8.26v.67a6.81,6.81,0,0,1-3.1-.85L5.49,63l-.33-.19-.33.58a6.94,6.94,0,0,1-2.27-2.27l.57-.34-.19-.32-.56.32a6.77,6.77,0,0,1-.85-3.09H2.2v-.38H1.53a6.77,6.77,0,0,1,.85-3.1l.56.32.19-.33-.57-.33a6.94,6.94,0,0,1,2.27-2.27l.33.58.33-.19-.33-.56a6.81,6.81,0,0,1,3.1-.85v.67h.22ZM7.39,53.25"/><polygon class="cls-1" points="35.56 37.6 35.56 35.55 34.44 35.55 34.44 37.6 7.89 37.6 7.89 46.53 9.01 46.53 9.01 38.72 34.44 38.72 34.44 46.53 35.56 46.53 35.56 38.72 61 38.72 61 46.53 62.11 46.53 62.11 37.6 35.56 37.6"/><polyline class="cls-2" points="35.68 19.75 39.29 28.47 35.01 32.76 30.72 28.47 34.33 19.75 34.29 19.75"/><path class="cls-2" d="M34.29,19.75l-1.4-1.61a5.93,5.93,0,0,0,4.23,0l-1.4,1.61h0"/><path class="cls-1" d="M30.15,45.81"/><path class="cls-2" d="M27.8,52.72l-.16.32h0l.43,3.37-.52.9-.51-.9L27.47,53h0l-.17-.32Z"/><path class="cls-2" d="M35.25,52.72l-.16.32h0l.44,3.37-.52.9-.51-.9L34.92,53h0l-.17-.32Z"/><path class="cls-2" d="M42.7,52.72l-.17.32h0L43,56.41l-.51.9-.52-.9L42.37,53h0l-.16-.32Z"/><path class="cls-2" d="M8.43,51.2l-1,2h.68v4L6,58.46l-.34-.6-1.31,2,2.37-.13-.35-.6,2.33-1.34s0,0,0,0a.48.48,0,0,0,.09-.11.69.69,0,0,0,.05-.13s0,0,0-.05V53.25h.68l-1-2"/><path class="cls-1" d="M8.26,51.2"/><path class="cls-2" d="M64.67,57.55a2.94,2.94,0,0,0-.21-1.16L65.1,56l-.63-1-.64.38a3,3,0,0,0-1-.69l.17-.69-1.16-.25-.16.69a3.21,3.21,0,0,0-1.23.2l-.41-.6-1,.59.4.6a3,3,0,0,0-.72,1L58,56.09l-.26,1.09.73.16a2.77,2.77,0,0,0,.21,1.16l-.64.37.63,1,.63-.38a3.17,3.17,0,0,0,1,.69l-.17.69,1.15.25.17-.69a3.27,3.27,0,0,0,1.23-.2l.4.6,1-.59-.4-.6a2.82,2.82,0,0,0,.73-1l.73.16.27-1.08Zm-2,1.59a2.21,2.21,0,0,1-2.93-.64,1.93,1.93,0,0,1,.68-2.75,2.2,2.2,0,0,1,2.92.63A1.93,1.93,0,0,1,62.68,59.14Z"/></svg>