<svg id="Capa_1" data-name="Capa 1" xmlns="http://www.w3.org/2000/svg" viewBox="0 0 62.53 84.02"><defs><style>.cls-1{fill:#a6cf24;}.cls-2{fill:#7495ca;}</style></defs><title>Clientessatisfechos</title><path class="cls-1" d="M60.75,57H55.39V54.28a.89.89,0,0,0-.89-.89H45.57a.89.89,0,0,0-.9.89V57H39.32a1.79,1.79,0,0,0-1.79,1.79V73a1.79,1.79,0,0,0,1.79,1.79H60.75A1.79,1.79,0,0,0,62.53,73V58.75A1.79,1.79,0,0,0,60.75,57ZM53.6,57H46.46V55.18H53.6Z"/><g id="_Grupo_" data-name="&lt;Grupo&gt;"><path id="_Trazado_" data-name="&lt;Trazado&gt;" class="cls-2" d="M8.43,16.18A8.07,8.07,0,1,0,.36,8.11,8.06,8.06,0,0,0,8.43,16.18Z"/><path id="_Trazado_2" data-name="&lt;Trazado&gt;" class="cls-2" d="M46.09,23.07"/><path id="_Trazado_3" data-name="&lt;Trazado&gt;" class="cls-2" d="M50.65,16.13a8.06,8.06,0,1,0-8.06-8.07A8.06,8.06,0,0,0,50.65,16.13Z"/><path id="_Trazado_4" data-name="&lt;Trazado&gt;" class="cls-2" d="M14,25.05"/><path id="_Trazado_5" data-name="&lt;Trazado&gt;" class="cls-2" d="M16.85,42.44l-4.26-1.68-1.26-.5a3.37,3.37,0,0,1-2.07-2.61L7.8,28.23l-.09-.47.31.46,3.58,7.46a3.46,3.46,0,0,0,1.85,1.72l12.76,5.05a3.23,3.23,0,0,0,1.25.24,3.46,3.46,0,0,0,3.22-2.23,3.52,3.52,0,0,0-2-4.53L17.21,31.38l-4-8.24,3.87,4.53V25.06a7,7,0,0,0-7-7H6.94a7,7,0,0,0-6.94,7L0,42.63l0,6.86L0,79.82A4.17,4.17,0,0,0,4.08,84a4.25,4.25,0,0,0,4.22-4.3V54.77l1.63.11,0,24.94A4.17,4.17,0,0,0,14,84a4.25,4.25,0,0,0,4.22-4.3V54.77l-.05-11.56Z"/><path id="_Trazado_6" data-name="&lt;Trazado&gt;" class="cls-2" d="M59.08,28.62V25A7,7,0,0,0,52.13,18l-3.59,0q-.3,0-.6,0a6.94,6.94,0,0,0-6.34,6.91v3.15l0,3.66L31.79,35.5A6.1,6.1,0,0,1,31.2,43a3.25,3.25,0,0,0,.91-.17l10.09-4-.3,13.09-.12,3.59s1.93-1.36,1.81-2.22A2,2,0,0,1,44,51.55l5.32-12.5L47.22,29.3l.12.27,4.34,9.3L46.35,51.05a3.81,3.81,0,0,0,2,4.79,3.47,3.47,0,0,0,3.94-.6A3.28,3.28,0,0,0,53,54.17L58.76,41a4.19,4.19,0,0,0-.13-2.83l-3.42-7.48L54,27.78l-.2-.47,5.25,7.89Z"/><path id="_Trazado_7" data-name="&lt;Trazado&gt;" class="cls-2" d="M59,76.62H50.77V79.7A4.26,4.26,0,0,0,54.5,84,4.14,4.14,0,0,0,59,79.88Z"/></g><path class="cls-2" d="M26,50"/><path id="_Trazado_8" data-name="&lt;Trazado&gt;" class="cls-2" d="M49.28,76.62H41V79.7A4.27,4.27,0,0,0,44.73,84a4.14,4.14,0,0,0,4.55-4.12Z"/></svg>