<svg id="Capa_1" data-name="Capa 1" xmlns="http://www.w3.org/2000/svg" viewBox="0 0 66 71.28"><defs><style>.cls-1{fill:#7495ca;}.cls-2{fill:#a6cf24;}</style></defs><title>Coltalentosos</title><path class="cls-1" d="M10.59,12.25A6.13,6.13,0,1,0,4.47,6.13,6.13,6.13,0,0,0,10.59,12.25Z"/><path class="cls-1" d="M55.41,12.25a6.13,6.13,0,1,0-6.13-6.12,6.13,6.13,0,0,0,6.13,6.12Z"/><path class="cls-1" d="M32.94,22.42a6.13,6.13,0,1,0-6.13-6.12A6.13,6.13,0,0,0,32.94,22.42Z"/><path class="cls-1" d="M25.89,44.67v13a1.66,1.66,0,0,0,1.66,1.66H38.33A1.66,1.66,0,0,0,40,57.65v-13l3.27-5a1.64,1.64,0,0,0,.27-.91V29.15a6.07,6.07,0,0,0-4.15-5.76h0l-1.57-.48a1.65,1.65,0,0,0-1.8.56l-3,3.9-3-3.9a1.65,1.65,0,0,0-1.8-.56l-1.57.48h0a6.07,6.07,0,0,0-4.15,5.76v9.63a1.64,1.64,0,0,0,.27.91l3.27,5Z"/><path class="cls-1" d="M3.54,34.5v13A1.67,1.67,0,0,0,5.2,49.14H16a1.66,1.66,0,0,0,1.66-1.66v-13l3.27-5a1.63,1.63,0,0,0,.28-.91V19A6.06,6.06,0,0,0,17,13.22h0l-1.58-.48a1.64,1.64,0,0,0-1.71.47l-3.12,3.41L7.48,13.2a1.65,1.65,0,0,0-1.72-.47l-1.57.48h0A6.07,6.07,0,0,0,0,19v9.63a1.62,1.62,0,0,0,.27.91l3.27,5Z"/><path class="cls-1" d="M61.85,13.22h0l-1.58-.48a1.66,1.66,0,0,0-1.77.53L55.41,17l-3.06-3.74a1.66,1.66,0,0,0-1.77-.53L49,13.21h0A6.06,6.06,0,0,0,44.81,19v9.63a1.63,1.63,0,0,0,.28.91l3.27,5v13A1.66,1.66,0,0,0,50,49.14H60.8a1.67,1.67,0,0,0,1.66-1.66v-13l3.27-5a1.62,1.62,0,0,0,.27-.91V19a6.07,6.07,0,0,0-4.15-5.76Z"/><path class="cls-1" d="M20.38,61.11a11.35,11.35,0,0,1-1.6.8A19.63,19.63,0,0,1,14.47,63l6.17,2.56a6,6,0,0,1,3.11-3.08l-3.37-1.4Z"/><ellipse class="cls-2" cx="10.59" cy="56.93" rx="10.45" ry="4.24"/><path class="cls-1" d="M45.73,61.18l-3.46,1.4a5.9,5.9,0,0,1,3,3.13l6.51-2.64a19.9,19.9,0,0,1-4.58-1.16,11.52,11.52,0,0,1-1.49-.73Z"/><ellipse class="cls-2" cx="32.94" cy="67.03" rx="10.45" ry="4.24"/><ellipse class="cls-2" cx="55.41" cy="56.93" rx="10.45" ry="4.24"/></svg>