<svg xmlns="http://www.w3.org/2000/svg" viewBox="0 0 50.37 49.75"><defs><style>.cls-1{fill:#fff;}.cls-2{fill:none;stroke:#fff;stroke-miterlimit:10;stroke-width:0.75px;}</style></defs><title>contactus1-newproject-white</title><g id="Capa_2" data-name="Capa 2"><g id="Capa_1-2" data-name="Capa 1"><path class="cls-1" d="M39.24,36.18,35.6,34.6l3.08-1.3a.43.43,0,0,0,.26-.38.41.41,0,0,0-.26-.38L30,28.84a.32.32,0,0,0-.3,0l-4.36,1.79L21,29a.76.76,0,0,0-.3,0l-8.76,3.67a.43.43,0,0,0-.26.38.41.41,0,0,0,.26.38L15,34.7l-3.64,1.61a.4.4,0,0,0-.26.38.44.44,0,0,0,.26.38L15.61,39v6.75a.39.39,0,0,0,.25.38l9.27,3.62a.39.39,0,0,0,.15,0,.41.41,0,0,0,.16,0l9.24-3.64a.4.4,0,0,0,.26-.39V38.83l4.3-1.91a.46.46,0,0,0,.26-.38A.39.39,0,0,0,39.24,36.18ZM13.13,33l7.65-3.23,3.36,1.27-8.09,3.21Zm-.59,3.66L16,35.19l8.37,3.49L21,40.43Zm12.35,12-8.39-3.3V39.35l4.36,1.95a.38.38,0,0,0,.18,0,.84.84,0,0,0,.2,0l3.65-1.93v9.36Zm.39-10.52L17,34.76l8.24-3.26,8.17,3.21Zm8.83,7.22-8.39,3.32V39.35l3.67,1.83a.61.61,0,0,0,.18,0,.38.38,0,0,0,.18,0l4.36-2Zm0-7.09-4.55,2L26.25,38.7l7.86-3.36Zm.25-4.12-8-3.15,3.39-1.38,7.65,3.23Zm.58,3.74V35.22L38,36.56Z"/><path class="cls-1" d="M43.75,11.46a5.74,5.74,0,0,0-7.37,1.25,5.54,5.54,0,0,0-1.05,4.61,5.75,5.75,0,0,1-.67,4.13l-1.16,2a1.67,1.67,0,0,0,.62,2.29L36,26.81a1.68,1.68,0,0,0,2.31-.57l1.16-2a5.34,5.34,0,0,1,3.16-2.55,5.42,5.42,0,0,0,3.28-2.49,5.74,5.74,0,0,0-2.17-7.78ZM37.58,25.84a.79.79,0,0,1-1.1.27L34.58,25a.79.79,0,0,1-.29-1.1L34.8,23,38.09,25l-.51.87Zm4.84-4.94a6.23,6.23,0,0,0-3.72,3l-.2.34-3.29-1.94.2-.34a6.7,6.7,0,0,0,.71-4.76,4.59,4.59,0,0,1,.89-3.9,5,5,0,0,1,6.29-1,4.85,4.85,0,0,1,1.86,6.58A4.5,4.5,0,0,1,42.42,20.9Z"/><rect class="cls-1" x="43.88" y="8.97" width="2.1" height="0.88" transform="translate(14.04 43.36) rotate(-59.53)"/><polygon class="cls-1" points="48.08 14.76 48.3 15.62 50.37 15.13 50.15 14.27 48.08 14.76"/><rect class="cls-1" x="47.93" y="20.65" width="0.88" height="2.18" transform="translate(5.11 52.41) rotate(-59.53)"/><rect class="cls-1" x="32.08" y="11.32" width="0.88" height="2.18" transform="translate(5.33 34.15) rotate(-59.53)"/><polygon class="cls-1" points="38.16 7.21 37.3 7.43 37.87 9.47 38.73 9.25 38.16 7.21"/><path class="cls-1" d="M15.18,15H13.63a.5.5,0,0,1-.36-.16.58.58,0,0,1,0-.82L14.33,13a.8.8,0,0,0,.24-.58.82.82,0,0,0-.24-.59l-1.47-1.47a.66.66,0,0,0-.92,0l-1.22,1.23a.47.47,0,0,1-.34.13.58.58,0,0,1-.6-.58V9.45a.65.65,0,0,0-.65-.64H6.87a.65.65,0,0,0-.65.64v1.67a.57.57,0,0,1-.23.47.58.58,0,0,1-.75-.06L4.18,10.47a.82.82,0,0,0-1.16,0L1.67,11.82a.82.82,0,0,0-.24.59.8.8,0,0,0,.24.58l1.05,1a.56.56,0,0,1,.17.5.57.57,0,0,1-.57.49H.82a.82.82,0,0,0-.82.82v1.91a.82.82,0,0,0,.82.82H2.36a.51.51,0,0,1,.37.16.58.58,0,0,1,0,.82L1.67,20.62a.82.82,0,0,0-.24.59.8.8,0,0,0,.24.58l1.47,1.47a.66.66,0,0,0,.92,0L5.28,22a.44.44,0,0,1,.34-.14.58.58,0,0,1,.6.59v1.67a.65.65,0,0,0,.65.65H9.13a.65.65,0,0,0,.65-.65V22.52a.6.6,0,0,1,.28-.53.56.56,0,0,1,.7.09l1.06,1.06a.82.82,0,0,0,1.16,0l1.35-1.35a.8.8,0,0,0,.24-.58.82.82,0,0,0-.24-.59l-1.05-1.05a.56.56,0,0,1-.17-.5.57.57,0,0,1,.57-.49h1.5a.82.82,0,0,0,.82-.82V15.85A.82.82,0,0,0,15.18,15Zm.23,2.73a.23.23,0,0,1-.23.23H13.72a1.21,1.21,0,0,0-1.05.58A1.16,1.16,0,0,0,12.85,20L13.91,21a.24.24,0,0,1,0,.33l-1.35,1.35a.22.22,0,0,1-.32,0l-1-1a1.21,1.21,0,0,0-1.15-.34,1.17,1.17,0,0,0-.87,1.14V24a.23.23,0,0,1-.24.23H7.05A.23.23,0,0,1,6.81,24V22.54a1.18,1.18,0,0,0-1.17-1.23,1.15,1.15,0,0,0-.82.35L3.76,22.72a.22.22,0,0,1-.32,0L2.09,21.37a.24.24,0,0,1,0-.33l1-1a1.19,1.19,0,0,0,.34-1.15A1.14,1.14,0,0,0,2.32,18H.82a.23.23,0,0,1-.23-.23V15.85a.23.23,0,0,1,.23-.23H2.28a1.2,1.2,0,0,0,1.05-.57,1.18,1.18,0,0,0-.18-1.42L2.09,12.57a.24.24,0,0,1,0-.33l1.35-1.35a.22.22,0,0,1,.32,0l1,1a1.21,1.21,0,0,0,1.15.34,1.16,1.16,0,0,0,.87-1.13V9.63a.23.23,0,0,1,.24-.23H9a.23.23,0,0,1,.24.23v1.45a1.19,1.19,0,0,0,.57,1.05A1.15,1.15,0,0,0,11.18,12l1.06-1.06a.22.22,0,0,1,.32,0l1.35,1.35a.24.24,0,0,1,0,.33l-1,1a1.19,1.19,0,0,0-.34,1.15,1.15,1.15,0,0,0,1.13.87h1.5a.23.23,0,0,1,.23.23Z"/><path class="cls-1" d="M8,14a2.67,2.67,0,1,0,2.66,2.67A2.68,2.68,0,0,0,8,14Zm0,4.74a2.08,2.08,0,1,1,2.07-2.07A2.08,2.08,0,0,1,8,18.75Z"/><path class="cls-1" d="M34.64.86a2.93,2.93,0,0,0-4.15,0L18.74,12.61h0l0,0a.2.2,0,0,0,0,.08v0h0L17.5,17.6v.08a.23.23,0,0,0,0,.11v0a.18.18,0,0,0,.06.09.28.28,0,0,0,.11.08l.12,0h.08l4.83-1.15h.06l.07,0s0,0,0,0h0L34.64,5A2.93,2.93,0,0,0,34.64.86Zm-.46.46a2.27,2.27,0,0,1,.21,3L31.2,1.11A2.29,2.29,0,0,1,34.18,1.32ZM32.56,6.16,29.34,2.93l.46-.46L33,5.7ZM19.11,16.45a.32.32,0,0,0-.46,0l-.25.25.84-3.5L20.68,13l-.19,1.67v.1a.14.14,0,0,0,0,.06l0,.06,0,0,.05,0,.05,0,.06,0h.11l1.67-.18-.16,1.44-3.5.83.25-.25A.32.32,0,0,0,19.11,16.45ZM23.2,14.6l7.29-7.29A.33.33,0,0,0,30,6.85l-7.29,7.29-1.56.17.18-1.55,7.29-7.3a.32.32,0,0,0,0-.46.34.34,0,0,0-.46,0L20.9,12.29l-1,.12,9-9L32.1,6.62l-9,9ZM33.49,5.23,30.26,2l.46-.46L34,4.77Z"/><path class="cls-2" d="M40.5,32.56c.09-3,2.24-6.52,8-7.75"/><path class="cls-2" d="M10.5,32.56c-.1-3-2.25-6.52-8-7.75"/></g></g></svg>