<?xml version="1.0" encoding="UTF-8"?>
<!-- Created with Inkscape (http://www.inkscape.org/) -->
<svg width="10.913mm" height="10.474mm" version="1.1" viewBox="0 0 10.913 10.474" xmlns="http://www.w3.org/2000/svg" xmlns:cc="http://creativecommons.org/ns#" xmlns:dc="http://purl.org/dc/elements/1.1/" xmlns:rdf="http://www.w3.org/1999/02/22-rdf-syntax-ns#">
 <metadata>
  <rdf:RDF>
   <cc:Work rdf:about="">
    <dc:format>image/svg+xml</dc:format>
    <dc:type rdf:resource="http://purl.org/dc/dcmitype/StillImage"/>
    <dc:title/>
   </cc:Work>
  </rdf:RDF>
 </metadata>
 <g transform="translate(-153.29 -154.18)">
  <path d="m155.88 154.18-0.138 0.7411a2.4495 2.4495 0 0 0-0.553 0.232l-0.625-0.4262-0.726 0.7255 0.427 0.6228a2.4495 2.4495 0 0 0-0.229 0.5553l-0.743 0.1395v1.0263l0.741 0.1392a2.4495 2.4495 0 0 0 0.233 0.5537l-0.427 0.6245 0.726 0.7254 0.624-0.4267a2.4495 2.4495 0 0 0 0.555 0.2278l0.139 0.7437h1.026l0.139-0.7421a2.4495 2.4495 0 0 0 0.552-0.2326l0.626 0.4278 0.726-0.726-0.428-0.6247a2.4495 2.4495 0 0 0 0.229-0.5529l0.744-0.14v-1.0263l-0.743-0.1397a2.4495 2.4495 0 0 0-0.232-0.552l0.428-0.6257-0.726-0.726-0.625 0.4273a2.4495 2.4495 0 0 0-0.554-0.2278l-0.139-0.7432zm0.515 2.0087a1.0956 1.0956 0 0 1 1.095 1.0962 1.0956 1.0956 0 0 1-1.095 1.0953 1.0956 1.0956 0 0 1-1.096-1.0953 1.0956 1.0956 0 0 1 1.096-1.0962z" fill="#10546e"/>
  <path d="m161.1 157.58-0.05 0.5892a1.9227 1.9227 0 0 0-0.416 0.2218l-0.519-0.2876-0.515 0.6199 0.379 0.4557a1.9227 1.9227 0 0 0-0.138 0.4507l-0.571 0.1632 0.08 0.8021 0.59 0.055a1.9227 1.9227 0 0 0 0.222 0.4157l-0.288 0.5192 0.62 0.5141 0.456-0.379a1.9227 1.9227 0 0 0 0.451 0.1375l0.163 0.5711 0.801-0.075 0.06-0.5901a1.9227 1.9227 0 0 0 0.415-0.2222l0.52 0.2888 0.515-0.6203-0.38-0.4571a1.9227 1.9227 0 0 0 0.138-0.4488l0.572-0.1637-0.08-0.8021-0.591-0.055a1.9227 1.9227 0 0 0-0.222-0.4144l0.289-0.5203-0.62-0.5146-0.457 0.3797a1.9227 1.9227 0 0 0-0.45-0.1377l-0.163-0.5707zm0.548 1.5324a0.85999 0.85999 0 0 1 0.937 0.7768 0.85999 0.85999 0 0 1-0.777 0.9359 0.85999 0.85999 0 0 1-0.936-0.7761 0.85999 0.85999 0 0 1 0.776-0.9366z" fill="#a5b7bd"/>
  <path d="m157.1 160.46-0.09 0.5006a1.6541 1.6541 0 0 0-0.374 0.1566l-0.421-0.2881-0.491 0.4896 0.288 0.4208a1.6541 1.6541 0 0 0-0.155 0.3749l-0.502 0.094v0.6931l0.502 0.095a1.6541 1.6541 0 0 0 0.156 0.3739l-0.288 0.4216 0.489 0.4903 0.421-0.2879a1.6541 1.6541 0 0 0 0.376 0.1539l0.1 0.502 0.693 2e-4 0.1-0.5005a1.6541 1.6541 0 0 0 0.375-0.157l0.421 0.2892 0.491-0.4898-0.289-0.4222a1.6541 1.6541 0 0 0 0.155-0.3733l0.502-0.095v-0.6932l-0.503-0.095a1.6541 1.6541 0 0 0-0.156-0.3728l0.289-0.4224-0.489-0.4908-0.422 0.2886a1.6541 1.6541 0 0 0-0.376-0.1542l-0.1-0.5015zm0.346 1.3567a0.73985 0.73985 0 0 1 0.74 0.7406 0.73985 0.73985 0 0 1-0.741 0.7391 0.73985 0.73985 0 0 1-0.74-0.7399 0.73985 0.73985 0 0 1 0.741-0.7398z" fill="#10546e"/>
 </g>
</svg>
