<svg id="Capa_1" data-name="Capa 1" xmlns="http://www.w3.org/2000/svg" viewBox="0 0 56 70"><defs><style>.cls-1{fill:#7495ca;}.cls-2{fill:#a6cf24;}</style></defs><title>Horasoporte</title><path class="cls-1" d="M14.63,31.19c3.18,7.07,10,10.15,13.37,10.15,2.22,0,5.93-1.33,9.11-4.26-1.17.09-2.41.13-3.74.13h-1A3.83,3.83,0,0,1,30,38H27.19a3.9,3.9,0,0,1,0-7.8H30a3.85,3.85,0,0,1,2.69,1.1h.7A31.54,31.54,0,0,0,41,30.57,4.37,4.37,0,0,1,40.73,29V19.06a4.32,4.32,0,0,1,1-2.78A16.1,16.1,0,0,0,39.83,9.9C37.88,6.72,34.12,5.24,28,5.24c-5.08,0-8.59,1.06-10.72,3.25-1.66,1.7-2.62,4.11-3.06,7.77a4.24,4.24,0,0,1,1,2.8V29A4.18,4.18,0,0,1,14.63,31.19Z"/><path class="cls-2" d="M7.68,31.28h3.39A2.33,2.33,0,0,0,13.39,29V19.06a2.35,2.35,0,0,0-1.16-2C13,9,16.09,3.34,28,3.34c6.84,0,11.11,1.77,13.44,5.57a19.42,19.42,0,0,1,2.31,8.15,2.32,2.32,0,0,0-1.14,2v9.88a2.34,2.34,0,0,0,1.81,2.28c-1.5,1-4.6,2-11,2-.52,0-1.06,0-1.63,0A2,2,0,0,0,30,32.12H27.2a2,2,0,0,0,0,4H30a2,2,0,0,0,1.61-.83l1.74,0c7.23,0,11.83-1.25,13.69-3.72.08-.1.15-.21.22-.31h1A2.33,2.33,0,0,0,50.64,29V19.06a2.32,2.32,0,0,0-2.32-2.33H47.05a22,22,0,0,0-2.8-9.58C41.31,2.34,36,0,28,0S14.69,2.34,11.75,7.15A22,22,0,0,0,9,16.73H7.68a2.32,2.32,0,0,0-2.32,2.33V29A2.33,2.33,0,0,0,7.68,31.28Z"/><path class="cls-1" d="M56,60.35c-.77-4.83-2.36-11-5.54-13.25-2.16-1.51-9.73-5.58-13-7.32l-.07,0a1,1,0,0,0-1.15.1,13.56,13.56,0,0,1-5.51,2.69,1.08,1.08,0,0,0-.76.66l-2,5.32-2-5.32a1.08,1.08,0,0,0-.76-.66,13.56,13.56,0,0,1-5.51-2.69,1.05,1.05,0,0,0-1.15-.1c-3.2,1.72-10.86,5.88-13,7.35C1.89,49.58.3,58.57,0,60.35a1.13,1.13,0,0,0,0,.52C.19,61.25,3.55,70,28,70s27.81-8.75,27.94-9.13A1.13,1.13,0,0,0,56,60.35ZM44.6,54.81H34.92V52.75H44.6Z"/></svg>