<svg xmlns="http://www.w3.org/2000/svg" xmlns:xlink="http://www.w3.org/1999/xlink" viewBox="0 0 137 60"><defs><style>.cls-1{fill:none;}.cls-2{isolation:isolate;}.cls-3{fill:#426390;}.cls-4{fill:#4d74ae;}.cls-5{fill:#8fb443;}.cls-6{opacity:0.3;mix-blend-mode:multiply;}.cls-7{opacity:0;}.cls-8{clip-path:url(#clip-path);}.cls-9{fill:#5b564f;}.cls-10{opacity:0.02;}.cls-11{clip-path:url(#clip-path-2);}.cls-12{opacity:0.04;}.cls-13{clip-path:url(#clip-path-3);}.cls-14{opacity:0.06;}.cls-15{clip-path:url(#clip-path-4);}.cls-16{opacity:0.08;}.cls-17{clip-path:url(#clip-path-5);}.cls-18{opacity:0.1;}.cls-19{clip-path:url(#clip-path-6);}.cls-20{opacity:0.12;}.cls-21{clip-path:url(#clip-path-7);}.cls-22{opacity:0.14;}.cls-23{clip-path:url(#clip-path-8);}.cls-24{opacity:0.16;}.cls-25{clip-path:url(#clip-path-9);}.cls-26{opacity:0.18;}.cls-27{clip-path:url(#clip-path-10);}.cls-28{opacity:0.2;}.cls-29{clip-path:url(#clip-path-11);}.cls-30{opacity:0.22;}.cls-31{clip-path:url(#clip-path-12);}.cls-32{opacity:0.24;}.cls-33{clip-path:url(#clip-path-13);}.cls-34{opacity:0.25;}.cls-35{clip-path:url(#clip-path-14);}.cls-36{opacity:0.27;}.cls-37{clip-path:url(#clip-path-15);}.cls-38{opacity:0.29;}.cls-39{clip-path:url(#clip-path-16);}.cls-40{opacity:0.31;}.cls-41{clip-path:url(#clip-path-17);}.cls-42{opacity:0.33;}.cls-43{clip-path:url(#clip-path-18);}.cls-44{opacity:0.35;}.cls-45{clip-path:url(#clip-path-19);}.cls-46{opacity:0.37;}.cls-47{clip-path:url(#clip-path-20);}.cls-48{opacity:0.39;}.cls-49{clip-path:url(#clip-path-21);}.cls-50{opacity:0.41;}.cls-51{clip-path:url(#clip-path-22);}.cls-52{opacity:0.43;}.cls-53{clip-path:url(#clip-path-23);}.cls-54{opacity:0.45;}.cls-55{clip-path:url(#clip-path-24);}.cls-56{opacity:0.47;}.cls-57{clip-path:url(#clip-path-25);}.cls-58{opacity:0.49;}.cls-59{clip-path:url(#clip-path-26);}.cls-60{opacity:0.51;}.cls-61{clip-path:url(#clip-path-27);}.cls-62{opacity:0.53;}.cls-63{clip-path:url(#clip-path-28);}.cls-64{opacity:0.55;}.cls-65{clip-path:url(#clip-path-29);}.cls-66{opacity:0.57;}.cls-67{clip-path:url(#clip-path-30);}.cls-68{opacity:0.59;}.cls-69{clip-path:url(#clip-path-31);}.cls-70{opacity:0.61;}.cls-71{clip-path:url(#clip-path-32);}.cls-72{opacity:0.63;}.cls-73{clip-path:url(#clip-path-33);}.cls-74{opacity:0.65;}.cls-75{clip-path:url(#clip-path-34);}.cls-76{opacity:0.67;}.cls-77{clip-path:url(#clip-path-35);}.cls-78{opacity:0.69;}.cls-79{clip-path:url(#clip-path-36);}.cls-80{opacity:0.71;}.cls-81{clip-path:url(#clip-path-37);}.cls-82{opacity:0.73;}.cls-83{clip-path:url(#clip-path-38);}.cls-84{opacity:0.75;}.cls-85{clip-path:url(#clip-path-39);}.cls-86{opacity:0.76;}.cls-87{clip-path:url(#clip-path-40);}.cls-88{opacity:0.78;}.cls-89{clip-path:url(#clip-path-41);}.cls-90{opacity:0.8;}.cls-91{clip-path:url(#clip-path-42);}.cls-92{opacity:0.82;}.cls-93{clip-path:url(#clip-path-43);}.cls-94{opacity:0.84;}.cls-95{clip-path:url(#clip-path-44);}.cls-96{opacity:0.86;}.cls-97{clip-path:url(#clip-path-45);}.cls-98{opacity:0.88;}.cls-99{clip-path:url(#clip-path-46);}.cls-100{opacity:0.9;}.cls-101{clip-path:url(#clip-path-47);}.cls-102{opacity:0.92;}.cls-103{clip-path:url(#clip-path-48);}.cls-104{opacity:0.94;}.cls-105{clip-path:url(#clip-path-49);}.cls-106{opacity:0.96;}.cls-107{clip-path:url(#clip-path-50);}.cls-108{opacity:0.98;}.cls-109{clip-path:url(#clip-path-51);}.cls-110{clip-path:url(#clip-path-52);}.cls-111{fill:url(#linear-gradient);}.cls-112{fill:url(#linear-gradient-2);}.cls-113{fill:url(#linear-gradient-3);}.cls-114{fill:url(#linear-gradient-4);}.cls-115{fill:#0a5479;}</style><clipPath id="clip-path"><rect class="cls-1" y="54.71" width="38.64" height="4.44"/></clipPath><clipPath id="clip-path-2"><rect class="cls-1" x="0.32" y="54.75" width="37.99" height="4.37"/></clipPath><clipPath id="clip-path-3"><rect class="cls-1" x="0.64" y="54.79" width="37.34" height="4.29"/></clipPath><clipPath id="clip-path-4"><rect class="cls-1" x="0.97" y="54.82" width="36.69" height="4.22"/></clipPath><clipPath id="clip-path-5"><rect class="cls-1" x="1.29" y="54.86" width="36.04" height="4.14"/></clipPath><clipPath id="clip-path-6"><rect class="cls-1" x="1.61" y="54.9" width="35.39" height="4.07"/></clipPath><clipPath id="clip-path-7"><rect class="cls-1" x="1.94" y="54.93" width="34.73" height="3.99"/></clipPath><clipPath id="clip-path-8"><rect class="cls-1" x="2.26" y="54.97" width="34.08" height="3.92"/></clipPath><clipPath id="clip-path-9"><rect class="cls-1" x="2.58" y="55.01" width="33.43" height="3.84"/></clipPath><clipPath id="clip-path-10"><rect class="cls-1" x="2.9" y="55.05" width="32.78" height="3.77"/></clipPath><clipPath id="clip-path-11"><rect class="cls-1" x="3.23" y="55.09" width="32.13" height="3.69"/></clipPath><clipPath id="clip-path-12"><rect class="cls-1" x="3.55" y="55.12" width="31.48" height="3.62"/></clipPath><clipPath id="clip-path-13"><rect class="cls-1" x="3.87" y="55.16" width="30.83" height="3.54"/></clipPath><clipPath id="clip-path-14"><rect class="cls-1" x="4.19" y="55.19" width="30.18" height="3.47"/></clipPath><clipPath id="clip-path-15"><rect class="cls-1" x="4.51" y="55.23" width="29.53" height="3.39"/></clipPath><clipPath id="clip-path-16"><rect class="cls-1" x="4.84" y="55.27" width="28.87" height="3.32"/></clipPath><clipPath id="clip-path-17"><rect class="cls-1" x="5.16" y="55.31" width="28.22" height="3.25"/></clipPath><clipPath id="clip-path-18"><rect class="cls-1" x="5.48" y="55.34" width="27.57" height="3.17"/></clipPath><clipPath id="clip-path-19"><rect class="cls-1" x="5.81" y="55.38" width="26.92" height="3.09"/></clipPath><clipPath id="clip-path-20"><rect class="cls-1" x="6.13" y="55.42" width="26.27" height="3.02"/></clipPath><clipPath id="clip-path-21"><rect class="cls-1" x="6.45" y="55.46" width="25.62" height="2.94"/></clipPath><clipPath id="clip-path-22"><rect class="cls-1" x="6.77" y="55.49" width="24.97" height="2.87"/></clipPath><clipPath id="clip-path-23"><rect class="cls-1" x="7.1" y="55.53" width="24.32" height="2.79"/></clipPath><clipPath id="clip-path-24"><rect class="cls-1" x="7.42" y="55.57" width="23.66" height="2.72"/></clipPath><clipPath id="clip-path-25"><rect class="cls-1" x="7.74" y="55.61" width="23.01" height="2.64"/></clipPath><clipPath id="clip-path-26"><rect class="cls-1" x="8.07" y="55.65" width="22.36" height="2.57"/></clipPath><clipPath id="clip-path-27"><rect class="cls-1" x="8.39" y="55.68" width="21.7" height="2.49"/></clipPath><clipPath id="clip-path-28"><rect class="cls-1" x="8.71" y="55.72" width="21.06" height="2.42"/></clipPath><clipPath id="clip-path-29"><rect class="cls-1" x="9.04" y="55.76" width="20.41" height="2.34"/></clipPath><clipPath id="clip-path-30"><rect class="cls-1" x="9.36" y="55.79" width="19.75" height="2.27"/></clipPath><clipPath id="clip-path-31"><rect class="cls-1" x="9.68" y="55.83" width="19.1" height="2.19"/></clipPath><clipPath id="clip-path-32"><rect class="cls-1" x="10" y="55.87" width="18.45" height="2.12"/></clipPath><clipPath id="clip-path-33"><rect class="cls-1" x="10.33" y="55.91" width="17.8" height="2.04"/></clipPath><clipPath id="clip-path-34"><rect class="cls-1" x="10.65" y="55.94" width="17.15" height="1.97"/></clipPath><clipPath id="clip-path-35"><rect class="cls-1" x="10.97" y="55.98" width="16.5" height="1.9"/></clipPath><clipPath id="clip-path-36"><rect class="cls-1" x="11.3" y="56.02" width="15.84" height="1.82"/></clipPath><clipPath id="clip-path-37"><rect class="cls-1" x="11.62" y="56.06" width="15.19" height="1.75"/></clipPath><clipPath id="clip-path-38"><rect class="cls-1" x="11.94" y="56.1" width="14.54" height="1.67"/></clipPath><clipPath id="clip-path-39"><rect class="cls-1" x="12.26" y="56.13" width="13.89" height="1.6"/></clipPath><clipPath id="clip-path-40"><rect class="cls-1" x="12.58" y="56.17" width="13.24" height="1.52"/></clipPath><clipPath id="clip-path-41"><rect class="cls-1" x="12.91" y="56.21" width="12.59" height="1.44"/></clipPath><clipPath id="clip-path-42"><rect class="cls-1" x="13.23" y="56.25" width="11.94" height="1.37"/></clipPath><clipPath id="clip-path-43"><rect class="cls-1" x="13.55" y="56.28" width="11.29" height="1.3"/></clipPath><clipPath id="clip-path-44"><rect class="cls-1" x="13.87" y="56.32" width="10.63" height="1.23"/></clipPath><clipPath id="clip-path-45"><rect class="cls-1" x="14.19" y="56.36" width="9.99" height="1.14"/></clipPath><clipPath id="clip-path-46"><rect class="cls-1" x="14.52" y="56.39" width="9.33" height="1.07"/></clipPath><clipPath id="clip-path-47"><rect class="cls-1" x="14.84" y="56.43" width="8.68" height="1"/></clipPath><clipPath id="clip-path-48"><rect class="cls-1" x="15.16" y="56.47" width="8.03" height="0.93"/></clipPath><clipPath id="clip-path-49"><rect class="cls-1" x="15.49" y="56.5" width="7.38" height="0.85"/></clipPath><clipPath id="clip-path-50"><rect class="cls-1" x="15.81" y="56.54" width="6.73" height="0.77"/></clipPath><clipPath id="clip-path-51"><rect class="cls-1" x="16.13" y="56.58" width="6.07" height="0.7"/></clipPath><clipPath id="clip-path-52"><rect class="cls-1" x="16.46" y="56.62" width="5.42" height="0.62"/></clipPath><linearGradient id="linear-gradient" x1="0.74" y1="29.52" x2="23.16" y2="29.52" gradientUnits="userSpaceOnUse"><stop offset="0" stop-color="#8fb443"/><stop offset="0.02" stop-color="#8ab042"/><stop offset="0.04" stop-color="#7da640"/><stop offset="0.07" stop-color="#67943c"/><stop offset="0.09" stop-color="#487b36"/><stop offset="0.11" stop-color="#215c2f"/><stop offset="0.12" stop-color="#1c582e"/><stop offset="0.82" stop-color="#b0c548"/></linearGradient><linearGradient id="linear-gradient-2" x1="0.52" y1="13.87" x2="30.92" y2="13.87" gradientUnits="userSpaceOnUse"><stop offset="0" stop-color="#4d74ae"/><stop offset="0.29" stop-color="#4d74ae"/><stop offset="0.82" stop-color="#29589e"/></linearGradient><linearGradient id="linear-gradient-3" x1="0.79" y1="32.13" x2="40.34" y2="32.13" gradientUnits="userSpaceOnUse"><stop offset="0" stop-color="#8fb443"/><stop offset="0.19" stop-color="#94b644"/><stop offset="0.4" stop-color="#a1bd46"/><stop offset="0.56" stop-color="#b0c548"/><stop offset="1" stop-color="#1c582e"/></linearGradient><linearGradient id="linear-gradient-4" x1="11.15" y1="43.68" x2="38.4" y2="43.68" gradientUnits="userSpaceOnUse"><stop offset="0" stop-color="#4d74ae"/><stop offset="0.29" stop-color="#4d74ae"/><stop offset="0.82" stop-color="#0a3c6f"/></linearGradient></defs><title>Logocolor</title><g class="cls-2"><g id="Capa_1" data-name="Capa 1"><path class="cls-3" d="M62.06,59.81l-1.32-3H53.55l-1.3,3h-1l5.4-12.35h1l5.4,12.35Zm-1.68-3.92-3.23-7.51-3.23,7.51Z"/><path class="cls-3" d="M74.93,48.84l-4.61,7.23H70l-4.64-7.23v11h-.93V47.46h1.1l4.61,7.2,4.55-7.2h1.14V59.81h-.91Z"/><path class="cls-3" d="M79.41,53.16h7V54h-7v4.87H87v.92H78.49V47.46H86.8v.9H79.41Z"/><path class="cls-3" d="M98.67,59.81H97.45l-4.17-4.68H90v4.68h-.93V47.46h5.3a3.76,3.76,0,0,1,3.95,3.85,3.59,3.59,0,0,1-3.9,3.77ZM90,54.24h4.26a2.73,2.73,0,0,0,3-3,2.82,2.82,0,0,0-2.94-2.95H90Z"/><path class="cls-3" d="M100.24,59.81V47.46h.91V59.81Z"/><path class="cls-3" d="M113.74,58.1A6.16,6.16,0,0,1,109.35,60a5.91,5.91,0,0,1-6.19-6.24c0-3.3,2.06-6.39,6.19-6.39a6.16,6.16,0,0,1,4.39,1.85l-.64.57a5.19,5.19,0,0,0-3.75-1.57c-3.51,0-5.32,2.54-5.3,5.5s1.82,5.4,5.3,5.4a5.29,5.29,0,0,0,3.76-1.57Z"/><path class="cls-3" d="M125,59.81l-1.33-3h-7.18l-1.31,3h-1l5.4-12.35h1l5.39,12.35Zm-1.69-3.92L120,48.38l-3.23,7.51Z"/><path class="cls-3" d="M135.11,49.84a3.83,3.83,0,0,0-3.64-1.67c-1.41,0-3.65.53-3.65,2.5,0,1.57,1.65,1.94,3.68,2.33,2.33.46,4.73.88,4.73,3.54S133.48,60,131.47,60a5.38,5.38,0,0,1-4.94-2.68l.83-.42a4.68,4.68,0,0,0,4.11,2.24c1.48,0,3.83-.43,3.83-2.61,0-1.86-2-2.26-4-2.65-2.19-.44-4.44-.9-4.44-3.17-.06-2.61,2.59-3.42,4.57-3.42a4.59,4.59,0,0,1,4.4,2.09Z"/><path class="cls-4" d="M68.25,44.59h-17V6.93h7.34V17.08H68a10.23,10.23,0,0,1,7.3,3,14,14,0,0,1,3.93,8.22,15.06,15.06,0,0,1,.2,2.61v.68a3.51,3.51,0,0,0-.1.68,15.12,15.12,0,0,1-3.75,9A9.78,9.78,0,0,1,68.25,44.59Zm-3-21.45H58.61V38.57h7q3.93,0,5.56-4.6a10.84,10.84,0,0,0,.61-3.45,7.67,7.67,0,0,0-1.89-5.24A5.9,5.9,0,0,0,65.29,23.14Z"/><path class="cls-5" d="M82.68,14.46V6.93H90v7.53Zm0,30.13V17.08H90V44.59Z"/><path class="cls-5" d="M102.88,44.59a6.73,6.73,0,0,1-5.38-2.28q-2-2.27-2-6.56v-13H91.15V17.08h4.39V6.93h7.34V17.08h7v5.64h-7V35.37a2.84,2.84,0,0,0,.89,2.15,4.78,4.78,0,0,0,2.78,1h3.32v6Z"/><path class="cls-4" d="M135.62,41.08a8.29,8.29,0,0,1-2.83,2.57,7.43,7.43,0,0,1-3.59.94h-18V39.72H126.9a4.23,4.23,0,0,0,1.68-.74,2.92,2.92,0,0,0,1.07-2.34,3.09,3.09,0,0,0-1.22-2.6,5.69,5.69,0,0,0-1.38-.59,6.5,6.5,0,0,0-1.94-.27h-7.54a6.34,6.34,0,0,1-4.44-1.93,7.78,7.78,0,0,1-1.32-1.68,7.88,7.88,0,0,1-1.28-4.39,8.23,8.23,0,0,1,2.12-5.83A7,7,0,0,1,118,17.08h17.23v5.17H119.91a1.75,1.75,0,0,0-1.17.52A3.19,3.19,0,0,0,118,24a3.71,3.71,0,0,0-.23,1.18,3,3,0,0,0,.41,1.46,2.68,2.68,0,0,0,2.5,1.47h8.16a8,8,0,0,1,3.92.89,7.7,7.7,0,0,1,4.19,6,2.68,2.68,0,0,1,.1.76v.76A8.1,8.1,0,0,1,135.62,41.08Z"/><g class="cls-6"><g class="cls-7"><g class="cls-8"><path class="cls-9" d="M38.64,56.93c0,1.23-8.65,2.22-19.32,2.22S0,58.16,0,56.93s8.65-2.22,19.32-2.22,19.32,1,19.32,2.22"/></g></g><g class="cls-10"><g class="cls-11"><path class="cls-9" d="M38.32,56.93c0,1.2-8.51,2.18-19,2.18s-19-1-19-2.18,8.51-2.18,19-2.18,19,1,19,2.18"/></g></g><g class="cls-12"><g class="cls-13"><path class="cls-9" d="M38,56.93c0,1.19-8.36,2.15-18.67,2.15S.64,58.12.64,56.93,9,54.79,19.32,54.79,38,55.74,38,56.93"/></g></g><g class="cls-14"><g class="cls-15"><path class="cls-9" d="M37.66,56.93c0,1.17-8.22,2.11-18.34,2.11S1,58.1,1,56.93s8.21-2.11,18.35-2.11,18.34,1,18.34,2.11"/></g></g><g class="cls-16"><g class="cls-17"><path class="cls-9" d="M37.33,56.93c0,1.14-8.07,2.07-18,2.07s-18-.93-18-2.07,8.07-2.07,18-2.07,18,.93,18,2.07"/></g></g><g class="cls-18"><g class="cls-19"><path class="cls-9" d="M37,56.93c0,1.12-7.92,2-17.69,2s-17.7-.91-17.7-2,7.92-2,17.7-2,17.69.91,17.69,2"/></g></g><g class="cls-20"><g class="cls-21"><path class="cls-9" d="M36.67,56.93c0,1.1-7.78,2-17.37,2s-17.36-.9-17.36-2,7.77-2,17.36-2,17.37.9,17.37,2"/></g></g><g class="cls-22"><g class="cls-23"><path class="cls-9" d="M36.34,56.93c0,1.08-7.63,2-17,2s-17-.88-17-2,7.63-2,17-2,17,.88,17,2"/></g></g><g class="cls-24"><g class="cls-25"><path class="cls-9" d="M36,56.93c0,1.06-7.49,1.92-16.72,1.92S2.58,58,2.58,56.93,10.07,55,19.3,55,36,55.87,36,56.93"/></g></g><g class="cls-26"><g class="cls-27"><path class="cls-9" d="M35.69,56.93c0,1-7.34,1.88-16.4,1.88S2.9,58,2.9,56.93s7.34-1.88,16.39-1.88,16.4.84,16.4,1.88"/></g></g><g class="cls-28"><g class="cls-29"><path class="cls-9" d="M35.36,56.93c0,1-7.19,1.85-16.07,1.85S3.23,58,3.23,56.93s7.19-1.84,16.06-1.84,16.07.82,16.07,1.84"/></g></g><g class="cls-30"><g class="cls-31"><path class="cls-9" d="M35,56.93c0,1-7,1.81-15.74,1.81S3.55,57.93,3.55,56.93s7.05-1.81,15.74-1.81S35,55.93,35,56.93"/></g></g><g class="cls-32"><g class="cls-33"><path class="cls-9" d="M34.7,56.93c0,1-6.9,1.77-15.42,1.77S3.87,57.91,3.87,56.93s6.9-1.77,15.41-1.77S34.7,56,34.7,56.93"/></g></g><g class="cls-34"><g class="cls-35"><path class="cls-9" d="M34.37,56.93c0,1-6.75,1.73-15.09,1.73S4.19,57.89,4.19,56.93,11,55.19,19.28,55.19s15.09.78,15.09,1.74"/></g></g><g class="cls-36"><g class="cls-37"><path class="cls-9" d="M34,56.93c0,.94-6.61,1.7-14.76,1.7s-14.77-.76-14.77-1.7,6.62-1.7,14.77-1.7S34,56,34,56.93"/></g></g><g class="cls-38"><g class="cls-39"><path class="cls-9" d="M33.72,56.93c0,.92-6.47,1.66-14.44,1.66S4.84,57.85,4.84,56.93s6.46-1.66,14.44-1.66,14.44.74,14.44,1.66"/></g></g><g class="cls-40"><g class="cls-41"><path class="cls-9" d="M33.39,56.93c0,.89-6.32,1.62-14.12,1.62S5.16,57.82,5.16,56.93s6.32-1.62,14.11-1.62,14.12.72,14.12,1.62"/></g></g><g class="cls-42"><g class="cls-43"><path class="cls-9" d="M33.06,56.93c0,.87-6.17,1.58-13.79,1.58S5.48,57.8,5.48,56.93s6.18-1.59,13.79-1.59,13.79.72,13.79,1.59"/></g></g><g class="cls-44"><g class="cls-45"><path class="cls-9" d="M32.73,56.93c0,.85-6,1.55-13.46,1.55s-13.46-.7-13.46-1.55,6-1.55,13.46-1.55,13.46.69,13.46,1.55"/></g></g><g class="cls-46"><g class="cls-47"><path class="cls-9" d="M32.4,56.93c0,.84-5.88,1.51-13.14,1.51S6.13,57.77,6.13,56.93,12,55.42,19.26,55.42s13.14.68,13.14,1.51"/></g></g><g class="cls-48"><g class="cls-49"><path class="cls-9" d="M32.07,56.93c0,.81-5.74,1.47-12.81,1.47S6.45,57.74,6.45,56.93s5.74-1.47,12.81-1.47,12.81.66,12.81,1.47"/></g></g><g class="cls-50"><g class="cls-51"><path class="cls-9" d="M31.74,56.93c0,.79-5.59,1.44-12.48,1.44S6.77,57.72,6.77,56.93s5.59-1.44,12.49-1.44,12.48.65,12.48,1.44"/></g></g><g class="cls-52"><g class="cls-53"><path class="cls-9" d="M31.41,56.93c0,.77-5.44,1.4-12.16,1.4S7.1,57.7,7.1,56.93s5.44-1.4,12.15-1.4,12.16.63,12.16,1.4"/></g></g><g class="cls-54"><g class="cls-55"><path class="cls-9" d="M31.08,56.93c0,.75-5.29,1.36-11.83,1.36S7.42,57.68,7.42,56.93s5.3-1.36,11.83-1.36,11.83.61,11.83,1.36"/></g></g><g class="cls-56"><g class="cls-57"><path class="cls-9" d="M30.76,56.93c0,.73-5.16,1.32-11.51,1.32S7.74,57.66,7.74,56.93s5.16-1.32,11.51-1.32,11.51.59,11.51,1.32"/></g></g><g class="cls-58"><g class="cls-59"><path class="cls-9" d="M30.43,56.93c0,.71-5,1.28-11.18,1.28S8.07,57.64,8.07,56.93s5-1.28,11.18-1.28,11.18.57,11.18,1.28"/></g></g><g class="cls-60"><g class="cls-61"><path class="cls-9" d="M30.1,56.93c0,.69-4.86,1.25-10.86,1.25S8.39,57.62,8.39,56.93s4.86-1.25,10.85-1.25,10.86.56,10.86,1.25"/></g></g><g class="cls-62"><g class="cls-63"><path class="cls-9" d="M29.77,56.93c0,.67-4.72,1.21-10.53,1.21S8.71,57.6,8.71,56.93s4.71-1.21,10.53-1.21,10.53.54,10.53,1.21"/></g></g><g class="cls-64"><g class="cls-65"><path class="cls-9" d="M29.44,56.93c0,.65-4.57,1.17-10.2,1.17S9,57.58,9,56.93s4.56-1.17,10.2-1.17,10.2.52,10.2,1.17"/></g></g><g class="cls-66"><g class="cls-67"><path class="cls-9" d="M29.11,56.93c0,.63-4.42,1.14-9.88,1.14s-9.87-.51-9.87-1.14,4.42-1.14,9.87-1.14,9.88.51,9.88,1.14"/></g></g><g class="cls-68"><g class="cls-69"><path class="cls-9" d="M28.78,56.93c0,.61-4.27,1.1-9.55,1.1s-9.55-.49-9.55-1.1,4.27-1.1,9.55-1.1,9.55.49,9.55,1.1"/></g></g><g class="cls-70"><g class="cls-71"><path class="cls-9" d="M28.45,56.93c0,.58-4.13,1.06-9.22,1.06S10,57.51,10,56.93s4.13-1.06,9.23-1.06,9.22.48,9.22,1.06"/></g></g><g class="cls-72"><g class="cls-73"><path class="cls-9" d="M28.13,56.93c0,.57-4,1-8.9,1s-8.9-.45-8.9-1,4-1,8.9-1,8.9.45,8.9,1"/></g></g><g class="cls-74"><g class="cls-75"><path class="cls-9" d="M27.8,56.93c0,.55-3.84,1-8.58,1s-8.57-.44-8.57-1,3.84-1,8.57-1,8.58.45,8.58,1"/></g></g><g class="cls-76"><g class="cls-77"><path class="cls-9" d="M27.47,56.93c0,.52-3.69,1-8.25,1s-8.25-.43-8.25-1,3.69-1,8.25-1,8.25.43,8.25,1"/></g></g><g class="cls-78"><g class="cls-79"><path class="cls-9" d="M27.14,56.93c0,.5-3.55.91-7.92.91s-7.92-.41-7.92-.91S14.84,56,19.22,56s7.92.41,7.92.91"/></g></g><g class="cls-80"><g class="cls-81"><path class="cls-9" d="M26.81,56.93c0,.48-3.4.87-7.6.87s-7.59-.39-7.59-.87,3.4-.87,7.59-.87,7.6.39,7.6.87"/></g></g><g class="cls-82"><g class="cls-83"><path class="cls-9" d="M26.48,56.93c0,.46-3.25.84-7.27.84s-7.27-.38-7.27-.84,3.25-.83,7.27-.83,7.27.37,7.27.83"/></g></g><g class="cls-84"><g class="cls-85"><path class="cls-9" d="M26.15,56.93c0,.44-3.11.8-6.94.8s-7-.36-7-.8,3.11-.8,7-.8,6.94.36,6.94.8"/></g></g><g class="cls-86"><g class="cls-87"><path class="cls-9" d="M25.82,56.93c0,.42-3,.76-6.62.76s-6.62-.34-6.62-.76,3-.76,6.62-.76,6.62.34,6.62.76"/></g></g><g class="cls-88"><g class="cls-89"><path class="cls-9" d="M25.5,56.93c0,.4-2.82.72-6.3.72s-6.29-.32-6.29-.72,2.82-.72,6.29-.72,6.3.32,6.3.72"/></g></g><g class="cls-90"><g class="cls-91"><path class="cls-9" d="M25.17,56.93c0,.38-2.67.69-6,.69s-6-.31-6-.69,2.67-.68,6-.68,6,.3,6,.68"/></g></g><g class="cls-92"><g class="cls-93"><path class="cls-9" d="M24.84,56.93c0,.36-2.53.65-5.64.65s-5.65-.29-5.65-.65,2.53-.65,5.65-.65,5.64.29,5.64.65"/></g></g><g class="cls-94"><g class="cls-95"><path class="cls-9" d="M24.51,56.93c0,.34-2.38.61-5.32.61s-5.32-.27-5.32-.61,2.39-.61,5.32-.61,5.32.27,5.32.61"/></g></g><g class="cls-96"><g class="cls-97"><path class="cls-9" d="M24.18,56.93c0,.32-2.23.57-5,.57s-5-.25-5-.57,2.24-.57,5-.57,5,.25,5,.57"/></g></g><g class="cls-98"><g class="cls-99"><path class="cls-9" d="M23.85,56.93c0,.3-2.09.54-4.66.54s-4.67-.24-4.67-.54,2.09-.54,4.67-.54,4.66.25,4.66.54"/></g></g><g class="cls-100"><g class="cls-101"><path class="cls-9" d="M23.52,56.93c0,.28-1.94.5-4.34.5s-4.34-.22-4.34-.5,1.94-.5,4.34-.5,4.34.22,4.34.5"/></g></g><g class="cls-102"><g class="cls-103"><path class="cls-9" d="M23.19,56.93c0,.25-1.79.46-4,.46s-4-.21-4-.46,1.8-.46,4-.46,4,.21,4,.46"/></g></g><g class="cls-104"><g class="cls-105"><path class="cls-9" d="M22.87,56.93c0,.23-1.66.42-3.7.42s-3.68-.19-3.68-.42,1.65-.43,3.68-.43,3.7.2,3.7.43"/></g></g><g class="cls-106"><g class="cls-107"><path class="cls-9" d="M22.54,56.93c0,.21-1.51.39-3.37.39s-3.36-.18-3.36-.39,1.51-.39,3.36-.39,3.37.18,3.37.39"/></g></g><g class="cls-108"><g class="cls-109"><path class="cls-9" d="M22.21,56.93c0,.19-1.36.35-3,.35s-3-.16-3-.35,1.36-.35,3-.35,3,.16,3,.35"/></g></g><g class="cls-110"><path class="cls-9" d="M21.88,56.93a6.24,6.24,0,0,1-2.71.31,6.2,6.2,0,0,1-2.71-.31,6.2,6.2,0,0,1,2.71-.31,6.24,6.24,0,0,1,2.71.31"/></g></g><path class="cls-111" d="M7.83,36.29a84.76,84.76,0,0,1,7.86-5.39c2.17-1.06,9.08-3.52,7.12-8.11S-.38,26.63.79,33.47,7.41,36.62,7.83,36.29Z"/><path class="cls-112" d="M7.86,16.22s1.62,2.65,6.33.35C26,10.81,22.58,3.09,20.67,0,26,4.81,32,11,30.76,15.48c0,0-1.44,9.15-25,12.14C-6.56,29.17,6.58,15.88,7.86,16.22Z"/><path class="cls-113" d="M36.55,19.37s-2.3,12.76-18.79,16C6,37.7.79,33.47.79,33.47S2.13,44.86,11.35,44.89c12.37,0,25-6.89,28.19-14.41C42.43,23.64,36.55,19.37,36.55,19.37Z"/><path class="cls-114" d="M11.15,48.31S28.21,51.76,38.4,37.2C38.4,37.2,31.69,56,11.15,48.31Z"/><path class="cls-115" d="M20.45,12.34s5.36-3.6,4-8A6,6,0,0,0,20.65.46S25.47,4.68,20.45,12.34Z"/></g></g></svg>