<?xml version="1.0" encoding="utf-8"?>
<!-- Generator: Adobe Illustrator 22.1.0, SVG Export Plug-In . SVG Version: 6.00 Build 0)  -->
<svg version="1.1" id="Layer_1" xmlns="http://www.w3.org/2000/svg" xmlns:xlink="http://www.w3.org/1999/xlink" x="0px" y="0px"
	 viewBox="0 0 77.2 81" style="enable-background:new 0 0 77.2 81;" xml:space="preserve">
<style type="text/css">
	.st0{fill:#7495CA;}
	.st1{fill:#A6CF24;}
</style>
<g>
	<g>
		<path class="st0" d="M70.7,18l-1.2,0.4L63.4,19l-1.7,2.9l-1.3-0.4l-4.9-4.6l-0.7-2.4l-1-2.6l-3.1-2.9l-3.6-0.7L47,9.9l3.6,3.6
			l1.7,2.2l-2,1.1l-1.6-0.5l-2.4-1l0.1-2l-3.1-1.4l-1,4.8l-3.2,0.8l0.3,2.7l4.1,0.8l0.7-4.2l3.4,0.5l1.6,1h2.5l1.7,3.6l4.6,4.9
			l-0.3,1.9l-3.7-0.5l-6.4,3.4L43,37.3l-0.6,2.6h-1.7l-3.1-1.5l-3,1.5l0.7,3.3l1.3-1.6l2.3-0.1l-0.2,3l1.9,0.6l1.9,2.2l3.1-0.9
			l3.5,0.6l4.1,1.2l2,0.3l3.5,4.1l6.7,4.1l-4.3,8.7l-4.6,2.2l-1.7,5l-6.6,4.7L47.7,80c16.9-4.3,29.5-20.3,29.5-39.4
			C77.2,32.2,74.8,24.5,70.7,18z"/>
		<path class="st0" d="M43,61.7l-2.8-5.4c0,0,0,0,0-0.1l2.5-5.5c0,0,0-0.1,0-0.1l-2.5-0.8c0,0,0,0,0,0l-2.9-3c0,0,0,0,0,0L31,45.2
			c0,0,0,0-0.1,0l-2-4.3c0-0.1-0.2-0.1-0.2,0v2.3c0,0,0,0.1-0.1,0.1h-0.8c0,0-0.1,0-0.1,0L22,34.9c0,0-0.1,0-0.1,0l-1.9,2.5l-1.6,2
			c0,0,0,0,0,0l-1.7,1.9c0,0,0,0,0,0l-0.7,0.6c0,0,0,0,0,0l-1,0.4c0,0,0,0-0.1,0L14,42c0,0,0,0,0,0l-0.8-0.5c0,0,0,0,0,0l-0.9-0.8
			c0,0,0,0,0,0l-0.6-0.8l-1.4-1.6c0,0,0,0,0,0l-2.9-3.8c0,0,0,0,0,0L5,30.9c0,0,0,0,0,0l-1.2-2.1l-1.2-2.2c0-0.1-0.1-0.1-0.1,0
			C0.5,32.1,0.1,32.9,0,40.5C-0.2,62.9,17.3,81,38.6,81c1.6,0,3.2-0.1,4.8-0.3c0,0,0.1,0,0.1-0.1L43,75.8c0,0,0,0,0,0
			c0.1-0.3,1.8-7.3,1.8-7.5C44.8,68,43.1,61.9,43,61.7C43,61.7,43,61.7,43,61.7z"/>
		<path class="st0" d="M26.7,3.2l1.2,1.3L28.7,6l0.8,1.4c0.1,0.1,0.4,1,0.5,1.1c0.2,0.3,0.4,1,0.4,1.4l0.3,1.4l2.8-0.2l1.9-3.2
			l2.8,0.5l6.9-0.7l1.9-2.2l2.7-1.9l3.8,0.6L55,3.9C50,1.4,44.5,0,38.6,0c-4.6,0-9.1,0.9-13.1,2.4C25.5,2.4,26,2.3,26.7,3.2z
			 M40.2,4l3.9-2.3l2.5,1.5L43,6.2l-3.5,0.4L38,5.5L40.2,4z"/>
	</g>
</g>
<g>
	<g>
		<path class="st1" d="M14.7,0C6.6,0,0,6.6,0,14.7c0,10,13.1,24.8,13.7,25.4c0.5,0.6,1.4,0.6,2,0c0.6-0.6,13.7-15.4,13.7-25.4
			C29.3,6.6,22.8,0,14.7,0z M14.7,22c-4.1,0-7.4-3.3-7.4-7.4s3.3-7.4,7.4-7.4s7.4,3.3,7.4,7.4S18.7,22,14.7,22z"/>
	</g>
</g>
</svg>
