<svg xmlns="http://www.w3.org/2000/svg" viewBox="0 0 40 36"><defs><style>.cls-1{fill:#a9b6bb;}.cls-2{fill:#33556d;}</style></defs><title>template1E-IT</title><g id="Capa_2" data-name="Capa 2"><g id="Capa_1-2" data-name="Capa 1"><rect class="cls-1" x="11.33" y="32" width="1.33" height="1.33"/><rect class="cls-1" x="14" y="32" width="1.33" height="1.33"/><rect class="cls-1" x="11.33" y="24" width="1.33" height="1.33"/><rect class="cls-1" x="14" y="24" width="1.33" height="1.33"/><path class="cls-1" d="M31.33,8a8.89,8.89,0,0,0-1.15.08A11.33,11.33,0,0,0,8,10.7l-.69,0a7.33,7.33,0,1,0,.09,14.66h.46V24H7.41a6,6,0,1,1-.08-12,6.13,6.13,0,0,1,1.21.12A.67.67,0,0,0,9.1,12a.69.69,0,0,0,.24-.52s0-.11,0-.13A10,10,0,0,1,29,9a.68.68,0,0,0,.79.5,7.34,7.34,0,1,1,3,14.36l-.45.06v1.34A8.66,8.66,0,0,0,31.33,8Z"/><path class="cls-2" d="M33.89,14a2,2,0,0,0-3.77,0H23.33a.66.66,0,0,0-.66.67v5.85H24v-5.2h6.12A2,2,0,0,0,33.89,14ZM32,15.31a.67.67,0,1,1,.66-.67A.67.67,0,0,1,32,15.31Z"/><path class="cls-2" d="M19.33,20.51V8.67h2.79a2,2,0,1,0,0-1.34H18.67A.67.67,0,0,0,18,8V20.51ZM24,7.31a.67.67,0,0,1,.66.67.67.67,0,0,1-1.33,0A.67.67,0,0,1,24,7.31Z"/><path class="cls-2" d="M30.67,29.33H29.33V28h1.34a.66.66,0,0,0,.63-.49c0-1.62,0-4,0-5.7a.65.65,0,0,0-.62-.48H24c-2.75,0-8,0-10.67,0h-4a.67.67,0,0,0-.56.33c0,1.84,0,4.37,0,6a.64.64,0,0,0,.56.34h1.34v1.33H9.33a.66.66,0,0,0-.66.67v5.33a.66.66,0,0,0,.66.67H30.67a.67.67,0,0,0,.66-.67V30A.67.67,0,0,0,30.67,29.33ZM10,26.67v-4H30v4ZM28,28v1.33H12V28Zm2,6.67H10v-4H30Z"/><path class="cls-2" d="M10.54,17.33h2.79v3.2h1.34V16.67A.67.67,0,0,0,14,16H10.54a2,2,0,1,0,0,1.33Zm-1.88,0a.67.67,0,1,1,.67-.67A.67.67,0,0,1,8.66,17.31Z"/></g></g></svg>