<svg xmlns="http://www.w3.org/2000/svg" viewBox="0 0 39 37.7"><defs><style>.cls-1{fill:#33556d;}.cls-2{fill:#a9b6bb;}</style></defs><title>template2-module</title><g id="Capa_2" data-name="Capa 2"><g id="Capa_1-2" data-name="Capa 1"><polygon class="cls-1" points="10.65 25.18 9.74 25.71 9.74 35.25 17.99 30.48 17.99 20.95 10.65 25.18"/><polygon class="cls-1" points="12.16 16.61 8.98 14.77 0.47 19.67 3.66 21.52 12.16 16.61"/><polygon class="cls-1" points="17.47 19.67 13.81 17.59 5.31 22.49 5.79 22.75 8.98 24.58 12.14 22.76 17.47 19.67"/><polygon class="cls-1" points="4.68 26.01 3.15 25.22 3.15 22.79 0 20.98 0 30.46 8.25 35.23 8.25 25.73 4.68 23.67 4.68 26.01"/><polygon class="cls-1" points="33.7 25.05 33.04 25.43 33.04 32.31 39 28.87 39 21.99 33.7 25.05"/><polygon class="cls-1" points="34.79 18.85 32.49 17.52 26.35 21.07 28.65 22.4 34.79 18.85"/><polygon class="cls-1" points="38.63 21.07 35.98 19.56 29.84 23.1 30.2 23.29 32.49 24.61 34.78 23.29 38.63 21.07"/><polygon class="cls-1" points="29.39 25.64 28.28 25.07 28.28 23.32 26.01 22.01 26.01 28.86 31.97 32.3 31.97 25.44 29.39 23.96 29.39 25.64"/><polygon class="cls-1" points="22.32 8.07 21.61 8.48 21.61 15.86 28 12.17 28 4.79 22.32 8.07"/><polygon class="cls-1" points="23.48 1.43 21.02 0 14.44 3.8 16.9 5.23 23.48 1.43"/><polygon class="cls-1" points="27.6 3.8 24.76 2.18 18.18 5.99 18.56 6.18 21.02 7.6 23.47 6.19 27.6 3.8"/><polygon class="cls-1" points="17.69 8.71 16.5 8.1 16.5 6.22 14.07 4.81 14.07 12.15 20.46 15.85 20.46 8.49 17.69 6.9 17.69 8.71"/><path class="cls-2" d="M28.38,31.1l-8.51,4.78L15,33a5.4,5.4,0,0,1-1.65,1l6.08,3.61a.82.82,0,0,0,.83,0l9.77-5.48A5.48,5.48,0,0,1,28.38,31.1Z"/><path class="cls-2" d="M6,15.29l.05-4,7-3.92A7.24,7.24,0,0,1,13,5.57L4.86,10.11a.77.77,0,0,0-.44.68l-.07,5.46A5.61,5.61,0,0,1,6,15.29Z"/><path class="cls-2" d="M34.24,17.16a5.83,5.83,0,0,1,1.65.84L36,11.15a.83.83,0,0,0-.41-.72l-6.77-4a7,7,0,0,1-.18,1.82l5.69,3.37Z"/></g></g></svg>