<svg xmlns="http://www.w3.org/2000/svg" viewBox="0 0 40 30.71"><defs><style>.cls-1{fill:#33556d;}.cls-2{fill:#a9b6bb;}</style></defs><title>template4-tech</title><g id="Capa_2" data-name="Capa 2"><g id="Capa_1-2" data-name="Capa 1"><path class="cls-1" d="M30.72,28.79H26.35a.29.29,0,0,1-.29-.29v-1a.29.29,0,0,0-.29-.29H19.68a.29.29,0,0,0-.29.29v1a.28.28,0,0,1-.28.29H15.84a.28.28,0,0,0-.28.28v1.25a.28.28,0,0,0,.28.29H30.72a.29.29,0,0,0,.29-.29V29.08A.29.29,0,0,0,30.72,28.79Z"/><path class="cls-1" d="M38,0H6.92A2,2,0,0,0,5,2V7.11c0,.67,0,.77.41.77h.8c.38,0,.3-.1.3-.79V2a.48.48,0,0,1,.48-.47H38.11a.48.48,0,0,1,.48.47V21.21H16.34s-.78,0-.78,1v2.33c0,1,.8,1,.8,1H38a2,2,0,0,0,2-2V2A2,2,0,0,0,38,0ZM22.51,23.9A.89.89,0,1,1,23.4,23,.89.89,0,0,1,22.51,23.9Z"/><path class="cls-2" d="M12.57,9.7H1.27A1.27,1.27,0,0,0,0,11V29.44a1.27,1.27,0,0,0,1.27,1.27h11.3a1.27,1.27,0,0,0,1.27-1.27V11A1.27,1.27,0,0,0,12.57,9.7ZM5.45,10.91H8.37a.25.25,0,0,1,.23.15.25.25,0,0,1-.23.35H5.45a.23.23,0,0,1-.23-.15A.25.25,0,0,1,5.45,10.91Zm1.44,18.9a.66.66,0,1,1,.66-.66A.65.65,0,0,1,6.89,29.81Zm5.84-1.94a.31.31,0,0,1-.3.31h-11a.31.31,0,0,1-.3-.31V12.53a.31.31,0,0,1,.3-.31h11a.31.31,0,0,1,.3.31Z"/><path class="cls-1" d="M16.78,8.8a3.57,3.57,0,0,0,.35.83l-.42.53a.43.43,0,0,0,0,.58l.73.73a.43.43,0,0,0,.58,0l.53-.41a4.34,4.34,0,0,0,.86.36l.08.68a.44.44,0,0,0,.43.39h1a.45.45,0,0,0,.44-.39l.07-.65a4.22,4.22,0,0,0,.93-.38l.51.41a.44.44,0,0,0,.58,0l.73-.72a.43.43,0,0,0,0-.58l-.4-.51a3.84,3.84,0,0,0,.39-.91l.61-.07a.44.44,0,0,0,.39-.44v-1a.44.44,0,0,0-.39-.43l-.61-.07a3.53,3.53,0,0,0-.36-.9l.37-.47a.44.44,0,0,0,0-.58L23.51,4a.43.43,0,0,0-.58,0l-.46.36a3.91,3.91,0,0,0-.94-.4l-.07-.59A.43.43,0,0,0,21,3H20a.43.43,0,0,0-.44.38L19.49,4a4,4,0,0,0-1,.42L18.05,4a.44.44,0,0,0-.58,0l-.73.73a.43.43,0,0,0,0,.58l.39.5a3.75,3.75,0,0,0-.36.91l-.63.07a.45.45,0,0,0-.39.44v1a.43.43,0,0,0,.39.43ZM20.51,6A1.71,1.71,0,1,1,18.8,7.72,1.71,1.71,0,0,1,20.51,6Z"/><path class="cls-2" d="M30.7,9.06l-.54-.46a.43.43,0,0,0-.58,0l-.3.28a3.12,3.12,0,0,0-.8-.26l-.08-.41a.45.45,0,0,0-.46-.35l-.71.06a.44.44,0,0,0-.4.42v.42a3.75,3.75,0,0,0-.77.4l-.36-.23a.42.42,0,0,0-.56.08l-.46.55a.43.43,0,0,0,0,.57l.32.33a3.09,3.09,0,0,0-.23.77l-.45.09a.43.43,0,0,0-.35.46l.06.71a.44.44,0,0,0,.42.4h.48a3.48,3.48,0,0,0,.35.66L25,14a.42.42,0,0,0,.08.57l.54.46a.43.43,0,0,0,.57,0l.36-.33a2.7,2.7,0,0,0,.73.23l.1.49a.44.44,0,0,0,.46.35l.71-.06a.42.42,0,0,0,.39-.42l0-.48a3,3,0,0,0,.73-.37l.39.26a.43.43,0,0,0,.57-.08l.46-.54a.44.44,0,0,0,0-.58l-.31-.33a3.47,3.47,0,0,0,.25-.77l.43-.09a.43.43,0,0,0,.34-.46l-.06-.71a.41.41,0,0,0-.41-.39l-.44,0a3.16,3.16,0,0,0-.36-.71l.24-.35A.43.43,0,0,0,30.7,9.06ZM28,13.16a1.4,1.4,0,1,1,1.27-1.51A1.4,1.4,0,0,1,28,13.16Z"/><path class="cls-1" d="M19.25,15.06a.44.44,0,0,0-.38.43v.44a.43.43,0,0,0,.38.43l.32,0a2.28,2.28,0,0,0,.23.56l-.21.25a.44.44,0,0,0,0,.58l.31.31a.43.43,0,0,0,.57,0l.26-.2a2.41,2.41,0,0,0,.57.25l0,.33a.42.42,0,0,0,.42.39h.44a.41.41,0,0,0,.43-.37l0-.32A2.22,2.22,0,0,0,23.3,18l.25.2a.42.42,0,0,0,.57,0l.31-.3a.43.43,0,0,0,0-.58L24.29,17a2.66,2.66,0,0,0,.26-.6l.29,0a.43.43,0,0,0,.38-.43v-.43a.44.44,0,0,0-.38-.44l-.28,0a2.28,2.28,0,0,0-.24-.61l.18-.21a.42.42,0,0,0,0-.57l-.3-.32a.45.45,0,0,0-.58,0l-.2.16a2.92,2.92,0,0,0-.63-.27l0-.27a.44.44,0,0,0-.43-.39h-.43a.44.44,0,0,0-.44.38l0,.26a2.48,2.48,0,0,0-.65.27l-.22-.18a.44.44,0,0,0-.57,0l-.31.31a.42.42,0,0,0,0,.57l.18.24a2.63,2.63,0,0,0-.25.6Zm2.83-.48a1.14,1.14,0,1,1-1.15,1.12A1.13,1.13,0,0,1,22.08,14.58Z"/></g></g></svg>