<svg id="Capa_1" data-name="Capa 1" xmlns="http://www.w3.org/2000/svg" viewBox="0 0 55 59.93"><defs><style>.cls-1{fill:#33556d;}.cls-2{fill:#a9b6bb;}</style></defs><title>template6-done</title><path class="cls-1" d="M41.13,22.79A6.14,6.14,0,1,0,35,16.65,6.14,6.14,0,0,0,41.13,22.79Z"/><path class="cls-1" d="M23.94,18.57l-.55.52a19.19,19.19,0,0,1-1.87,1.5l-4.77,3.24H9.53a2.4,2.4,0,0,0-2,1L4.39,28.69c-.5.63-1.3,1.67-1.78,2.33L.5,33.89a2.6,2.6,0,0,0,.56,3.63,2.57,2.57,0,0,0,1.53.5A2.6,2.6,0,0,0,4.69,37l1.89-2.57L6.16,39,2.52,56.31a2.74,2.74,0,0,0,2.11,3.24,2.73,2.73,0,0,0,3.24-2.11l3.41-16.19h.89l.49,5.46a22.63,22.63,0,0,1,.06,2.47l-.29,7.59a2.81,2.81,0,0,0,.73,2,2.77,2.77,0,0,0,1.91.87h.1A2.71,2.71,0,0,0,17.9,57l.29-7.59a30.24,30.24,0,0,0-.08-3.16l-.73-8.17a.15.15,0,0,0,0-.07l.79-8.85,6.28-4.26a24.28,24.28,0,0,0,2.51-2l.59-.56.6.56a24.28,24.28,0,0,0,2.51,2l5.82,4L37.29,38a.15.15,0,0,0,0,.07l-.73,8.17a27.73,27.73,0,0,0-.08,3.16l.29,7.9a2.72,2.72,0,0,0,2.73,2.64h.1a2.73,2.73,0,0,0,1.9-.87,2.7,2.7,0,0,0,.73-2l-.28-7.91A22.82,22.82,0,0,1,42,46.71l.49-5.46h.89l1.29,6.16c.17.79.46,2.05.64,2.83l1.76,7.28a2.73,2.73,0,0,0,2.66,2.09,2.79,2.79,0,0,0,.64-.07,2.75,2.75,0,0,0,2-3.31L50.63,49c-.18-.74-.45-1.94-.6-2.68L48.5,39,48,33.85a2.29,2.29,0,0,0,.17.23L50.31,37A2.62,2.62,0,0,0,52.41,38a2.6,2.6,0,0,0,2.09-4.13L52.39,31c-.48-.65-1.28-1.69-1.78-2.32L47.5,24.81a2.11,2.11,0,0,0-1.82-1H38.34l-4.77-3.24a19.31,19.31,0,0,1-1.88-1.5l-.54-.52Z"/><path class="cls-1" d="M13.53,22.79A6.14,6.14,0,1,0,7.4,16.65,6.14,6.14,0,0,0,13.53,22.79Z"/><path class="cls-2" d="M32.54,8.64a3.51,3.51,0,0,0,3.21-3.5c0-2.48-.69-3.52-2.36-3.55L33.79,0H21.22l.4,1.59c-1.68,0-2.37,1.06-2.37,3.55a3.52,3.52,0,0,0,3.21,3.51,3.54,3.54,0,0,0,1.23,1.64l2.2,1.47-.41,2.52H24a.78.78,0,0,0-.73.56l-.65,2.33a.5.5,0,0,0,.5.66h8.93a.5.5,0,0,0,.42-.2.49.49,0,0,0,.08-.46l-.65-2.33a.79.79,0,0,0-.74-.56H29.53l-.41-2.53,2.19-1.46A3.52,3.52,0,0,0,32.54,8.64ZM32.86,3l0-.06h.33c.6,0,1.07,0,1.07,2.17a2.13,2.13,0,0,1-1.45,2ZM22,7.16h0a2.13,2.13,0,0,1-1.45-2C20.57,3,21,3,21.64,3H22l0,0V7.16Zm7.9-2.33-1.14.83h0L29.22,7a.39.39,0,0,1,0,.37.35.35,0,0,1-.28.14.43.43,0,0,1-.26-.1L27.5,6.6l-1.14.82a.37.37,0,0,1-.54,0,.39.39,0,0,1,0-.37l.44-1.35h0l-1.13-.83a.39.39,0,0,1-.18-.43.4.4,0,0,1,.4-.24h1.41s0,0,0,0l.43-1.34a.37.37,0,0,1,.72,0l.43,1.35H29.7a.4.4,0,0,1,.4.24A.39.39,0,0,1,29.92,4.83Z"/><polygon class="cls-2" points="11.16 21.13 11.16 21.13 11.16 21.13 11.16 21.13"/><path class="cls-2" d="M20.18,31.8"/><path class="cls-1" d="M29.92,4.83l-1.14.83h0L29.22,7a.39.39,0,0,1,0,.37.35.35,0,0,1-.28.14.43.43,0,0,1-.26-.1L27.5,6.6l-1.14.82a.37.37,0,0,1-.54,0,.39.39,0,0,1,0-.37l.44-1.35h0l-1.13-.83a.39.39,0,0,1-.18-.43.4.4,0,0,1,.4-.24h1.41s0,0,0,0l.43-1.34a.37.37,0,0,1,.72,0l.43,1.35H29.7a.4.4,0,0,1,.4.24A.39.39,0,0,1,29.92,4.83Z"/></svg>