<svg xmlns="http://www.w3.org/2000/svg" viewBox="0 0 88 73.48"><defs><style>.cls-1{fill:#7495ca;}.cls-2{fill:#a6cf24;}</style></defs><title>whybits5-integrity</title><g id="Capa_2" data-name="Capa 2"><g id="Capa_1-2" data-name="Capa 1"><path class="cls-1" d="M52.32,52.48l4.81-7.39c.7-1.07,3.25-2,5.5-2.82,2.83-1,5.49-2,6.59-3.68L72.84,33a3.69,3.69,0,0,1,2-1.68,1.14,1.14,0,0,0,.69-.48,1.1,1.1,0,0,0-1.15-1.67A5.87,5.87,0,0,0,71,31.84l-3.62,5.55c-.7,1.08-3.25,2-5.5,2.83-2.82,1-5.48,2-6.58,3.68l-4.79,7.35c-.68,10.87.12,10.07.92,10.07S53,62.12,52.32,52.48Z"/><path class="cls-1" d="M83.84,12.05a4.39,4.39,0,0,0-3.17,1.12,4.25,4.25,0,0,0-1.45,3l-1.75,14c-.25,2.19-1.34,3.85-3.71,7.5A85,85,0,0,1,67,46.05a1.1,1.1,0,1,0,1.62,1.49,85.87,85.87,0,0,0,7-8.75C78.09,35,79.34,33,79.65,30.35l1.76-14A2.2,2.2,0,0,1,85.24,15a2.26,2.26,0,0,1,.56,1.63l-.37,17.5s-.06,3.79-4,9.81C78.05,49.13,68.34,54.3,68.2,54.38a16.84,16.84,0,0,0-4.88,5.27,1.1,1.1,0,0,0,1.84,1.2,15.5,15.5,0,0,1,4.11-4.55c.42-.23,10.31-5.49,14-11.19,4.33-6.65,4.34-10.85,4.34-11L88,16.68a4.39,4.39,0,0,0-4.15-4.63Z"/><path class="cls-2" d="M55.91,69.49a2.36,2.36,0,1,1-3.33-.06A2.36,2.36,0,0,1,55.91,69.49Z"/><path class="cls-1" d="M75.12,65.18,48,64.71l-.1,5.47a1.18,1.18,0,1,1-2.35,0l.12-6.65a1.17,1.17,0,0,1,1.19-1.16l28.28.5a1.17,1.17,0,0,1,.83.35,1.21,1.21,0,0,1,.33.84A1.18,1.18,0,0,1,75.12,65.18Z"/><path class="cls-1" d="M35.68,52.48l-4.81-7.39c-.7-1.07-3.25-2-5.5-2.82-2.83-1-5.49-2-6.59-3.68L15.16,33a3.69,3.69,0,0,0-2-1.68,1.14,1.14,0,0,1-.69-.48,1.1,1.1,0,0,1,1.15-1.67A5.87,5.87,0,0,1,17,31.84l3.62,5.55c.7,1.08,3.25,2,5.5,2.83,2.82,1,5.48,2,6.58,3.68l4.79,7.35c.68,10.87-.12,10.07-.92,10.07S35,62.12,35.68,52.48Z"/><path class="cls-1" d="M4.16,12.05a4.39,4.39,0,0,1,3.17,1.12,4.25,4.25,0,0,1,1.45,3l1.75,14c.25,2.19,1.34,3.85,3.71,7.5a85,85,0,0,0,6.81,8.46,1.1,1.1,0,1,1-1.62,1.49,85.87,85.87,0,0,1-7-8.75C9.91,35,8.66,33,8.35,30.35l-1.76-14A2.2,2.2,0,0,0,2.76,15,2.26,2.26,0,0,0,2.2,16.6l.37,17.5s.06,3.79,4,9.81C10,49.13,19.66,54.3,19.8,54.38a16.84,16.84,0,0,1,4.88,5.27,1.1,1.1,0,0,1-1.84,1.2,15.5,15.5,0,0,0-4.11-4.55c-.42-.23-10.31-5.49-14-11.19C.38,38.46.37,34.26.37,34.12L0,16.68a4.39,4.39,0,0,1,4.15-4.63Z"/><path class="cls-2" d="M32.09,69.49a2.36,2.36,0,1,0,3.33-.06A2.36,2.36,0,0,0,32.09,69.49Z"/><path class="cls-1" d="M12.88,65.18,40,64.71l.1,5.47a1.18,1.18,0,1,0,2.35,0l-.12-6.65a1.17,1.17,0,0,0-1.19-1.16l-28.28.5a1.17,1.17,0,0,0-.83.35,1.21,1.21,0,0,0-.33.84A1.18,1.18,0,0,0,12.88,65.18Z"/><path class="cls-1" d="M60.91,5.06a64.12,64.12,0,0,0-5.36,10.76l2.23,0a65.31,65.31,0,0,1,4.7-9.27,68.63,68.63,0,0,1,4.68,9.21h2.22A65.33,65.33,0,0,0,64.05,5.06a2.8,2.8,0,0,0,1-3.44A2.57,2.57,0,0,0,63.65.24,2.8,2.8,0,0,0,59.7,2.78,2.77,2.77,0,0,0,60.91,5.06Zm1.57-2.93a.68.68,0,1,1-.68.68A.68.68,0,0,1,62.48,2.13Z"/><path class="cls-1" d="M53.25,3.67l-4.41,1a3.94,3.94,0,0,0-7.43,1.62l-11,2.38a2.78,2.78,0,0,0-3.32-.93A2.54,2.54,0,0,0,25.66,9.1a2.81,2.81,0,0,0,1,3.45C25.16,15,22,20.61,21.05,24.15h2a58.28,58.28,0,0,1,5-10,60.67,60.67,0,0,1,5,10.06l2.32,0c-.89-3.54-4.11-9.2-5.58-11.67a2.82,2.82,0,0,0,1.17-1.89L41.84,8.29a4.07,4.07,0,0,0,.73,1V38.6H39.82a1,1,0,0,0-1,1v2.51h2.16V40.76h8.84v1.38h2V39.65a1,1,0,0,0-1-1H48.12V9.3a4,4,0,0,0,1.17-2.63l4.43-1A1,1,0,0,0,54.48,5,1.05,1.05,0,0,0,53.25,3.67ZM28,11a.68.68,0,1,1,0-1.36A.68.68,0,0,1,28,11ZM46.07,38.6H44.63V10.42a4.2,4.2,0,0,0,.72.06,4.37,4.37,0,0,0,.72-.06ZM45.3,8.43a1.88,1.88,0,1,1,1.88-1.88A1.88,1.88,0,0,1,45.3,8.43Z"/><path class="cls-1" d="M58.54,3.75a1.05,1.05,0,0,0-1.25-.81l-.76.17a1,1,0,0,0,.22,2.07l.22,0L57.74,5A1,1,0,0,0,58.54,3.75Z"/><path class="cls-2" d="M36.49,24.79l-3.3,0H32c-4.79,0-9.3.05-12.31,0a1,1,0,0,0-.55.85,9,9,0,1,0,18,0A1,1,0,0,0,36.49,24.79Zm-8.48,8a7,7,0,0,1-6.89-5.92H34.9A7,7,0,0,1,28,32.81Z"/><path class="cls-2" d="M70.62,16.76l-3.3,0H66.17c-4.8,0-9.3.05-12.32,0a1,1,0,0,0-.55.85,9,9,0,1,0,18,0A1,1,0,0,0,70.62,16.76Zm-8.48,8a7,7,0,0,1-6.89-5.92H69A7,7,0,0,1,62.14,24.78Z"/></g></g></svg>