<?xml version="1.0" encoding="utf-8"?>
<!-- Generator: Adobe Illustrator 16.0.0, SVG Export Plug-In . SVG Version: 6.00 Build 0)  -->
<!DOCTYPE svg PUBLIC "-//W3C//DTD SVG 1.1 Tiny//EN" "http://www.w3.org/Graphics/SVG/1.1/DTD/svg11-tiny.dtd">
<svg xmlns="http://www.w3.org/2000/svg" xmlns:xlink="http://www.w3.org/1999/xlink" version="1.1" baseProfile="tiny" id="Layer_1" x="0px" y="0px" width="512px" height="512px" viewBox="0 0 24 24" xml:space="preserve">
<g>
	<path d="M22.257,10.675c-0.563-0.272-0.563-0.272-0.568-0.75C21.68,9.479,21.68,9.479,22.242,9.15   c0.982-0.583,1.287-0.872,0.843-1.824c-0.152-0.333-0.341-0.746-0.878-0.746c-0.24,0-0.522,0.083-1.026,0.256   c-0.214,0.073-0.432,0.144-0.539,0.144c-0.052,0-0.102-0.018-0.352-0.262c-0.34-0.332-0.34-0.332-0.152-1.041   c0.264-1.017,0.271-1.437-0.724-1.818c-0.195-0.072-0.386-0.138-0.576-0.138c-0.549,0-0.794,0.502-1.104,1.136   c-0.271,0.555-0.271,0.555-0.745,0.563l-0.138,0.001c-0.311,0-0.311,0-0.655-0.585c-0.348-0.598-0.6-1.029-1.108-1.029   c-0.223,0-0.439,0.093-0.678,0.203c-0.968,0.443-0.871,0.86-0.534,1.846c0.217,0.637,0.217,0.637-0.113,0.979   c-0.257,0.268-0.29,0.268-0.369,0.268c-0.125,0-0.339-0.051-0.626-0.128c-0.384-0.099-0.667-0.159-0.892-0.159   c-0.616,0-0.787,0.449-0.926,0.815c-0.362,0.986-0.045,1.244,0.95,1.729c0.577,0.282,0.577,0.282,0.579,0.72   c0.009,0.488,0.009,0.488-0.593,0.842c-0.971,0.568-1.249,0.828-0.829,1.735c0.178,0.394,0.362,0.801,0.905,0.801   c0.239,0,0.521-0.083,0.987-0.244c0.228-0.076,0.46-0.15,0.577-0.15c0.061,0,0.116,0.025,0.353,0.253   c0.341,0.336,0.341,0.336,0.164,0.999c-0.282,1.08-0.293,1.49,0.688,1.854c0.228,0.082,0.417,0.145,0.608,0.145   c0.542,0,0.769-0.463,1.082-1.104c0.283-0.578,0.283-0.578,0.739-0.585l0.141-0.002c0.33,0,0.33,0,0.664,0.566   c0.468,0.805,0.813,1.291,1.801,0.847c0.924-0.437,0.881-0.825,0.507-1.912c-0.196-0.572-0.196-0.572,0.128-0.91   c0.256-0.269,0.29-0.269,0.371-0.269c0.125,0,0.337,0.049,0.638,0.127c0.398,0.103,0.656,0.158,0.875,0.158   c0.625,0,0.807-0.488,0.941-0.846C23.58,11.424,23.261,11.167,22.257,10.675z M22.475,12.104c-0.088,0.236-0.132,0.309-0.191,0.325   c-0.132,0-0.365-0.054-0.674-0.133c-0.38-0.099-0.626-0.152-0.839-0.152c-0.457,0-0.708,0.263-0.948,0.516   c-0.563,0.585-0.608,0.842-0.307,1.723c0.075,0.217,0.23,0.669,0.217,0.755c-0.038,0.046-0.242,0.143-0.302,0.171   c-0.066,0.03-0.267,0.12-0.33,0.122c-0.098-0.047-0.35-0.481-0.446-0.646c-0.422-0.715-0.606-0.962-1.354-0.962l-0.154,0.001   c-0.864,0.014-1.034,0.194-1.444,1.034c-0.088,0.181-0.296,0.605-0.361,0.656l-0.002,0.4v-0.4c-0.067,0-0.25-0.065-0.333-0.096   c-0.081-0.03-0.296-0.109-0.328-0.137c-0.032-0.104,0.093-0.583,0.14-0.761c0.24-0.9,0.234-1.173-0.38-1.778   c-0.246-0.235-0.5-0.479-0.911-0.479c-0.217,0-0.45,0.064-0.835,0.193c-0.281,0.097-0.592,0.2-0.725,0.211   c-0.043-0.039-0.136-0.242-0.182-0.344c-0.029-0.063-0.119-0.258-0.128-0.283c0.053-0.089,0.432-0.311,0.635-0.43   c0.841-0.494,1.004-0.667,0.988-1.541c-0.004-0.843-0.199-1.023-1.028-1.429c-0.18-0.088-0.601-0.293-0.652-0.372   c-0.006-0.042,0.028-0.164,0.1-0.359c0.024-0.064,0.099-0.262,0.176-0.295c0.149,0,0.421,0.064,0.689,0.134   c0.372,0.1,0.614,0.153,0.829,0.153c0.454,0,0.704-0.262,0.945-0.513c0.608-0.627,0.599-0.899,0.294-1.791   c-0.084-0.247-0.211-0.62-0.209-0.687c0.041-0.047,0.251-0.143,0.321-0.175c0.069-0.032,0.279-0.129,0.325-0.134   c0.093,0.051,0.333,0.461,0.436,0.638c0.436,0.741,0.637,0.981,1.346,0.981l0.153-0.002c0.828-0.015,1.03-0.157,1.448-1.012   c0.084-0.173,0.31-0.633,0.385-0.687c0.063,0,0.233,0.063,0.293,0.085c0.263,0.102,0.341,0.151,0.356,0.169   c0.033,0.095-0.082,0.534-0.124,0.698c-0.252,0.954-0.248,1.215,0.367,1.816c0.472,0.461,0.854,0.595,1.708,0.303   c0.313-0.107,0.63-0.213,0.761-0.224c0.042,0.037,0.129,0.227,0.158,0.292c0.037,0.079,0.135,0.29,0.136,0.338   c-0.049,0.101-0.494,0.364-0.658,0.462c-0.822,0.479-0.964,0.7-0.948,1.477c0.009,0.88,0.201,1.062,1.018,1.457   c0.183,0.09,0.612,0.3,0.665,0.375C22.577,11.828,22.5,12.036,22.475,12.104z" fill="#002b49"/>
	<path d="M6.71,13.471c-0.627-0.355-1.488-0.123-1.85,0.505c-0.367,0.658-0.147,1.468,0.505,1.847   c0.203,0.115,0.434,0.177,0.668,0.177c0.483,0,0.935-0.259,1.179-0.678C7.582,14.678,7.359,13.849,6.71,13.471z M6.52,14.921   c-0.148,0.253-0.512,0.347-0.756,0.208c-0.267-0.155-0.357-0.49-0.208-0.759c0.1-0.174,0.28-0.277,0.481-0.277   c0.097,0,0.193,0.025,0.274,0.071C6.573,14.316,6.667,14.664,6.52,14.921z" fill="#002b49"/>
	<path d="M10.181,14.158c-0.788-0.263-0.788-0.263-1.019-0.816c-0.258-0.63-0.258-0.63,0.097-1.416   c0.557-1.244,0.589-1.593-0.385-2.161c-0.315-0.178-0.56-0.304-0.827-0.304c-0.474,0-0.768,0.376-1.208,0.989   c-0.541,0.752-0.563,0.755-1.13,0.819c-0.119,0.011-0.218,0.019-0.305,0.019c-0.224,0-0.306-0.022-0.886-0.558   C3.974,10.226,3.62,9.917,3.205,9.917c-0.34,0-0.603,0.208-0.886,0.46c-0.823,0.728-0.734,1.122,0.03,2.198   c0.518,0.711,0.51,0.746,0.38,1.333c-0.103,0.462-0.116,0.521-0.935,0.978c-1.103,0.605-1.42,0.894-0.949,1.995   c0.162,0.379,0.364,0.852,0.983,0.852c0.276,0,0.616-0.092,1.147-0.262c0.699-0.223,0.627-0.312,1.371,0.115   c0.477,0.271,0.477,0.271,0.682,1.214c0.176,0.858,0.304,1.479,1.154,1.479c0.119,0,0.259-0.011,0.427-0.029   c1.184-0.124,1.24-0.562,1.227-1.803c0-0.872,0-0.872,0.403-1.216c0.378-0.323,0.441-0.356,0.673-0.356   c0.152,0,0.342,0.021,0.604,0.056c0.355,0.046,0.625,0.072,0.834,0.072c0.855,0,1.035-0.488,1.182-1.126   C11.772,14.815,11.354,14.563,10.181,14.158z M10.751,15.697c-0.116,0.504-0.116,0.504-0.402,0.504   c-0.184,0-0.421-0.025-0.731-0.064c-0.306-0.04-0.528-0.063-0.707-0.063c-0.526,0-0.771,0.188-1.192,0.548   c-0.633,0.539-0.684,0.77-0.684,1.828c0.003,0.29,0.009,0.83-0.054,0.919c-0.056,0.042-0.347,0.073-0.457,0.085   c-0.28,0.028-0.472,0.01-0.473,0.011c-0.084-0.07-0.193-0.601-0.241-0.831c-0.239-1.1-0.34-1.328-1.067-1.742   c-0.677-0.39-1.125-0.465-2.011-0.183c-0.42,0.134-0.741,0.249-0.961,0.217c-0.034-0.021-0.099-0.142-0.192-0.359   c-0.226-0.527-0.226-0.527,0.601-0.98c0.905-0.504,1.154-0.718,1.329-1.505c0.187-0.847,0.12-1.105-0.512-1.973   c-0.551-0.777-0.551-0.777-0.149-1.133c0.241-0.214,0.327-0.259,0.355-0.259c0.122,0,0.576,0.42,0.77,0.601   c0.564,0.521,0.86,0.771,1.43,0.771c0.108,0,0.23-0.009,0.387-0.022c0.874-0.1,1.072-0.278,1.698-1.148   c0.124-0.172,0.451-0.628,0.559-0.656c0.078,0,0.318,0.136,0.429,0.198c0.111,0.064,0.342,0.199,0.372,0.252   c0.027,0.117-0.207,0.638-0.318,0.887c-0.454,1.007-0.463,1.179-0.106,2.049c0.344,0.827,0.542,0.95,1.501,1.27   C10.855,15.237,10.855,15.237,10.751,15.697z" fill="#002b49"/>
</g>
</svg>
